<svg xmlns="http://www.w3.org/2000/svg" width="938" height="938" viewBox="0 0 938 938" version="1.1"><path d="M 464.499 13.807 C 459.002 16.908, 444.598 25.268, 436.500 30.059 C 432.100 32.662, 426.925 35.675, 425 36.753 C 420.600 39.219, 385.737 59.234, 368.500 69.191 C 361.350 73.321, 347.850 81.114, 338.500 86.509 C 329.150 91.905, 317.340 98.726, 312.256 101.669 C 298.279 109.758, 285.090 117.394, 274.256 123.671 C 268.890 126.779, 257.300 133.461, 248.500 138.520 C 239.700 143.578, 226.425 151.222, 219 155.505 C 211.575 159.788, 203.475 164.427, 201 165.814 C 198.525 167.201, 193.680 170.060, 190.232 172.168 C 186.785 174.276, 183.764 176, 183.518 176 C 183.272 176, 178.989 178.475, 174 181.500 C 169.011 184.525, 164.736 187, 164.500 187 C 164.264 187, 159.989 189.475, 155 192.500 C 150.011 195.525, 145.728 198, 145.482 198 C 145.236 198, 142.215 199.724, 138.768 201.832 C 135.320 203.940, 130.475 206.799, 128 208.186 C 125.525 209.573, 117.425 214.217, 110 218.505 C 102.575 222.793, 92.984 228.271, 88.686 230.678 C 84.389 233.086, 79.101 236.173, 76.936 237.540 L 73 240.025 73 469 L 73 697.975 76.936 700.460 C 79.101 701.827, 84.389 704.914, 88.686 707.322 C 92.984 709.729, 102.575 715.207, 110 719.495 C 117.425 723.783, 125.525 728.427, 128 729.814 C 130.475 731.201, 135.320 734.060, 138.768 736.168 C 142.215 738.276, 145.236 740, 145.482 740 C 145.728 740, 150.011 742.475, 155 745.500 C 159.989 748.525, 164.264 751, 164.500 751 C 164.736 751, 169.011 753.475, 174 756.500 C 178.989 759.525, 183.272 762, 183.518 762 C 183.764 762, 186.785 763.724, 190.232 765.832 C 193.680 767.940, 198.525 770.799, 201 772.186 C 203.475 773.573, 211.575 778.212, 219 782.495 C 226.425 786.778, 239.700 794.419, 248.500 799.476 C 257.300 804.532, 270.575 812.191, 278 816.496 C 285.425 820.801, 295.660 826.730, 300.744 829.671 C 305.829 832.613, 314.379 837.565, 319.744 840.677 C 325.110 843.790, 335.125 849.558, 342 853.495 C 348.875 857.433, 360.575 864.179, 368 868.486 C 381.957 876.583, 418.836 897.785, 425 901.256 C 426.925 902.340, 432.775 905.730, 438 908.789 C 458.995 921.080, 461.644 922.606, 465.250 924.493 L 469 926.455 472.750 924.493 C 476.356 922.606, 479.005 921.080, 500 908.789 C 505.225 905.730, 511.075 902.340, 513 901.256 C 519.164 897.785, 556.043 876.583, 570 868.486 C 577.425 864.179, 589.125 857.433, 596 853.495 C 602.875 849.558, 612.890 843.790, 618.256 840.677 C 623.621 837.565, 632.171 832.613, 637.256 829.671 C 642.340 826.730, 652.575 820.801, 660 816.496 C 667.425 812.191, 680.700 804.532, 689.500 799.476 C 698.300 794.419, 711.575 786.778, 719 782.495 C 726.425 778.212, 734.525 773.573, 737 772.186 C 739.475 770.799, 744.320 767.940, 747.768 765.832 C 751.215 763.724, 754.236 762, 754.482 762 C 754.728 762, 759.011 759.525, 764 756.500 C 768.989 753.475, 773.264 751, 773.500 751 C 773.736 751, 778.011 748.525, 783 745.500 C 787.989 742.475, 792.272 740, 792.518 740 C 792.764 740, 795.785 738.276, 799.232 736.168 C 802.680 734.060, 807.525 731.201, 810 729.814 C 820.320 724.030, 841.573 711.763, 842.500 711.055 C 843.050 710.634, 846.650 708.583, 850.500 706.495 C 854.350 704.408, 859.188 701.637, 861.250 700.337 L 865 697.975 865 469 L 865 240.025 861.064 237.540 C 858.899 236.173, 853.611 233.086, 849.314 230.678 C 845.016 228.271, 835.425 222.793, 828 218.505 C 820.575 214.217, 812.475 209.573, 810 208.186 C 807.525 206.799, 802.680 203.940, 799.232 201.832 C 795.785 199.724, 792.764 198, 792.518 198 C 792.272 198, 787.989 195.525, 783 192.500 C 778.011 189.475, 773.736 187, 773.500 187 C 773.264 187, 768.989 184.525, 764 181.500 C 759.011 178.475, 754.728 176, 754.482 176 C 754.236 176, 751.215 174.276, 747.768 172.168 C 744.320 170.060, 739.475 167.201, 737 165.814 C 734.525 164.427, 726.425 159.788, 719 155.505 C 711.575 151.222, 698.300 143.578, 689.500 138.520 C 680.700 133.461, 669.110 126.779, 663.744 123.671 C 652.910 117.394, 639.721 109.758, 625.744 101.669 C 620.660 98.726, 608.850 91.905, 599.500 86.509 C 590.150 81.114, 576.650 73.321, 569.500 69.191 C 547.346 56.394, 516.719 38.834, 512 36.223 C 509.525 34.853, 507.050 33.399, 506.500 32.992 C 505.950 32.585, 499.425 28.749, 492 24.467 C 467.180 10.154, 469.430 11.026, 464.499 13.807 M 464.500 40.875 C 462.850 41.888, 449.125 49.824, 434 58.511 C 418.875 67.198, 402.900 76.410, 398.500 78.983 C 383.772 87.594, 369.830 95.647, 314.500 127.502 C 284.250 144.918, 255 161.782, 249.500 164.977 C 232.975 174.576, 202.716 192.076, 182 204.013 C 171.275 210.193, 154.175 220.069, 144 225.960 C 133.825 231.851, 118.686 240.586, 110.358 245.371 L 95.215 254.072 94.790 469.786 L 94.366 685.500 95.433 686.641 C 96.020 687.268, 102.575 691.278, 110 695.552 C 117.425 699.826, 127.775 705.797, 133 708.820 C 155.438 721.804, 204.598 750.206, 228.500 763.995 C 237.300 769.072, 265.200 785.165, 290.500 799.758 C 315.800 814.350, 340.100 828.398, 344.500 830.975 C 348.900 833.552, 357.450 838.513, 363.500 842 C 369.550 845.487, 378.100 850.437, 382.500 853 C 391.340 858.149, 398.471 862.278, 439.338 885.905 L 467.175 902 468.981 902 L 470.786 902 482.643 895.157 C 489.164 891.394, 499 885.710, 504.500 882.526 C 510 879.342, 518.550 874.394, 523.500 871.530 C 528.450 868.666, 538.546 862.821, 545.936 858.540 C 553.326 854.259, 560.751 849.980, 562.436 849.030 C 569.095 845.277, 650.848 798.117, 666.500 789 C 670.900 786.437, 679.450 781.487, 685.500 778 C 691.550 774.513, 700.100 769.563, 704.500 767 C 715.571 760.551, 730.181 752.108, 752.500 739.260 C 817.610 701.781, 838.813 689.483, 841.250 687.782 L 844 685.864 844 470.500 L 844 255.136 841.250 253.211 C 838.824 251.513, 818.660 239.812, 778 216.509 C 771.125 212.569, 759.650 205.956, 752.500 201.813 C 735.826 192.152, 683.228 161.820, 667 152.507 C 660.125 148.562, 645.275 140, 634 133.482 C 622.725 126.963, 602.025 115.039, 588 106.984 C 573.975 98.929, 556.425 88.814, 549 84.506 C 535.218 76.509, 517.866 66.489, 487.332 48.893 C 477.889 43.452, 469.564 39.008, 468.832 39.017 C 468.099 39.026, 466.150 39.862, 464.500 40.875 M 361.191 159.850 L 358.882 160.500 368 160.500 L 377.118 160.500 374.809 159.850 C 373.539 159.492, 370.475 159.199, 368 159.199 C 365.525 159.199, 362.461 159.492, 361.191 159.850 M 490.708 159.848 L 488.916 160.556 496.635 160.556 L 504.353 160.556 501.927 159.877 C 498.716 158.980, 492.944 158.965, 490.708 159.848 M 352.032 162.582 C 347.966 164.346, 347.036 165.559, 347.015 169.128 L 347 171.755 348.448 172.957 L 349.895 174.158 351.698 173.092 L 353.500 172.025 351 172.263 L 348.500 172.500 348.500 169 L 348.500 165.500 353 163.291 C 358.072 160.802, 357.353 160.275, 352.032 162.582 M 380.589 162.891 C 382.287 163.927, 384.650 166.011, 385.839 167.522 C 387.027 169.033, 387.985 169.872, 387.967 169.385 C 387.887 167.259, 380.833 160.995, 378.527 161.004 C 377.962 161.006, 378.890 161.855, 380.589 162.891 M 395.653 161.750 L 395.188 162.500 400.102 162.153 L 405.015 161.806 406.468 165.153 L 407.922 168.500 407.961 166.973 C 407.982 166.132, 407.299 164.445, 406.443 163.223 L 404.887 161 400.502 161 C 398.091 161, 395.909 161.338, 395.653 161.750 M 427.203 162.256 C 426.630 162.946, 425.896 164.859, 425.571 166.506 L 424.982 169.500 426.324 166 L 427.666 162.500 430.971 162.176 C 432.789 161.998, 435.257 162.099, 436.455 162.399 L 438.634 162.946 439.755 166.723 L 440.876 170.500 440.345 167 L 439.813 163.500 438.215 162.250 L 436.618 161 432.431 161 L 428.245 161 427.203 162.256 M 460.746 162.250 L 459.109 163.500 458.574 166.500 L 458.038 169.500 459.169 166.231 L 460.300 162.963 462.663 162.370 C 463.962 162.044, 466.346 161.971, 467.960 162.207 L 470.894 162.638 470.388 161.819 L 469.882 161 466.132 161 L 462.382 161 460.746 162.250 M 482.481 163.125 C 480.836 164.294, 478.674 166.331, 477.678 167.652 C 474.076 172.426, 474.261 181.289, 478.059 186 L 480.075 188.500 477.914 184.207 L 475.754 179.915 476.233 174.925 L 476.713 169.935 479.106 167.334 C 480.423 165.904, 482.850 163.895, 484.500 162.871 C 486.150 161.846, 487.044 161.006, 486.486 161.004 C 485.928 161.002, 484.126 161.956, 482.481 163.125 M 395.066 165.845 C 394.978 167.635, 399.121 181.212, 399.607 180.726 C 399.816 180.517, 398.895 176.781, 397.560 172.423 C 396.224 168.065, 395.102 165.105, 395.066 165.845 M 357.140 170.147 C 355.293 170.679, 353.968 171.301, 354.197 171.530 C 354.425 171.759, 356.371 171.460, 358.520 170.867 L 362.428 169.788 367.883 170.240 L 373.339 170.693 375.669 173.402 C 376.951 174.892, 378 175.669, 378 175.127 C 378 173.669, 375.027 170.961, 372.280 169.916 C 369.246 168.763, 361.542 168.880, 357.140 170.147 M 488.635 171.073 L 486 173.145 486 175.381 C 486 176.611, 486.661 178.491, 487.470 179.559 L 488.940 181.500 487.741 178.225 L 486.542 174.949 487.617 173.225 L 488.692 171.500 492.096 170.306 L 495.500 169.113 493.385 169.056 L 491.270 169 488.635 171.073 M 504.465 170.541 C 507.196 171.290, 509.601 171.732, 509.809 171.524 C 510.309 171.024, 502.923 168.987, 501 169.095 C 500.175 169.141, 501.734 169.792, 504.465 170.541 M 388.820 187.779 C 388.996 196.936, 389.446 204.977, 389.820 205.649 L 390.500 206.869 390.180 190.221 C 390.004 181.064, 389.554 173.023, 389.180 172.351 L 388.500 171.131 388.820 187.779 M 423 176 C 422.326 178.809, 421.973 181.307, 422.217 181.550 C 422.460 181.793, 423.193 179.676, 423.846 176.846 C 424.499 174.016, 424.852 171.519, 424.630 171.296 C 424.407 171.074, 423.674 173.191, 423 176 M 378.168 180.603 L 378 184.706 372.750 184.412 L 367.500 184.117 372.500 184.925 L 377.500 185.732 378.318 184.998 L 379.136 184.264 378.736 180.382 L 378.336 176.500 378.168 180.603 M 410.124 177.500 C 410.077 178.050, 410.665 180.750, 411.430 183.500 L 412.821 188.500 412.834 186.500 C 412.847 184.371, 410.269 175.808, 410.124 177.500 M 431.700 177.734 C 431.460 178.155, 431.005 180.300, 430.691 182.500 L 430.119 186.500 431.344 182.701 L 432.568 178.901 433.284 179.617 L 434 180.333 434 179.226 C 434 178.616, 433.581 177.859, 433.069 177.543 L 432.138 176.967 431.700 177.734 M 420.154 188.154 C 419.501 190.984, 419.148 193.481, 419.370 193.704 C 419.593 193.926, 420.326 191.809, 421 189 C 421.674 186.191, 422.027 183.693, 421.783 183.450 C 421.540 183.207, 420.807 185.324, 420.154 188.154 M 353.311 186.075 C 351.006 187.216, 348.531 188.885, 347.811 189.785 L 346.500 191.422 349.939 189.008 C 351.830 187.681, 355.430 186.041, 357.939 185.365 L 362.500 184.135 360 184.068 L 357.500 184.002 353.311 186.075 M 507.470 188.282 L 511.441 190.530 513.720 193.913 C 514.974 195.774, 516 196.814, 516 196.225 C 516 194.485, 510.990 189.046, 507.931 187.464 C 503.447 185.145, 503.081 185.796, 507.470 188.282 M 428.077 193.077 C 427.462 195.945, 427.149 198.482, 427.382 198.715 C 427.614 198.948, 428.308 196.791, 428.923 193.923 C 429.538 191.055, 429.851 188.518, 429.618 188.285 C 429.386 188.052, 428.692 190.209, 428.077 193.077 M 482.830 189.895 C 485.066 191.867, 491.949 194.384, 492.795 193.539 C 493.019 193.315, 491.469 192.663, 489.351 192.091 C 487.233 191.518, 484.375 190.327, 483 189.445 L 480.500 187.840 482.830 189.895 M 413.124 189.500 C 413.077 190.050, 413.665 192.750, 414.430 195.500 L 415.821 200.500 415.834 198.500 C 415.847 196.371, 413.269 187.808, 413.124 189.500 M 436.659 193.500 C 437.003 195.700, 437.663 198.400, 438.126 199.500 L 438.967 201.500 438.341 197.500 C 437.997 195.300, 437.337 192.600, 436.874 191.500 L 436.033 189.500 436.659 193.500 M 361.271 192.811 L 360.042 193.592 366.495 193.181 C 370.045 192.955, 374.085 193.056, 375.474 193.404 L 378 194.038 378.150 197.269 L 378.300 200.500 378.736 197.549 L 379.172 194.599 377.395 193.299 L 375.618 192 369.059 192.015 C 365.451 192.024, 361.947 192.382, 361.271 192.811 M 356.872 195.654 L 355.500 197.307 355.500 201.742 L 355.500 206.177 357.861 208.088 L 360.222 210 364.361 209.985 C 366.637 209.976, 369.101 209.589, 369.835 209.123 L 371.169 208.277 366.230 208.752 L 361.292 209.226 359.189 208.101 L 357.086 206.976 356.442 203.543 L 355.798 200.111 357.322 197.055 C 359.033 193.627, 358.899 193.212, 356.872 195.654 M 498 195.673 C 499.925 196.504, 502.392 197.930, 503.483 198.842 L 505.466 200.500 503.983 198.595 C 502.587 196.802, 496.998 193.903, 495.282 194.082 C 494.852 194.126, 496.075 194.843, 498 195.673 M 405.079 199.145 C 404.906 200.556, 409.265 213.640, 410.611 215.750 L 412.046 218 416.368 218 L 420.690 218 422.345 216.171 C 423.255 215.165, 424 213.940, 424 213.449 C 424 212.957, 423.283 213.578, 422.408 214.829 L 420.815 217.102 416.158 216.801 L 411.500 216.500 408.947 209 C 405.968 200.250, 405.187 198.260, 405.079 199.145 M 425.077 205.077 C 424.462 207.945, 424.149 210.482, 424.382 210.715 C 424.614 210.948, 425.308 208.791, 425.923 205.923 C 426.538 203.055, 426.851 200.518, 426.618 200.285 C 426.386 200.052, 425.692 202.209, 425.077 205.077 M 391.592 210.576 L 392.180 213.652 389.625 215.326 C 386.018 217.689, 384.861 217.458, 381.826 213.764 L 379.151 210.509 376.818 212.701 C 375.535 213.906, 372.914 215.574, 370.993 216.407 C 369.072 217.240, 368.092 217.939, 368.816 217.961 C 370.619 218.015, 374.040 216.169, 376.801 213.653 L 379.102 211.556 381.623 214.778 L 384.145 218 385.668 218 C 386.506 218, 388.498 217.069, 390.096 215.932 L 393 213.864 392.985 212.182 C 392.976 211.257, 392.527 209.825, 391.986 209 L 391.003 207.500 391.592 210.576 M 488.728 209.722 C 490.503 209.943, 493.653 209.946, 495.728 209.730 L 499.500 209.336 492.500 209.328 L 485.500 209.320 488.728 209.722 M 455 213.349 L 453.500 216.500 448.725 216.806 L 443.950 217.112 442.514 213.806 L 441.078 210.500 441.039 212.027 C 441.018 212.868, 441.701 214.555, 442.557 215.777 L 444.113 218 448.485 218 L 452.857 218 454.363 216.494 C 455.879 214.979, 457.476 211.129, 456.841 210.524 C 456.654 210.344, 455.825 211.616, 455 213.349 M 347.796 214.197 C 348.509 215.087, 350.602 216.532, 352.447 217.408 L 355.802 219 361.651 218.853 L 367.500 218.707 360.434 218.052 L 353.368 217.398 349.934 214.988 L 346.500 212.578 347.796 214.197 M 480.244 216.999 C 481.203 217.600, 484.353 218.282, 487.244 218.513 L 492.500 218.933 487.839 218.062 C 485.275 217.583, 482.125 216.902, 480.839 216.548 L 478.500 215.905 480.244 216.999 M 593.999 260.799 L 594.498 287.500 594.766 261.567 L 595.035 235.635 594.267 234.866 L 593.500 234.097 593.999 260.799 M 467.080 238.404 L 465.835 239.904 466.485 241.952 C 466.842 243.078, 467.610 244, 468.190 244 L 469.245 244 468.011 242.513 L 466.776 241.025 467.357 239.513 L 467.937 238 470 238 L 472.063 238 472.643 239.513 L 473.224 241.025 471.917 242.763 L 470.610 244.500 472.538 242.731 L 474.466 240.962 473.381 239.231 L 472.296 237.500 470.310 237.202 L 468.325 236.903 467.080 238.404 M 589.201 244.750 C 589.091 249.287, 588.826 253, 588.614 253 C 588.402 253, 586.940 252.328, 585.364 251.506 C 583.789 250.685, 581.825 250.045, 581 250.085 L 579.500 250.158 582.500 251.213 C 584.150 251.794, 586.082 252.729, 586.792 253.292 L 588.085 254.315 589.087 253.313 L 590.090 252.310 589.746 244.405 L 589.402 236.500 589.201 244.750 M 486.185 244.687 L 486 250.873 482.750 251.187 L 479.500 251.500 479.500 253.500 L 479.500 255.500 482.750 255.813 L 486 256.127 486 272.095 L 486 288.063 487.567 288.664 L 489.134 289.266 490.211 288.189 L 491.288 287.112 489.169 287.666 L 487.051 288.220 486.775 271.860 L 486.500 255.500 483.250 255.187 L 480 254.873 480 253.437 L 480 252 483.031 252 L 486.063 252 486.588 250.631 C 486.877 249.878, 486.946 246.840, 486.742 243.881 L 486.370 238.500 486.185 244.687 M 444 240.837 L 444 241.813 445.944 241.304 L 447.888 240.796 448.194 246.148 L 448.500 251.500 454.250 252.012 L 460 252.524 460 251.762 L 460 251 454.552 251 L 449.105 251 448.802 245.750 L 448.500 240.500 446.250 240.180 L 444 239.861 444 240.837 M 443 249.937 L 443 250.873 439.750 251.187 L 436.500 251.500 436.500 253.500 L 436.500 255.500 439.722 255.811 L 442.944 256.123 443.266 269.563 L 443.588 283.003 443.544 269.260 L 443.500 255.517 440.500 254.999 L 437.500 254.480 437.500 253.500 L 437.500 252.520 440.418 252.010 L 443.335 251.500 443.751 250.250 C 443.980 249.563, 443.904 249, 443.583 249 C 443.262 249, 443 249.421, 443 249.937 M 353.450 251.407 L 350.401 252.735 347.700 255.944 C 346.215 257.709, 345 259.635, 345 260.225 C 345 260.814, 346.021 259.767, 347.270 257.898 L 349.540 254.500 353.020 252.752 L 356.500 251.003 361 251.015 C 363.475 251.022, 366.512 251.299, 367.750 251.630 L 370 252.233 370 254.136 L 370 256.038 367.250 255.496 L 364.500 254.954 366.842 255.979 L 369.185 257.004 370.092 256.443 C 370.592 256.134, 371 254.997, 371 253.916 L 371 251.950 368.435 250.975 C 367.024 250.439, 363.762 250.018, 361.185 250.039 L 356.500 250.078 353.450 251.407 M 384.500 250.954 C 383.400 251.409, 381.377 253.068, 380.004 254.641 L 377.507 257.500 380.504 254.875 C 382.152 253.431, 384.850 251.779, 386.500 251.204 L 389.500 250.158 388 250.142 C 387.175 250.134, 385.600 250.499, 384.500 250.954 M 398 251.581 C 399.925 252.407, 402.318 254.077, 403.317 255.292 L 405.134 257.500 404.037 255.260 L 402.941 253.021 400.020 251.510 C 398.414 250.680, 396.514 250.018, 395.800 250.039 C 395.085 250.061, 396.075 250.754, 398 251.581 M 426.500 250.884 C 422.686 252.190, 419 254.326, 419 255.229 L 419 256.136 421.936 254.046 L 424.872 251.955 428.647 251.728 L 432.423 251.500 432.785 253.250 L 433.147 255 429.823 255.015 C 427.995 255.024, 425.825 255.461, 425 255.987 L 423.500 256.943 427.500 256.386 C 429.700 256.080, 432.063 255.657, 432.750 255.446 L 434 255.063 434 253.138 L 434 251.214 432.418 250.607 C 430.553 249.891, 429.217 249.954, 426.500 250.884 M 491.796 251.189 C 492.183 251.567, 497.563 252.017, 503.752 252.189 L 515.004 252.500 515.002 251.809 L 515 251.118 503.046 250.809 L 491.092 250.500 491.796 251.189 M 545.667 251.097 L 548.834 252.014 551.417 255.084 C 552.838 256.772, 553.986 257.781, 553.968 257.327 C 553.919 256.048, 551.753 253.582, 549.027 251.704 L 546.555 250 544.527 250.090 L 542.500 250.180 545.667 251.097 M 571 250.706 C 568.876 251.483, 565 255.139, 563.798 257.500 L 562.781 259.500 565.732 256.058 L 568.683 252.617 572.092 251.384 C 573.966 250.707, 574.825 250.153, 574 250.155 C 573.175 250.157, 571.825 250.405, 571 250.706 M 414.228 269.750 L 414.500 288.500 417 288.500 L 419.500 288.500 419.780 274.546 L 420.059 260.592 421.780 258.546 L 423.500 256.500 421.250 258.405 L 419 260.310 419 274.155 L 419 288 417 288 L 415 288 415 270.070 L 415 252.139 417.250 251.706 L 419.500 251.272 416.728 251.136 L 413.956 251 414.228 269.750 M 467.226 269.684 L 467.452 288.500 467.749 270.250 L 468.045 252 469.999 252 L 471.954 252 472.263 269.501 L 472.571 287.002 472.536 269.251 L 472.500 251.500 469.750 251.184 L 467 250.867 467.226 269.684 M 454 254.913 L 448.500 255.500 448.219 268.387 L 447.938 281.274 449.683 283.202 L 451.428 285.130 455.464 284.815 L 459.500 284.500 459.343 286.357 L 459.187 288.213 460.126 287.274 L 461.066 286.334 460.428 284.672 L 459.790 283.010 455.900 283.632 L 452.011 284.254 450.505 283.004 L 449 281.755 449 268.878 L 449 256 453.941 256 L 458.882 256 459.500 255 C 459.840 254.450, 459.979 254.073, 459.809 254.163 C 459.639 254.253, 457.025 254.590, 454 254.913 M 514.224 270.823 L 514 288.147 512.250 287.811 L 510.500 287.475 510.225 271.237 L 509.950 255 500.225 255.208 L 490.500 255.415 499.725 255.745 L 508.950 256.074 509.225 271.680 L 509.500 287.285 511.222 288.370 L 512.945 289.455 513.997 288.403 L 515.050 287.350 514.749 270.425 L 514.448 253.500 514.224 270.823 M 352.790 257.896 L 349.549 260.792 349.365 268.646 L 349.180 276.500 349.883 268.852 L 350.586 261.203 352.043 259.448 C 352.844 258.483, 354.849 257.105, 356.500 256.386 L 359.500 255.078 357.766 255.039 L 356.032 255 352.790 257.896 M 384.750 256.080 C 382.598 257.334, 380 262.185, 380 264.950 L 380 267 391 267 L 402 267 401.985 264.250 C 401.976 262.738, 401.539 260.825, 401.013 260 L 400.057 258.500 400.659 262.250 L 401.262 266 391.131 266 L 381 266 381 265.149 C 381 264.681, 381.498 262.871, 382.106 261.126 L 383.212 257.953 385.856 256.516 C 387.310 255.726, 388.050 255.076, 387.500 255.070 C 386.950 255.065, 385.712 255.519, 384.750 256.080 M 570.241 257.250 C 569.082 258.488, 567.653 260.767, 567.067 262.315 L 566 265.130 566.070 269.815 C 566.109 272.392, 566.510 275.400, 566.962 276.500 L 567.783 278.500 567.266 272.396 L 566.749 266.292 567.947 262.661 L 569.145 259.031 571.707 257.016 C 573.117 255.907, 573.837 255, 573.309 255 C 572.781 255, 571.400 256.012, 570.241 257.250 M 405.738 263.720 L 406.272 269.940 393.135 270.265 L 379.997 270.591 393.249 270.545 L 406.500 270.500 406.797 266.464 L 407.094 262.428 406.149 259.964 L 405.204 257.500 405.738 263.720 M 561.641 262.210 C 561.303 263.470, 561.089 267.200, 561.165 270.500 L 561.302 276.500 562 268.500 C 562.738 260.052, 562.647 258.455, 561.641 262.210 M 589.365 269.500 L 589.370 279.500 589.738 274.216 C 589.941 271.311, 589.939 266.811, 589.734 264.216 L 589.360 259.500 589.365 269.500 M 523.070 269.583 C 523.109 272.288, 523.510 275.400, 523.962 276.500 L 524.783 278.500 524.256 272 C 523.619 264.138, 522.974 262.822, 523.070 269.583 M 533.784 266.738 C 536.689 266.941, 541.189 266.939, 543.784 266.734 L 548.500 266.360 538.500 266.365 L 528.500 266.370 533.784 266.738 M 554 268.803 L 554 269.940 541.332 270.220 L 528.664 270.500 528.407 271.775 L 528.150 273.050 528.658 272.025 L 529.167 271 541.524 271 L 553.882 271 554.541 269.933 L 555.200 268.867 554.600 268.267 L 554 267.667 554 268.803 M 344.530 277.500 C 345.215 281.169, 347.744 284.794, 351.033 286.820 L 353.500 288.340 350.248 285.420 L 346.995 282.500 345.483 278.500 L 343.970 274.500 344.530 277.500 M 530 278.988 C 530 279.447, 531.385 280.987, 533.077 282.411 L 536.153 285 542.327 284.985 C 545.722 284.976, 549.031 284.632, 549.680 284.219 L 550.861 283.468 543.461 283.842 L 536.062 284.215 533.031 281.185 C 531.364 279.518, 530 278.529, 530 278.988 M 525 279.970 C 525 280.666, 526.747 282.982, 528.882 285.118 L 532.765 289 534.632 288.998 L 536.500 288.997 533.020 287.248 L 529.540 285.500 527.270 282.102 L 525 278.704 525 279.970 M 402 283.081 L 400.500 284.131 402.750 283.498 L 405 282.865 405 284.233 C 405 284.985, 404.460 286.140, 403.800 286.800 L 402.600 288 403.733 288 L 404.865 288 405.497 286.009 L 406.129 284.018 405.506 283.009 C 404.720 281.738, 403.894 281.755, 402 283.081 M 572.441 283.445 L 574.382 285 577.941 284.985 C 579.899 284.976, 582.123 284.575, 582.885 284.092 L 584.270 283.215 579.781 283.721 L 575.293 284.227 572.896 283.058 L 570.500 281.890 572.441 283.445 M 356.115 284.092 L 357.500 284.969 362 284.906 C 367.332 284.830, 366.388 284.349, 359.615 283.690 L 354.730 283.215 356.115 284.092 M 390.750 284.723 C 392.538 284.945, 395.462 284.945, 397.250 284.723 L 400.500 284.320 394 284.320 L 387.500 284.320 390.750 284.723 M 585.559 286.532 L 583.618 288 584.609 288 C 585.154 288, 586.111 287.489, 586.736 286.864 L 587.871 285.729 589.507 287.364 C 590.407 288.264, 591.621 289, 592.206 289 L 593.270 289 590.727 287 C 587.736 284.647, 588.017 284.673, 585.559 286.532 M 446.441 287.426 L 448.382 289 453.441 288.853 L 458.500 288.706 453 288.092 C 449.975 287.755, 446.825 287.113, 446 286.665 L 444.500 285.852 446.441 287.426 M 355.787 289.180 C 356.729 289.554, 359.075 289.859, 361 289.859 C 362.925 289.859, 365.271 289.554, 366.213 289.180 L 367.925 288.500 361 288.500 L 354.075 288.500 355.787 289.180 M 386.207 289.149 L 387.500 289.969 393 289.906 C 399.644 289.829, 398.606 289.301, 390.707 288.740 L 384.913 288.328 386.207 289.149 M 241.345 330.543 L 240.753 332.086 241.376 332.710 L 242 333.333 242 331.669 L 242 330.004 468.750 329.750 L 695.500 329.496 468.719 329.248 L 241.937 329 241.345 330.543 M 256.250 333.748 C 263.813 333.917, 276.188 333.917, 283.750 333.748 L 297.500 333.439 270 333.439 L 242.500 333.439 256.250 333.748 M 373.703 373.631 L 373 374.333 373.070 402.917 L 373.141 431.500 373.820 433.218 L 374.500 434.937 374.500 404.718 L 374.500 374.500 382.734 374.210 L 390.967 373.920 391.259 400.460 L 391.550 427.001 391.525 400.250 L 391.500 373.500 382.953 373.214 L 374.405 372.928 373.703 373.631 M 280.083 376.368 C 280.313 376.570, 284.550 376.953, 289.500 377.219 L 298.500 377.703 296 376.951 C 293.493 376.197, 279.301 375.677, 280.083 376.368 M 301.250 379.162 L 304 380.167 304 386.690 L 304 393.214 302.512 392.643 C 301.694 392.329, 298.656 391.839, 295.762 391.553 L 290.500 391.034 297 392.456 C 300.575 393.237, 303.837 393.904, 304.250 393.938 L 305 394 305 387.035 L 305 380.070 303.066 379.035 C 302.002 378.466, 300.539 378.036, 299.816 378.079 L 298.500 378.158 301.250 379.162 M 520 380.577 L 520 383.154 517.077 386.077 C 515.469 387.685, 514.529 389, 514.988 389 C 515.447 389, 516.987 387.615, 518.411 385.923 L 521 382.847 521 380.423 C 521 379.090, 520.775 378, 520.500 378 C 520.225 378, 520 379.160, 520 380.577 M 467.677 382.708 L 467.184 383.500 474.540 383.173 L 481.896 382.846 482.198 388.673 L 482.500 394.500 488.500 394.590 L 494.500 394.679 488.798 394.291 L 483.097 393.903 482.798 388.202 L 482.500 382.500 475.335 382.208 L 468.170 381.916 467.677 382.708 M 259.749 394.531 C 259.483 395.923, 259.591 398.511, 259.990 400.281 L 260.714 403.500 260.725 397.750 C 260.738 391.465, 260.491 390.651, 259.749 394.531 M 336.728 393.722 C 338.503 393.943, 341.653 393.946, 343.728 393.730 L 347.500 393.336 340.500 393.328 L 333.500 393.320 336.728 393.722 M 549.750 393.723 C 551.538 393.945, 554.462 393.945, 556.250 393.723 L 559.500 393.320 553 393.320 L 546.500 393.320 549.750 393.723 M 616.250 393.716 C 617.763 393.945, 620.237 393.945, 621.750 393.716 L 624.500 393.300 619 393.300 L 613.500 393.300 616.250 393.716 M 658.750 393.723 C 660.538 393.945, 663.462 393.945, 665.250 393.723 L 668.500 393.320 662 393.320 L 655.500 393.320 658.750 393.723 M 405.445 395.284 C 405.174 395.990, 405.086 404.652, 405.251 414.534 L 405.549 432.500 405.775 413.679 L 406 394.858 415.002 395.179 L 424.005 395.500 424.002 394.750 L 424 394 414.969 394 L 405.937 394 405.445 395.284 M 433.998 394.712 L 433.995 395.500 442.998 395.179 L 452 394.858 452 418.429 L 452 442 445.122 442 L 438.244 442 436.794 439.817 L 435.345 437.633 434.518 438.971 L 433.691 440.309 434.773 439.640 L 435.856 438.971 436.508 441.026 L 437.161 443.081 444.830 442.791 L 452.500 442.500 452.500 418.500 L 452.500 394.500 443.250 394.212 L 434 393.925 433.998 394.712 M 501.449 395.272 C 501.181 395.971, 501.082 406.884, 501.231 419.522 L 501.500 442.500 510 442.558 L 518.500 442.617 510.250 442.269 L 502 441.922 502 418.500 L 502 395.078 510.750 394.745 L 519.500 394.411 510.719 394.206 L 501.937 394 501.449 395.272 M 586.449 395.272 C 586.181 395.971, 586.082 406.884, 586.231 419.522 L 586.500 442.500 595.500 442.500 L 604.500 442.500 604.536 425.249 L 604.573 407.998 604.263 424.999 L 603.953 442 595.476 442 L 587 442 587 418.421 L 587 394.842 594.408 395.171 L 601.816 395.500 601.349 394.750 L 600.882 394 593.910 394 L 586.937 394 586.449 395.272 M 648.500 395.842 C 646.850 396.850, 644.839 398.536, 644.030 399.588 L 642.561 401.500 645.030 399.372 C 646.389 398.201, 648.850 396.531, 650.500 395.662 C 652.150 394.792, 653.050 394.064, 652.500 394.044 C 651.950 394.024, 650.150 394.833, 648.500 395.842 M 676.837 401.503 L 677.175 406.820 675.337 407.294 L 673.500 407.768 675.750 407.884 L 678 408 678 402.559 L 678 397.118 677.250 396.652 L 676.500 396.186 676.837 401.503 M 296.621 405.444 C 299.437 406.725, 302.051 408.274, 302.430 408.886 C 302.808 409.499, 303.602 410, 304.194 410 L 305.270 410 302.693 407.973 C 300.122 405.951, 293.763 402.949, 292.282 403.058 C 291.852 403.089, 293.804 404.163, 296.621 405.444 M 633.226 422.750 L 633 442 624.524 442 L 616.048 442 615.737 425.499 L 615.425 408.998 615.463 425.749 L 615.500 442.500 624.266 442.789 L 633.033 443.078 633.540 441.757 C 633.819 441.030, 633.913 432.125, 633.749 421.968 L 633.452 403.500 633.226 422.750 M 434.382 416.500 L 434.385 428.500 434.741 422.211 C 434.937 418.752, 434.936 413.352, 434.738 410.211 L 434.378 404.500 434.382 416.500 M 335.557 408.223 C 334.701 409.445, 334.018 411.132, 334.039 411.973 L 334.078 413.500 335.491 410.250 L 336.903 407 339.895 407 L 342.887 407 344.443 409.223 L 346 411.445 346 410.377 C 346 409.790, 345.177 408.565, 344.171 407.655 L 342.343 406 339.728 406 L 337.113 406 335.557 408.223 M 548.655 407.829 C 547.745 408.835, 547 410.060, 547 410.551 C 547 411.043, 547.701 410.445, 548.557 409.223 L 550.113 407 552.857 407 L 555.600 407 557.002 408.250 L 558.404 409.500 557.079 407.750 L 555.755 406 553.033 406 L 550.310 406 548.655 407.829 M 482 417.300 L 482 427.600 483.200 428.800 C 483.860 429.460, 484.846 430, 485.391 430 L 486.382 430 484.620 428.712 L 482.858 427.423 483.179 417.209 L 483.500 406.996 482.750 406.998 L 482 407 482 417.300 M 641.526 412 L 642.046 415.500 645.250 418.500 L 648.454 421.500 645.806 418.500 C 644.349 416.850, 642.674 413.925, 642.082 412 L 641.007 408.500 641.526 412 M 315.343 418.500 L 315.349 426.500 315.733 422.224 C 315.945 419.872, 315.942 416.272, 315.727 414.224 L 315.336 410.500 315.343 418.500 M 577.328 418.500 L 577.336 425.500 577.730 421.728 C 577.946 419.653, 577.943 416.503, 577.722 414.728 L 577.320 411.500 577.328 418.500 M 559.189 418.168 C 559.085 421.286, 558.741 424.661, 558.424 425.668 L 557.849 427.500 558.974 425.750 L 560.100 423.999 559.739 418.250 L 559.378 412.500 559.189 418.168 M 671.461 415.230 C 672.540 415.928, 674.677 417.703, 676.211 419.173 C 677.745 420.643, 679 421.509, 679 421.097 C 679 419.970, 674.833 416.402, 672 415.105 L 669.500 413.959 671.461 415.230 M 308.468 423.135 L 308.435 430.500 309.361 426.245 L 310.286 421.990 309.393 418.880 L 308.500 415.769 308.468 423.135 M 288.750 421.998 C 289.438 422.769, 290 424.194, 290 425.165 L 290 426.930 287.812 428.101 L 285.624 429.272 276.562 428.779 L 267.500 428.286 270.500 429.025 C 272.150 429.431, 276.437 429.817, 280.027 429.882 L 286.555 430 288.777 428.443 L 291 426.887 291 425.066 L 291 423.245 289.250 421.921 L 287.500 420.596 288.750 421.998 M 261.196 434.250 L 261.392 441.500 261.740 434.814 L 262.088 428.128 264.294 427.700 L 266.500 427.272 263.750 427.136 L 261 427 261.196 434.250 M 492.297 429.640 L 494.095 430.165 493.797 435.791 L 493.500 441.418 491 442.109 L 488.500 442.801 490.628 442.900 L 492.755 443 493.933 441.581 L 495.110 440.162 494.805 434.841 L 494.500 429.519 492.500 429.317 L 490.500 429.115 492.297 429.640 M 641 434.441 L 641 439.882 641.750 440.348 L 642.500 440.814 642.162 435.488 L 641.824 430.162 644.162 429.717 L 646.500 429.272 643.750 429.136 L 641 429 641 434.441 M 317.030 430.808 C 317.014 431.528, 318.913 434.022, 321.250 436.350 L 325.500 440.584 322.380 437.042 C 320.664 435.094, 318.765 432.600, 318.160 431.500 L 317.061 429.500 317.030 430.808 M 396.700 430.715 L 398.900 431.123 399.287 436.067 L 399.674 441.011 399.587 435.756 L 399.500 430.500 397 430.404 L 394.500 430.307 396.700 430.715 M 657 431 L 651.500 431.674 656.691 431.837 L 661.882 432 662.500 431 C 662.840 430.450, 662.979 430.073, 662.809 430.163 C 662.639 430.253, 660.025 430.629, 657 431 M 474.500 443.050 C 475.600 443.495, 479.200 443.856, 482.500 443.851 C 490.040 443.840, 488.645 443.306, 479.500 442.703 L 472.500 442.241 474.500 443.050 M 286.655 470.750 L 286.191 471.500 297 471.500 L 307.809 471.500 307.345 470.750 L 306.882 470 297 470 L 287.118 470 286.655 470.750 M 517.701 474.742 L 524.903 475.086 525.201 480.793 L 525.500 486.500 531.750 487 L 538 487.500 538 486.750 L 538 486 532 486 L 526 486 526 480 L 526 474 518.250 474.199 L 510.500 474.397 517.701 474.742 M 644.607 475.582 C 644.273 476.452, 644.029 477.689, 644.063 478.332 C 644.098 478.974, 644.547 478.451, 645.062 477.168 L 645.996 474.836 653 475.168 L 660.005 475.500 660.002 474.750 L 660 474 652.607 474 L 645.214 474 644.607 475.582 M 449.768 485.725 C 451.565 485.947, 454.265 485.943, 455.768 485.715 L 458.500 485.300 452.500 485.310 L 446.500 485.320 449.768 485.725 M 563.768 485.725 C 565.565 485.947, 568.265 485.943, 569.768 485.715 L 572.500 485.300 566.500 485.310 L 560.500 485.320 563.768 485.725 M 334.449 487.272 C 334.181 487.971, 334.082 498.884, 334.231 511.522 L 334.500 534.500 344 534.500 L 353.500 534.500 353.544 520 L 353.588 505.500 353.267 519.750 L 352.945 534 343.973 534 L 335 534 335 510.542 L 335 487.084 342.750 486.743 L 350.500 486.402 342.719 486.201 L 334.937 486 334.449 487.272 M 368.834 493.684 L 369.168 501.278 367.834 502.215 L 366.500 503.152 368 502.746 L 369.500 502.340 369.797 495.017 L 370.094 487.694 369.297 486.892 L 368.500 486.090 368.834 493.684 M 486.250 486.745 L 495 487.078 495 510.500 L 495 533.922 486.250 534.255 L 477.500 534.589 486.750 534.794 L 496 535 496 510.500 L 496 486 486.750 486.206 L 477.500 486.411 486.250 486.745 M 661 486.567 C 661.825 486.752, 664.638 487.040, 667.250 487.208 L 672 487.514 672 486.757 L 672 486 665.750 486.116 C 662.313 486.180, 660.175 486.383, 661 486.567 M 409.412 488.312 L 411.207 489.624 410.853 495.219 L 410.500 500.814 411.250 500.348 L 412 499.882 412 494.048 L 412 488.214 410.418 487.607 C 407.873 486.630, 407.484 486.903, 409.412 488.312 M 295.756 488.622 C 295.470 489.105, 294.961 491.075, 294.626 493 L 294.018 496.500 295.433 493 L 296.848 489.500 296.924 490.917 C 296.966 491.696, 297.266 492.067, 297.592 491.742 C 297.917 491.416, 297.754 490.383, 297.230 489.447 L 296.277 487.743 295.756 488.622 M 501.406 489.386 C 501.113 490.148, 501.024 492.735, 501.208 495.136 L 501.543 499.500 502.022 493.749 C 502.507 487.911, 502.363 486.890, 501.406 489.386 M 635.406 489.386 C 635.113 490.148, 635.049 492.735, 635.262 495.136 L 635.651 499.500 635.825 494.333 L 636 489.167 637.250 488.662 L 638.500 488.158 637.219 488.079 C 636.514 488.036, 635.698 488.624, 635.406 489.386 M 466 514 L 466 534 457.500 534 L 449 534 449 517.200 L 449 500.400 447.800 499.200 L 446.600 498 443.550 498.132 L 440.500 498.263 444 498.882 L 447.500 499.500 448 517 L 448.500 534.500 457.750 534.788 L 467 535.075 467 514.538 C 467 503.242, 466.775 494, 466.500 494 C 466.225 494, 466 503, 466 514 M 374.276 498.250 L 372.500 501.500 372.500 511 L 372.500 520.500 373.764 522.500 L 375.027 524.500 374.264 521.500 C 373.844 519.850, 373.514 514.675, 373.531 510 L 373.562 501.500 375.307 498.250 C 376.266 496.462, 376.826 495, 376.551 495 C 376.276 495, 375.252 496.462, 374.276 498.250 M 525.425 500.334 C 525.144 501.067, 525.067 505.455, 525.253 510.084 L 525.593 518.500 525.796 509.333 L 526 500.167 527.250 499.662 L 528.500 499.158 527.219 499.079 C 526.514 499.036, 525.707 499.600, 525.425 500.334 M 587.157 504 C 587.059 505.925, 586.699 509.188, 586.358 511.250 L 585.738 515 572.369 515 L 559 515 559.015 516.750 L 559.031 518.500 559.805 517.281 L 560.579 516.063 573.496 515.781 L 586.413 515.500 587.248 511.500 C 587.707 509.300, 587.914 505.925, 587.709 504 L 587.336 500.500 587.157 504 M 611.624 505.539 C 611.281 506.432, 611.063 509.039, 611.141 511.332 L 611.282 515.500 611.981 510 C 612.726 504.137, 612.629 502.919, 611.624 505.539 M 542.320 511 L 542.320 517.500 542.723 514.250 C 542.945 512.462, 542.945 509.538, 542.723 507.750 L 542.320 504.500 542.320 511 M 291.655 509.250 C 291.909 509.663, 294.090 510, 296.500 510 C 298.910 510, 301.091 509.663, 301.345 509.250 L 301.809 508.500 296.500 508.500 L 291.191 508.500 291.655 509.250 M 409.202 521.680 L 410.904 522.128 411.263 527.814 L 411.622 533.500 411.811 527.250 L 412 521 409.750 521.116 L 407.500 521.232 409.202 521.680 M 286.345 523.543 L 285.753 525.086 286.376 525.710 L 287 526.333 287 524.667 L 287 523 296.421 523 L 305.841 523 306.571 526.250 L 307.300 529.500 307.683 528.401 C 307.893 527.797, 307.612 526.110, 307.058 524.651 L 306.050 522 296.493 522 L 286.937 522 286.345 523.543 M 565.355 523.235 C 566.758 524.135, 575.589 524.054, 578.979 523.110 L 581.459 522.420 572.834 522.460 L 564.210 522.500 565.355 523.235 M 308.063 530.668 C 308.029 531.311, 308.273 532.548, 308.607 533.418 L 309.214 535 319.607 535 L 330 535 329.985 533.750 C 329.976 533.063, 329.497 531.825, 328.919 531 L 327.869 529.500 328.502 531.750 L 329.135 534 319.535 534 L 309.936 534 309.031 531.750 C 308.534 530.513, 308.098 530.026, 308.063 530.668 M 284 532.286 L 284 533.905 277.750 534.260 L 271.500 534.615 277.781 534.807 L 284.063 535 284.655 533.457 L 285.247 531.914 284.624 531.290 L 284 530.667 284 532.286 M 424.250 534.735 C 426.863 534.941, 431.137 534.941, 433.750 534.735 L 438.500 534.360 429 534.360 L 419.500 534.360 424.250 534.735 M 393.750 535.723 C 395.538 535.945, 398.462 535.945, 400.250 535.723 L 403.500 535.320 397 535.320 L 390.500 535.320 393.750 535.723 M 614.750 535.723 C 616.538 535.945, 619.462 535.945, 621.250 535.723 L 624.500 535.320 618 535.320 L 611.500 535.320 614.750 535.723 M 242.074 585.411 L 240.903 586.822 241.976 587.485 L 243.050 588.149 242.775 586.824 L 242.500 585.500 350.500 584.993 L 458.500 584.487 350.872 584.243 L 243.245 584 242.074 585.411 M 375.747 633.985 C 379.183 634.476, 382.488 635.184, 383.092 635.557 L 384.191 636.236 383.796 639.618 L 383.402 643 384.201 643 L 385 643 385 639.622 L 385 636.245 383.537 635.031 L 382.075 633.817 375.787 633.455 L 369.500 633.093 375.747 633.985 M 416.500 633.929 L 414.500 634.840 419.516 634.308 L 424.532 633.777 428.431 634.853 L 432.330 635.930 431.281 634.881 L 430.231 633.831 424.366 633.425 L 418.500 633.019 416.500 633.929 M 274.035 635.934 C 273.466 636.998, 273.036 638.461, 273.079 639.184 L 273.158 640.500 274.146 637.798 L 275.135 635.096 280.817 634.737 L 286.500 634.378 280.785 634.189 L 275.070 634 274.035 635.934 M 506.465 635.230 C 506.182 635.967, 506.086 644.429, 506.251 654.035 L 506.550 671.500 506.775 653.250 L 507 635 511.477 635 L 515.955 635 516.261 652.750 L 516.568 670.500 516.534 652.500 L 516.500 634.500 511.740 634.195 L 506.980 633.890 506.465 635.230 M 551.978 634.717 L 557.456 635.120 558.304 636.310 L 559.152 637.500 558.747 636 L 558.342 634.500 552.421 634.406 L 546.500 634.313 551.978 634.717 M 600.101 634.736 L 615.205 635.053 614.826 639.027 L 614.447 643 615.281 643 L 616.115 643 615.807 638.750 L 615.500 634.500 600.249 634.460 L 584.998 634.419 600.101 634.736 M 632.444 635.285 C 632.173 635.992, 632.086 644.429, 632.251 654.035 L 632.550 671.500 632.775 653.280 L 633 635.060 645.750 634.747 L 658.500 634.435 645.719 634.217 L 632.937 634 632.444 635.285 M 316.073 638.635 L 314 641.270 314 645.576 C 314 647.944, 314.337 650.091, 314.750 650.346 L 315.500 650.809 315.141 646.298 L 314.782 641.787 316.921 638.893 C 319.595 635.276, 318.885 635.059, 316.073 638.635 M 327.250 642.086 L 325 642.936 325 644.409 C 325 645.219, 325.408 646.134, 325.907 646.442 L 326.813 647.003 326.290 645.001 L 325.767 643 327.633 642.860 C 328.660 642.783, 331.300 642.829, 333.500 642.962 C 338.259 643.248, 337.948 642.499, 333 641.760 L 329.500 641.237 327.250 642.086 M 642.384 643.442 C 642.080 644.234, 641.986 645.697, 642.175 646.692 L 642.520 648.500 648.760 648.798 L 655 649.095 655 652.500 L 655 655.905 648.750 656.202 L 642.500 656.500 642.407 659.500 L 642.314 662.500 642.717 659.796 L 643.120 657.092 649.310 656.796 L 655.500 656.500 655.500 652.500 L 655.500 648.500 649.250 648.202 L 643 647.905 643 645.494 L 643 643.084 650.750 642.743 L 658.500 642.402 650.719 642.201 L 642.937 642 642.384 643.442 M 593.996 657.297 L 594.492 671.500 594.776 658.080 L 595.060 644.660 594.280 643.877 L 593.500 643.093 593.996 657.297 M 459.320 653 L 459.320 659.500 459.723 656.250 C 459.945 654.462, 459.945 651.538, 459.723 649.750 L 459.320 646.500 459.320 653 M 415.300 653 L 415.300 658.500 415.716 655.750 C 415.945 654.237, 415.945 651.763, 415.716 650.250 L 415.300 647.500 415.300 653 M 329.559 659.433 L 331.500 660.865 330.500 661.870 L 329.500 662.874 325 663.262 L 320.500 663.651 325.128 663.825 L 329.755 664 331 662.500 L 332.245 661 331 659.500 C 330.315 658.675, 329.274 658, 328.686 658 L 327.618 658 329.559 659.433 M 359.667 662.667 C 358.744 663.589, 358.826 669.775, 359.768 670.357 L 360.537 670.832 360.172 667.008 L 359.807 663.184 361.654 662.708 L 363.500 662.232 361.917 662.116 C 361.046 662.052, 360.033 662.300, 359.667 662.667 M 297.082 664.185 C 297.037 664.562, 297.434 666.011, 297.964 667.405 L 298.928 669.941 297.214 670.940 C 296.271 671.490, 295.950 671.946, 296.500 671.954 C 297.050 671.963, 298.092 671.594, 298.815 671.136 L 300.129 670.302 298.646 666.901 C 297.830 665.030, 297.126 663.808, 297.082 664.185" stroke="none" fill="#3c92f9" fill-rule="evenodd"/><path d="M 547.500 161.097 C 539.800 165.546, 532.928 169.658, 532.228 170.234 L 530.956 171.281 531.228 189.238 L 531.500 207.194 543 213.905 C 549.325 217.596, 556.304 221.624, 558.510 222.857 L 562.519 225.098 578.010 216.156 L 593.500 207.214 593.757 188.857 L 594.015 170.500 578.629 161.750 C 570.166 156.938, 562.850 153.002, 562.371 153.003 C 561.892 153.005, 555.200 156.647, 547.500 161.097 M 564.023 184.477 L 553.581 194.955 551.476 192.977 C 548.737 190.405, 547.835 190.482, 544.969 193.533 L 542.589 196.067 548.297 201.776 L 554.006 207.485 567.719 193.772 L 581.431 180.060 578.529 177.030 C 576.932 175.363, 575.364 174, 575.045 174 C 574.726 174, 569.765 178.715, 564.023 184.477" stroke="none" fill="#f7981d" fill-rule="evenodd"/><path d="M 359.988 160.857 C 358.057 161.270, 354.682 162.484, 352.488 163.554 L 348.500 165.500 348.172 168.372 L 347.844 171.244 348.718 172.118 L 349.592 172.992 355.271 170.996 L 360.950 169 365.574 169 L 370.198 169 373.592 170.611 L 376.986 172.221 378.082 175.879 L 379.178 179.536 378.839 182.518 L 378.500 185.500 376.500 185.234 C 375.400 185.088, 370.887 184.864, 366.472 184.735 L 358.444 184.501 353.472 187.028 L 348.500 189.554 346.250 193.989 L 344 198.424 344 202 L 344 205.576 346.250 209.964 L 348.500 214.352 351.984 216.176 L 355.469 218 361.267 218 L 367.064 218 370.768 216.452 C 372.806 215.601, 375.525 213.916, 376.812 212.707 L 379.151 210.509 381.826 213.764 L 384.500 217.018 386 216.987 C 386.825 216.970, 388.625 216.090, 390 215.033 L 392.500 213.110 390.750 208.171 L 389 203.232 389 188.681 L 389 174.130 387.933 171.315 C 386.595 167.784, 383.341 164.248, 379.675 162.341 L 376.850 160.871 370.175 160.488 L 363.500 160.106 359.988 160.857 M 490 160.880 C 485.403 161.865, 483.112 163.185, 479.608 166.867 L 476.715 169.906 476.244 174.813 L 475.773 179.719 477.472 183.301 L 479.172 186.883 481.836 188.647 C 483.301 189.618, 488.510 191.782, 493.410 193.456 L 502.321 196.500 504.266 199.130 L 506.211 201.760 505.516 203.949 L 504.821 206.138 501.661 208.065 L 498.500 209.993 492.876 209.996 L 487.251 210 483 208.500 C 480.662 207.675, 477.905 207, 476.874 207 L 475 207 475 209.845 L 475 212.690 476.750 214.193 C 479.077 216.191, 480.919 216.789, 488.475 217.996 L 494.841 219.013 500.171 217.897 C 503.102 217.284, 506.976 215.886, 508.781 214.790 L 512.062 212.798 514.031 208.939 L 516 205.080 516 201.188 L 516 197.296 513.729 193.898 L 511.458 190.500 506.979 188.324 C 504.516 187.127, 499.231 184.947, 495.235 183.479 L 487.969 180.811 486.985 178.971 C 486.443 177.959, 486 176.235, 486 175.138 L 486 173.145 488.635 171.073 L 491.270 169 497.385 169.044 L 503.500 169.088 507.487 170.507 L 511.473 171.927 512.315 171.085 L 513.156 170.244 512.828 167.374 L 512.500 164.504 508.911 162.820 L 505.322 161.136 499.411 160.633 L 493.500 160.130 490 160.880 M 395.605 162.830 L 395.029 163.762 400.402 181.631 C 403.358 191.459, 407.064 203.325, 408.638 208 L 411.500 216.500 416.462 216.500 L 421.423 216.500 422.658 214 C 423.337 212.625, 425.537 204.300, 427.548 195.500 C 429.558 186.700, 431.397 178.862, 431.634 178.083 L 432.066 176.666 432.932 177.583 C 433.749 178.448, 434.976 183.088, 440.036 204.463 C 441.203 209.393, 442.588 214.231, 443.114 215.213 L 444.070 217 448.413 217 L 452.755 217 453.941 215.572 C 455.030 214.259, 460.961 196.387, 468.043 173.078 C 469.617 167.896, 470.675 163.283, 470.394 162.828 L 469.882 162 466.191 162.015 C 464.161 162.024, 461.948 162.381, 461.273 162.810 L 460.045 163.590 456.149 178.545 C 454.007 186.770, 451.660 195.866, 450.935 198.759 L 449.617 204.017 448.815 203.215 C 448.172 202.572, 442.137 178.697, 439.341 165.737 L 438.745 162.974 436.511 162.413 C 435.282 162.105, 432.787 161.998, 430.965 162.176 L 427.654 162.500 426.411 166.500 C 425.728 168.700, 423.500 177.596, 421.460 186.268 C 419.420 194.941, 417.419 202.241, 417.014 202.491 L 416.278 202.946 412.096 186.223 C 409.796 177.025, 407.355 167.925, 406.671 166 L 405.427 162.500 400.804 162.199 L 396.181 161.898 395.605 162.830 M 564.023 184.477 L 553.581 194.955 551.476 192.977 C 548.737 190.405, 547.835 190.482, 544.969 193.533 L 542.589 196.067 548.297 201.776 L 554.006 207.485 567.719 193.772 L 581.431 180.060 578.529 177.030 C 576.932 175.363, 575.364 174, 575.045 174 C 574.726 174, 569.765 178.715, 564.023 184.477 M 359.304 193.956 L 356.109 195.905 355.488 199.213 L 354.867 202.521 355.886 205.200 L 356.904 207.878 358.886 208.939 C 359.977 209.523, 362.491 210, 364.474 210 L 368.080 210 371.808 208.098 L 375.536 206.196 377.268 202.564 C 378.221 200.567, 379 197.838, 379 196.501 L 379 194.070 377.066 193.035 L 375.131 192 368.816 192.004 L 362.500 192.007 359.304 193.956 M 490.763 234.565 L 488.025 236.051 487.522 238.275 C 487.245 239.499, 486.902 242.975, 486.759 246 L 486.500 251.500 483.250 251.813 L 480 252.127 480 253.500 L 480 254.873 483.250 255.187 L 486.500 255.500 486.775 271.818 L 487.050 288.137 488.775 287.806 L 490.500 287.475 490.775 271.237 L 491.050 255 500.525 255 L 510 255 510 271.031 L 510 287.063 511.543 287.655 C 512.392 287.981, 513.273 288.061, 513.500 287.833 C 513.728 287.606, 513.975 279.562, 514.050 269.960 L 514.186 252.500 502.843 252 L 491.500 251.500 491.204 245.868 L 490.907 240.236 492.635 238.508 L 494.362 236.781 498.681 237.268 L 503 237.754 503 235.994 L 503 234.233 500.750 233.630 C 497.115 232.656, 493.690 232.977, 490.763 234.565 M 589.932 235.177 C 589.894 235.905, 589.921 240.169, 589.991 244.654 L 590.119 252.808 589.164 253.399 L 588.208 253.989 585.354 252.500 C 583.784 251.681, 581.150 250.761, 579.500 250.456 L 576.500 249.900 572.540 251.287 L 568.580 252.674 565.625 256.324 L 562.671 259.975 562.211 267.915 L 561.751 275.855 563.981 280.461 L 566.211 285.067 570.066 287.033 L 573.920 289 577.249 289 L 580.577 289 584.474 287.013 L 588.371 285.026 590.014 286.513 C 590.918 287.331, 592.192 288, 592.845 288 L 594.033 288 593.766 261.263 L 593.500 234.527 591.750 234.190 L 590 233.853 589.932 235.177 M 467.332 239.578 L 466.727 241.155 468.363 242.792 L 470 244.429 471.637 242.792 L 473.273 241.155 472.668 239.578 L 472.063 238 470 238 L 467.937 238 467.332 239.578 M 509.718 239.250 C 509.472 239.938, 509.675 241.287, 510.170 242.250 L 511.070 244 512.500 244 L 513.930 244 514.830 242.250 C 515.325 241.287, 515.528 239.938, 515.282 239.250 L 514.833 238 512.500 238 L 510.167 238 509.718 239.250 M 444.504 242.250 C 444.265 242.938, 443.942 245.298, 443.785 247.496 L 443.500 251.491 440.557 251.996 L 437.613 252.500 437.557 253.490 L 437.500 254.480 440.500 254.998 L 443.500 255.515 444 270.341 L 444.500 285.167 446.499 286.626 L 448.498 288.085 453.999 287.792 L 459.500 287.500 459.500 286 L 459.500 284.500 455.464 284.815 L 451.428 285.130 449.683 283.202 L 447.938 281.274 448.219 268.387 L 448.500 255.500 454 255 L 459.500 254.500 459.500 253.500 L 459.500 252.500 454 252 L 448.500 251.500 448.198 246.250 L 447.895 241 446.416 241 C 445.603 241, 444.742 241.563, 444.504 242.250 M 386.219 251.256 L 382.937 252.307 380.052 255.593 L 377.167 258.880 376.063 264.196 L 374.959 269.513 375.985 274.918 L 377.010 280.324 379.494 283.581 L 381.978 286.838 385.634 288.044 L 389.289 289.251 395.654 288.740 L 402.019 288.229 403.510 286.992 C 404.329 286.312, 405 285.087, 405 284.271 L 405 282.786 403.250 283.540 C 402.288 283.954, 398.758 284.500, 395.406 284.753 L 389.313 285.213 386.078 283.540 L 382.842 281.867 381.421 278.466 C 380.640 276.595, 380 273.925, 380 272.532 L 380 270 393.139 270 L 406.278 270 405.745 264.127 L 405.213 258.254 403.547 255.712 L 401.881 253.170 397.920 251.585 C 393.463 249.801, 390.975 249.731, 386.219 251.256 M 535.315 251.058 L 532.130 252.023 529.216 254.938 L 526.301 257.853 525.013 262.452 L 523.726 267.052 524.295 272.567 L 524.864 278.082 526.682 281.187 C 527.682 282.894, 529.731 285.209, 531.237 286.331 L 533.973 288.370 539.881 288.798 L 545.788 289.225 549.306 288.064 L 552.823 286.903 553.368 285.484 L 553.913 284.064 552.977 283.486 L 552.041 282.908 550.086 283.954 L 548.131 285 542.142 285 L 536.153 285 533.203 282.517 L 530.252 280.034 529.184 275.827 C 528.597 273.514, 528.342 271.256, 528.617 270.810 L 529.118 270 541.559 270 L 554 270 554.121 268.750 C 554.187 268.063, 554.226 265.568, 554.208 263.207 L 554.174 258.914 552.573 256.471 C 550.320 253.033, 547.147 251.183, 542.500 250.597 L 538.500 250.093 535.315 251.058 M 353.500 252.403 C 347.761 254.936, 344.131 261.527, 344.044 269.572 L 344 273.644 345.604 278.350 L 347.207 283.056 350.492 285.562 L 353.778 288.068 358.639 288.581 L 363.500 289.094 366.500 288.229 L 369.500 287.365 369.820 285.181 L 370.140 282.996 367.505 283.998 C 366.055 284.549, 363.212 284.998, 361.185 284.996 L 357.500 284.993 354.353 283.074 L 351.206 281.155 349.993 277.478 L 348.780 273.802 349.196 267.269 L 349.612 260.736 352.939 257.763 L 356.267 254.789 363.134 255.177 L 370 255.565 370 253.899 L 370 252.233 367.750 251.630 C 366.512 251.299, 363.475 251.039, 361 251.053 L 356.500 251.078 353.500 252.403 M 426.500 251.715 C 425.400 252, 423.262 253.112, 421.750 254.185 L 419 256.136 419 254.068 L 419 252 417 252 L 415 252 415 270 L 415 288 416.973 288 L 418.945 288 419.223 273.788 L 419.500 259.576 422.898 257.288 L 426.296 255 429.721 255 L 433.147 255 432.813 253.250 L 432.480 251.500 430.490 251.348 C 429.395 251.265, 427.600 251.430, 426.500 251.715 M 468 270 L 468 288 470 288 L 472 288 472 270 L 472 252 470 252 L 468 252 468 270 M 386.315 255.464 L 383.129 256.849 381.565 259.875 C 380.704 261.539, 380 263.823, 380 264.950 L 380 267 391 267 L 402 267 402 264.450 C 402 263.048, 401.339 260.622, 400.530 259.059 L 399.061 256.217 395.881 255.108 C 391.829 253.696, 390.244 253.755, 386.315 255.464 M 536.374 254.646 C 535.205 254.899, 533.275 256.143, 532.085 257.410 L 529.921 259.713 529.330 263.357 L 528.738 267 539.369 267 L 550 267 550 263.556 L 550 260.112 547.750 257.522 L 545.500 254.932 542 254.559 C 540.075 254.354, 537.543 254.393, 536.374 254.646 M 573.096 255.265 C 571.774 255.944, 569.788 257.719, 568.682 259.209 L 566.671 261.917 566.221 267.346 L 565.771 272.776 566.952 276.355 L 568.134 279.935 571.143 282.467 L 574.153 285 577.617 285 L 581.080 285 584.917 283.043 L 588.753 281.085 589.377 279.461 C 589.719 278.567, 590 273.841, 590 268.957 L 590 260.078 587.804 258.032 C 585.693 256.065, 580.134 254.001, 577 254.020 C 576.175 254.025, 574.418 254.585, 573.096 255.265 M 242 331.502 L 242 333.004 468.667 332.752 L 695.333 332.500 695.750 331.250 L 696.167 330 469.083 330 L 242 330 242 331.502 M 507.500 371.710 C 504.806 372.379, 501.962 374.999, 500.892 377.798 L 500.013 380.096 501.458 383.554 L 502.903 387.013 505.517 388.006 C 506.954 388.553, 509.486 389, 511.142 389 L 514.154 389 517.077 386.077 L 520 383.154 520 380.133 L 520 377.112 517.750 374.630 L 515.500 372.149 512.500 371.681 C 510.850 371.424, 508.600 371.437, 507.500 371.710 M 374.412 375.370 C 374.122 376.124, 374.024 389.736, 374.193 405.620 L 374.500 434.500 376.212 437.626 L 377.923 440.752 381.982 442.376 C 386.687 444.259, 390.013 444.402, 395.250 442.947 L 399 441.906 399 436.453 L 399 431 396.750 430.985 C 395.512 430.976, 393.825 430.543, 393 430.022 L 391.500 429.075 391.205 401.538 L 390.910 374 382.923 374 L 374.937 374 374.412 375.370 M 275.059 378.585 C 268.730 380.892, 266.142 382.815, 263.298 387.321 L 260.800 391.277 260.800 396.995 L 260.800 402.713 262.364 405.737 C 263.224 407.401, 265.272 409.892, 266.914 411.274 L 269.900 413.787 278.200 416.950 C 282.765 418.690, 287.512 420.773, 288.750 421.580 L 291 423.046 291 425 L 291 426.954 288.464 428.616 L 285.928 430.277 277.714 429.617 C 273.196 429.253, 267.813 428.692, 265.750 428.369 L 262 427.781 262 434.261 L 262 440.740 266.750 442.120 L 271.500 443.500 281.500 443.477 L 291.500 443.454 297.177 440.815 L 302.854 438.177 305.356 434.339 L 307.858 430.500 308.515 425.929 L 309.173 421.358 308.015 417.057 L 306.858 412.757 303.708 409.880 L 300.558 407.003 293.529 404.381 C 289.663 402.939, 285.228 401.295, 283.673 400.726 L 280.845 399.693 279.223 397.217 L 277.601 394.742 280.050 392.752 L 282.500 390.762 291.500 391.269 C 296.450 391.549, 301.288 392.100, 302.250 392.496 L 304 393.214 304 386.705 L 304 380.196 300.750 379.001 L 297.500 377.806 288.500 377.386 L 279.500 376.966 275.059 378.585 M 467.650 383.758 C 467.392 384.174, 466.856 386.312, 466.459 388.508 C 466.062 390.703, 465.362 393.228, 464.904 394.118 L 464.071 395.736 460.980 396.354 L 457.889 396.972 458.195 401.736 L 458.500 406.500 461.131 406.805 L 463.762 407.110 464.212 419.305 L 464.662 431.500 466.247 435.172 L 467.833 438.844 470.448 440.558 L 473.063 442.272 479.782 442.741 L 486.500 443.211 490 442.296 L 493.500 441.381 493.800 435.691 L 494.100 430 489.250 430 L 484.400 430 483.200 428.800 L 482 427.600 482 417.350 L 482 407.100 487.750 406.800 L 493.500 406.500 493.798 400.801 L 494.097 395.103 488.298 394.801 L 482.500 394.500 482.200 388.750 L 481.900 383 475.009 383 L 468.118 383 467.650 383.758 M 328.500 395.896 C 323.598 398.165, 319.612 402.288, 317.553 407.218 L 316 410.936 316.022 418.718 L 316.044 426.500 317.900 430.500 L 319.756 434.500 323.128 437.654 L 326.500 440.808 331.285 442.404 C 337.297 444.409, 342.208 444.424, 348.833 442.457 L 354.028 440.914 357.411 437.944 L 360.793 434.975 362.349 431.086 C 363.205 428.947, 364.201 424.962, 364.564 422.231 L 365.223 417.265 364.073 411.882 L 362.923 406.500 360.457 402.765 L 357.991 399.029 353.029 396.515 L 348.066 394 340.283 394.022 L 332.500 394.044 328.500 395.896 M 540.132 396.621 L 534.872 399.243 532.515 402.977 L 530.158 406.711 528.990 412.647 L 527.822 418.584 528.897 424.402 L 529.973 430.220 532.089 433.643 L 534.204 437.067 537.791 439.504 L 541.378 441.941 546.731 443.139 L 552.085 444.337 558.191 443.202 L 564.297 442.066 568.115 439.420 L 571.934 436.774 574.467 431.691 L 577 426.607 576.978 418.554 L 576.956 410.500 575.104 406.500 C 572.835 401.598, 568.712 397.612, 563.782 395.553 L 560.064 394 552.728 394 L 545.393 394 540.132 396.621 M 607.500 396.522 C 604.750 397.875, 602.440 398.986, 602.367 398.991 C 602.293 398.996, 601.998 398.100, 601.710 397 L 601.187 395 594.094 395 L 587 395 587 418.500 L 587 442 595.500 442 L 604 442 604 425.161 L 604 408.321 606.547 407.161 C 607.948 406.522, 610.182 406, 611.512 406 L 613.930 406 614.965 407.934 L 616 409.869 616 425.934 L 616 442 624.500 442 L 633 442 633 422.450 L 633 402.901 631.506 400.011 C 630.684 398.422, 629.009 396.419, 627.783 395.561 L 625.555 394 619.027 394.031 L 612.500 394.063 607.500 396.522 M 649.999 395.940 C 645.680 398.225, 643.598 400.560, 642.225 404.660 L 641.167 407.820 642.181 411.817 L 643.196 415.814 645.870 418.376 L 648.545 420.938 655.522 423.798 L 662.500 426.657 662.500 429.079 L 662.500 431.500 657 431.424 C 653.975 431.382, 649.337 430.980, 646.693 430.530 L 641.886 429.712 642.193 435.106 L 642.500 440.500 646.500 441.809 C 648.700 442.528, 653.245 443.375, 656.599 443.689 L 662.698 444.261 667.688 442.604 L 672.677 440.947 675.218 438.223 L 677.759 435.500 678.935 431.815 L 680.112 428.130 679.060 424.224 L 678.008 420.318 676.254 418.806 C 673.957 416.827, 669.724 414.585, 663.250 411.917 L 658 409.754 658 407.896 L 658 406.038 660.486 405.414 L 662.973 404.790 669.318 405.895 C 672.808 406.503, 675.988 407, 676.384 407 L 677.105 407 676.802 401.834 L 676.500 396.669 673 395.411 L 669.500 394.152 661.500 394.120 L 653.500 394.088 649.999 395.940 M 406 413.993 L 406 433.064 407.416 436.454 L 408.833 439.844 411.573 441.640 L 414.313 443.435 419.907 443.468 L 425.500 443.500 430.787 440.885 L 436.074 438.269 437.072 440.135 L 438.070 442 445.035 442 L 452 442 452 418.461 L 452 394.922 443.250 395.211 L 434.500 395.500 434.876 411.552 L 435.252 427.605 433.555 429.302 L 431.857 431 428.335 431 L 424.813 431 424.334 429.167 C 424.070 428.160, 423.775 420.172, 423.677 411.417 L 423.500 395.500 414.750 395.211 L 406 394.922 406 413.993 M 502 418.500 L 502 442 510.500 442 L 519 442 519 418.500 L 519 395 510.500 395 L 502 395 502 418.500 M 335.491 408.374 L 333.936 410.747 333.360 415.624 L 332.784 420.500 333.931 424.753 L 335.079 429.005 337.416 430.537 L 339.754 432.069 342.310 430.905 L 344.865 429.741 346.046 426.888 L 347.228 424.036 346.835 417.091 L 346.443 410.147 344.566 408.073 L 342.690 406 339.868 406 L 337.046 406 335.491 408.374 M 548.477 408.025 L 546.557 410.147 546.193 416.823 L 545.829 423.500 546.870 426.198 L 547.911 428.895 550.388 430.519 L 552.866 432.142 554.923 431.041 C 556.054 430.436, 557.659 428.626, 558.490 427.020 L 560 424.099 559.998 418.800 L 559.997 413.500 558.248 410 L 556.500 406.500 553.449 406.201 L 550.398 405.903 548.477 408.025 M 483.295 464.118 L 480.090 465.034 478.545 467.239 L 477 469.445 477 472.299 L 477 475.154 479.923 478.077 L 482.846 481 485.858 481 C 487.514 481, 490.003 480.569, 491.387 480.043 L 493.904 479.086 495.509 475.982 L 497.115 472.878 496.031 469.594 L 494.947 466.310 492.724 465.218 C 489.082 463.429, 486.682 463.149, 483.295 464.118 M 420.622 467.543 C 420.280 468.434, 420 483.752, 420 501.582 L 420 534 429 534 L 438 534 438 517.035 L 438 500.070 439.934 499.035 C 442.530 497.646, 446.326 497.726, 447.800 499.200 L 449 500.400 449 517.200 L 449 534 457.500 534 L 466 534 466 514.047 L 466 494.094 464.915 491.712 L 463.830 489.331 461.010 487.665 L 458.191 486 452.547 486 L 446.903 486 442.764 488 C 440.487 489.100, 438.498 490, 438.344 490 C 438.190 490, 437.937 484.712, 437.782 478.250 L 437.500 466.500 429.372 466.212 L 421.244 465.923 420.622 467.543 M 286.505 472.215 C 283.767 479.883, 275.556 503.402, 274.535 506.500 C 273.811 508.700, 271.360 515.644, 269.091 521.932 L 264.964 533.364 265.750 534.150 L 266.535 534.935 275.178 534.326 L 283.820 533.716 285.008 529.108 C 285.661 526.574, 286.369 523.921, 286.580 523.214 L 286.965 521.927 296.689 522.214 L 306.413 522.500 308 528 L 309.587 533.500 319.294 533.786 C 324.632 533.944, 329 533.902, 329 533.694 C 329 533.486, 326.944 527.507, 324.430 520.408 C 318.606 503.958, 316.970 499.304, 311.634 484 L 307.275 471.500 297.119 471.215 L 286.964 470.930 286.505 472.215 M 509.925 481.250 L 508.500 487.500 505.500 488.006 L 502.500 488.511 502.198 493.756 L 501.895 499 504.868 499 L 507.841 499 508.171 511.750 L 508.500 524.500 510 527.410 C 510.825 529.011, 512.752 531.247, 514.282 532.379 L 517.064 534.438 523.782 534.815 L 530.500 535.192 534 534.283 L 537.500 533.373 537.500 527.936 L 537.500 522.500 532.351 522.201 L 527.202 521.902 526.058 519.139 L 524.913 516.376 525.207 507.938 L 525.500 499.500 531.500 499 L 537.500 498.500 537.500 493 L 537.500 487.500 531.500 487 L 525.500 486.500 525.200 480.750 L 524.900 475 518.125 475 L 511.350 475 509.925 481.250 M 645.461 476.241 C 645.180 476.974, 644.398 479.781, 643.725 482.478 L 642.500 487.383 639.250 488.220 L 636 489.057 636 494.029 L 636 499 638.882 499 L 641.764 499 642.182 511.750 L 642.600 524.500 644.050 527.410 C 644.847 529.011, 646.752 531.247, 648.282 532.379 L 651.064 534.438 657.941 534.827 L 664.817 535.215 668.458 534.014 L 672.098 532.813 671.799 527.656 L 671.500 522.500 667.020 522.181 L 662.539 521.862 661.270 520.809 L 660 519.755 660 509.427 L 660 499.100 665.750 498.800 L 671.500 498.500 671.500 493 L 671.500 487.500 665.750 487.200 L 660 486.900 659.923 485.700 C 659.881 485.040, 659.769 482.475, 659.673 480 L 659.500 475.500 652.736 475.204 L 645.973 474.908 645.461 476.241 M 360.007 487.570 C 358.086 488.416, 355.475 490.084, 354.204 491.278 L 351.895 493.448 350.963 491.974 C 350.450 491.163, 350.024 489.712, 350.015 488.750 L 350 487 342.500 487 L 335 487 335 510.500 L 335 534 344 534 L 353 534 353 518.607 L 353 503.214 354.582 502.607 C 355.452 502.273, 359.071 502, 362.624 502 L 369.084 502 368.792 494.250 L 368.500 486.500 366 486.267 L 363.500 486.033 360.007 487.570 M 387.707 487.533 C 385.621 488.299, 382.573 489.880, 380.934 491.047 L 377.955 493.168 375.828 497.334 L 373.700 501.500 373.224 508.139 L 372.747 514.778 374.005 520.020 L 375.262 525.262 378.905 528.905 L 382.548 532.548 386.640 533.774 L 390.732 535 397 535 L 403.268 535 407.134 533.842 L 411 532.683 411 527.314 L 411 521.944 404.681 522.592 L 398.363 523.239 395.218 521.613 L 392.073 519.987 390.941 515.779 L 389.808 511.572 390.358 508.180 C 390.661 506.315, 391.603 503.729, 392.452 502.433 L 393.995 500.079 397.890 499.030 C 400.033 498.453, 402.397 498.171, 403.143 498.404 C 403.889 498.637, 405.962 499.080, 407.750 499.388 L 411 499.950 411 494.424 L 411 488.898 407.532 487.449 L 404.064 486 397.782 486.070 L 391.500 486.141 387.707 487.533 M 556.007 487.543 C 551.408 489.603, 548.285 492.607, 545.655 497.500 L 543.506 501.500 543.503 511 L 543.500 520.500 546 524.961 L 548.500 529.423 551.812 531.653 L 555.123 533.884 560.743 535.051 L 566.363 536.217 572.172 535.560 C 578.789 534.811, 584.158 533.178, 585.235 531.586 C 585.639 530.989, 585.976 528.536, 585.985 526.137 L 586 521.773 582.750 522.387 C 580.962 522.725, 576.771 523.280, 573.436 523.622 L 567.372 524.244 564.216 522.612 C 561.181 521.042, 559 518.305, 559 516.066 L 559 515 572.428 515 L 585.856 515 586.542 509.513 L 587.227 504.025 586.522 500.263 C 585.555 495.105, 583.458 491.853, 579.230 488.954 L 575.649 486.500 567.575 486.239 L 559.500 485.979 556.007 487.543 M 608.175 487.687 L 603.850 489.217 600.550 492.516 L 597.251 495.816 595.625 500.586 L 594 505.356 594 512.064 L 594 518.772 596.765 524.136 L 599.530 529.500 604.944 532.250 L 610.359 535 617.929 534.944 L 625.500 534.887 629 533.694 L 632.500 532.500 632.804 527.203 L 633.108 521.907 625.708 522.577 L 618.309 523.248 615.001 520.292 L 611.692 517.336 611.257 511.918 L 610.822 506.500 613.161 503.062 L 615.500 499.625 618.861 498.755 L 622.222 497.885 626.861 498.881 L 631.500 499.876 632.314 499.074 L 633.128 498.272 632.814 493.886 L 632.500 489.500 629 487.752 L 625.500 486.003 619 486.081 L 612.500 486.158 608.175 487.687 M 478 510.500 L 478 534 486.500 534 L 495 534 495 510.500 L 495 487 486.500 487 L 478 487 478 510.500 M 295.594 489 C 295.297 489.825, 294.566 492.525, 293.970 495 C 293.375 497.475, 292.444 501.263, 291.901 503.418 C 291.359 505.572, 291.145 507.935, 291.426 508.668 L 291.937 510 296.500 510 L 301.063 510 301.640 508.496 L 302.217 506.992 300.004 498.746 C 298.787 494.211, 297.418 489.825, 296.963 489 L 296.134 487.500 295.594 489 M 561.455 499.455 C 560.105 500.805, 559 502.605, 559 503.455 L 559 505 565.500 505 L 572 505 572 502.655 L 572 500.310 570.171 498.655 L 568.343 497 566.126 497 L 563.909 497 561.455 499.455 M 242.497 586.005 L 241.873 587.014 243.187 587.513 C 243.909 587.788, 345.863 587.897, 469.750 587.756 L 695 587.500 695 586.500 L 695 585.500 469.060 585.248 L 243.121 584.996 242.497 586.005 M 321.378 635.437 C 319.661 636.184, 317.524 637.842, 316.628 639.120 L 315 641.445 315 645.768 L 315 650.091 317.293 652.384 L 319.585 654.676 324.543 656.498 C 327.269 657.500, 330.136 658.901, 330.914 659.610 L 332.328 660.900 330.944 662.568 L 329.559 664.236 322.280 663.576 L 315 662.917 315 666.411 L 315 669.906 318.750 670.947 C 320.813 671.520, 324.427 671.991, 326.782 671.994 L 331.064 672 334.364 670.621 L 337.664 669.242 339.832 666.486 L 342 663.730 342 660 L 342 656.270 339.957 653.673 L 337.915 651.076 331.861 648.869 L 325.807 646.662 325.271 645.264 L 324.734 643.866 325.879 642.721 L 327.024 641.576 331.064 641.737 C 333.286 641.826, 335.980 642.176, 337.052 642.516 L 339 643.135 339 639.192 L 339 635.250 335.875 634.625 C 334.156 634.281, 330.894 634.018, 328.625 634.039 L 324.500 634.078 321.378 635.437 M 368 634.652 C 367.175 634.924, 365.508 635.628, 364.295 636.218 L 362.090 637.290 360.499 640.642 L 358.908 643.995 359.550 647.413 L 360.191 650.831 362.345 652.843 C 363.530 653.950, 367.087 655.820, 370.250 656.999 L 376 659.144 376 660.449 C 376 661.168, 375.317 662.322, 374.483 663.014 L 372.966 664.273 366.421 663.602 L 359.875 662.932 360.188 666.658 L 360.500 670.384 364 671.297 L 367.500 672.210 373.207 671.704 L 378.914 671.197 381.932 669.048 L 384.950 666.899 385.974 663.096 L 386.998 659.293 385.911 656.173 L 384.823 653.054 381.544 651.027 C 379.740 649.912, 377.642 648.998, 376.882 648.996 C 376.122 648.994, 373.973 648.062, 372.108 646.924 L 368.715 644.856 370.361 643.211 L 372.006 641.565 376.428 641.758 C 378.861 641.864, 381.447 642.074, 382.175 642.225 L 383.500 642.500 383.500 639.045 L 383.500 635.590 381 634.895 C 378.085 634.084, 370.173 633.936, 368 634.652 M 415.619 634.975 C 412.086 636.106, 408.318 639.523, 406.278 643.446 L 404.746 646.393 404.688 652.483 L 404.631 658.572 406.565 662.523 L 408.500 666.474 411.862 668.712 C 413.711 669.944, 416.751 671.238, 418.618 671.588 L 422.013 672.225 426.585 671.540 L 431.156 670.854 434.909 667.464 L 438.662 664.073 439.831 660.171 C 440.474 658.024, 441 654.403, 441 652.123 L 441 647.978 438.899 643.508 L 436.798 639.038 433.374 636.922 L 429.950 634.806 424.225 634.429 L 418.500 634.053 415.619 634.975 M 470.684 635.388 C 465.933 637.158, 463.586 639.245, 461.571 643.492 L 460 646.802 460 652.933 L 460 659.064 461.379 662.364 L 462.758 665.664 465.509 667.829 C 467.023 669.019, 470.115 670.497, 472.381 671.112 L 476.500 672.230 482 671.365 L 487.500 670.500 487.810 666.750 L 488.121 663 482.142 663 C 474.688 663, 473.293 662.468, 471.463 658.928 L 470 656.099 470 653 L 470 649.901 471.453 647.091 L 472.906 644.282 475.757 643.101 L 478.608 641.920 483.054 642.210 L 487.500 642.500 487.759 640 C 487.902 638.625, 487.651 636.940, 487.203 636.255 L 486.388 635.010 480.444 634.488 L 474.500 633.966 470.684 635.388 M 273.725 639.250 C 272.875 641.587, 271.278 646.200, 270.176 649.500 C 269.075 652.800, 267.009 658.591, 265.587 662.369 C 264.164 666.147, 263 669.658, 263 670.171 L 263 671.105 268.217 670.802 L 273.434 670.500 274.375 667.205 L 275.315 663.910 280.874 664.205 L 286.433 664.500 287.361 667.750 L 288.289 671 292.978 671 C 295.557 671, 297.925 670.742, 298.241 670.426 C 298.557 670.110, 296.157 662.186, 292.908 652.817 C 289.658 643.448, 287 635.606, 287 635.391 C 287 635.176, 284.361 635, 281.136 635 L 275.272 635 273.725 639.250 M 507 653 L 507 671 511.500 671 L 516 671 516 653 L 516 635 511.500 635 L 507 635 507 653 M 540.617 651.759 C 537.381 660.966, 534.681 668.950, 534.617 669.500 L 534.500 670.500 539.214 670.803 L 543.929 671.107 545.413 667.553 L 546.898 664 551.936 664 L 556.973 664 558.436 667.500 L 559.898 671 564.949 671 L 570 671 569.997 670.250 C 569.995 669.588, 567.543 662.462, 560.117 641.535 C 558.953 638.254, 558 635.441, 558 635.285 C 558 635.128, 555.413 635.004, 552.250 635.009 L 546.500 635.017 540.617 651.759 M 584.190 638.750 L 584.500 642.500 589.500 643 L 594.500 643.500 594.779 657.304 L 595.057 671.107 599.779 670.804 L 604.500 670.500 604.778 656.804 L 605.056 643.107 609.778 642.804 L 614.500 642.500 614.810 638.750 L 615.121 635 599.500 635 L 583.879 635 584.190 638.750 M 633 653.031 L 633 671.062 645.250 670.781 L 657.500 670.500 657.500 667 L 657.500 663.500 649.690 663.207 L 641.880 662.914 642.190 659.707 L 642.500 656.500 648.750 656.202 L 655 655.905 655 652.500 L 655 649.095 648.750 648.798 L 642.500 648.500 642.500 645.500 L 642.500 642.500 650.250 642.208 L 658 641.916 658 638.458 L 658 635 645.500 635 L 633 635 633 653.031 M 417.861 643.912 L 415.500 645.823 415.500 653 L 415.500 660.177 417.861 662.088 L 420.222 664 422.476 664 L 424.730 664 427.365 661.927 L 430 659.855 430 653.102 L 430 646.349 427.686 644.174 L 425.371 642 422.796 642 L 420.222 642 417.861 643.912 M 278.692 650.619 C 277.897 653.303, 277.443 655.837, 277.682 656.250 C 278.278 657.275, 282.758 657.201, 283.403 656.156 C 284.025 655.151, 282.173 647.877, 280.976 646.619 L 280.137 645.737 278.692 650.619 M 550.621 647.750 C 550.338 648.712, 549.808 651.188, 549.442 653.250 L 548.777 657 551.889 657 L 555 657 555 655.943 C 555 653.501, 552.698 646, 551.949 646 C 551.501 646, 550.903 646.788, 550.621 647.750" stroke="none" fill="#f1ecec" fill-rule="evenodd"/><path d="M 464.500 40.875 C 462.850 41.888, 449.125 49.824, 434 58.511 C 418.875 67.198, 402.900 76.410, 398.500 78.983 C 383.772 87.594, 369.830 95.647, 314.500 127.502 C 284.250 144.918, 255 161.782, 249.500 164.977 C 232.975 174.576, 202.716 192.076, 182 204.013 C 171.275 210.193, 154.175 220.069, 144 225.960 C 133.825 231.851, 118.686 240.586, 110.358 245.371 L 95.215 254.072 94.790 469.786 L 94.366 685.500 95.433 686.641 C 96.020 687.268, 102.575 691.278, 110 695.552 C 117.425 699.826, 127.775 705.797, 133 708.820 C 155.438 721.804, 204.598 750.206, 228.500 763.995 C 237.300 769.072, 265.200 785.165, 290.500 799.758 C 315.800 814.350, 340.100 828.398, 344.500 830.975 C 348.900 833.552, 357.450 838.513, 363.500 842 C 369.550 845.487, 378.100 850.437, 382.500 853 C 391.340 858.149, 398.471 862.278, 439.338 885.905 L 467.175 902 468.981 902 L 470.786 902 482.643 895.157 C 489.164 891.394, 499 885.710, 504.500 882.526 C 510 879.342, 518.550 874.394, 523.500 871.530 C 528.450 868.666, 538.546 862.821, 545.936 858.540 C 553.326 854.259, 560.751 849.980, 562.436 849.030 C 569.095 845.277, 650.848 798.117, 666.500 789 C 670.900 786.437, 679.450 781.487, 685.500 778 C 691.550 774.513, 700.100 769.563, 704.500 767 C 715.571 760.551, 730.181 752.108, 752.500 739.260 C 817.610 701.781, 838.813 689.483, 841.250 687.782 L 844 685.864 844 470.500 L 844 255.136 841.250 253.211 C 838.824 251.513, 818.660 239.812, 778 216.509 C 771.125 212.569, 759.650 205.956, 752.500 201.813 C 735.826 192.152, 683.228 161.820, 667 152.507 C 660.125 148.562, 645.275 140, 634 133.482 C 622.725 126.963, 602.025 115.039, 588 106.984 C 573.975 98.929, 556.425 88.814, 549 84.506 C 535.218 76.509, 517.866 66.489, 487.332 48.893 C 477.889 43.452, 469.564 39.008, 468.832 39.017 C 468.099 39.026, 466.150 39.862, 464.500 40.875 M 551.500 158.545 C 546.550 161.492, 539.902 165.486, 536.727 167.422 L 530.955 170.942 531.227 189.099 L 531.500 207.256 546 215.733 C 553.975 220.396, 560.996 224.411, 561.602 224.655 L 562.704 225.100 578.102 216.200 L 593.500 207.299 593.755 188.900 L 594.011 170.500 578.869 161.750 L 563.727 153 562.113 153.094 C 561.226 153.146, 556.450 155.599, 551.500 158.545 M 362.500 159.506 C 361.950 159.698, 358.940 160.567, 355.811 161.437 L 350.123 163.020 348.561 164.582 L 347 166.143 347 168.949 L 347 171.755 348.262 172.803 L 349.524 173.850 355.512 171.826 L 361.500 169.801 367.401 170.225 L 373.302 170.649 375.651 173.380 L 378 176.112 378 180.623 L 378 185.135 375.933 184.479 C 374.797 184.118, 370.374 183.785, 366.105 183.739 L 358.344 183.655 353.606 185.949 L 348.868 188.242 346.267 192.172 L 343.667 196.102 343.667 202 L 343.667 207.898 346.244 211.793 L 348.822 215.687 352.312 217.344 L 355.802 219 360.651 218.994 C 363.318 218.991, 367.174 218.524, 369.219 217.956 L 372.938 216.923 376.062 214.294 L 379.187 211.665 381.666 214.832 L 384.145 218 385.822 217.995 C 386.745 217.992, 388.844 216.915, 390.486 215.601 L 393.471 213.212 391.731 208.356 L 389.990 203.500 389.995 188.872 L 390 174.244 388.575 170.833 C 387.791 168.957, 385.928 166.201, 384.436 164.709 L 381.722 161.995 376.680 160.498 L 371.637 159 367.568 159.079 C 365.331 159.122, 363.050 159.315, 362.500 159.506 M 487.933 160.610 L 483.367 162.013 480.072 165.234 C 476.235 168.986, 475 171.768, 475 176.664 L 475 180.198 476.601 183.572 L 478.202 186.945 482.772 189.973 C 485.286 191.638, 487.952 193, 488.696 193 C 491.183 193, 501.263 196.928, 503.143 198.630 L 505 200.310 505 202.582 L 505 204.855 502.365 206.927 L 499.730 209 492.833 209 L 485.936 209 482.346 207.500 C 480.371 206.675, 477.919 206, 476.897 206 L 475.038 206 474.372 208.655 L 473.705 211.310 474.708 212.905 C 475.260 213.782, 477.219 215.383, 479.062 216.463 L 482.414 218.426 491.703 218.832 L 500.993 219.238 506.445 216.571 L 511.896 213.904 513.864 210.702 C 514.947 208.941, 516.139 205.842, 516.515 203.815 L 517.198 200.130 516.076 196.730 L 514.954 193.330 512.086 190.583 L 509.219 187.836 498.860 184.091 L 488.500 180.346 487.538 177.620 L 486.577 174.894 487.636 173.197 L 488.695 171.500 492.598 170.168 L 496.500 168.836 504.329 170.600 L 512.158 172.363 513.063 170.932 C 514.453 168.736, 514.176 166.429, 512.250 164.161 L 510.500 162.100 504.356 160.550 C 497.087 158.717, 494.065 158.728, 487.933 160.610 M 395.667 161.667 C 394.401 162.932, 395.008 167.581, 397.412 175.028 C 398.738 179.137, 400.271 184.075, 400.818 186 C 404.588 199.272, 409.383 213.854, 410.601 215.750 L 412.046 218 416.368 218 L 420.690 218 422.233 216.250 L 423.776 214.500 427.016 201 C 428.798 193.575, 430.826 185.475, 431.522 183 L 432.788 178.500 433.293 180 C 433.570 180.825, 435.476 188.700, 437.528 197.500 C 439.580 206.300, 441.886 214.512, 442.653 215.750 L 444.046 218 448.452 218 L 452.857 218 454.278 216.580 C 455.059 215.798, 456.726 211.861, 457.981 207.830 C 459.237 203.798, 461.290 197.350, 462.544 193.500 C 463.797 189.650, 466.237 182.062, 467.967 176.637 L 471.111 166.774 470.805 164.137 L 470.500 161.500 466.500 161.206 L 462.500 160.911 460.787 162.206 L 459.074 163.500 454.316 182.250 C 451.699 192.563, 449.310 201, 449.006 201 C 448.703 201, 447.874 198.412, 447.164 195.250 C 446.454 192.088, 444.482 183.650, 442.781 176.500 L 439.689 163.500 438.153 162.250 L 436.618 161 432.431 161 L 428.245 161 427.200 162.259 C 426.312 163.330, 420.772 184.760, 418.479 196 C 418.086 197.925, 417.537 199.885, 417.258 200.356 C 416.979 200.826, 414.614 192.841, 412.002 182.610 L 407.253 164.009 406.004 162.505 L 404.755 161 400.544 161 C 398.228 161, 396.033 161.300, 395.667 161.667 M 360.235 194.037 L 357.971 194.946 356.919 197.713 L 355.867 200.479 356.477 203.727 L 357.086 206.976 358.977 207.988 C 360.017 208.545, 362.518 209, 364.533 209 L 368.198 209 371.577 207.396 L 374.957 205.793 376.479 202.743 C 377.315 201.065, 378 198.460, 378 196.953 L 378 194.214 376.418 193.607 C 374.049 192.698, 362.826 192.996, 360.235 194.037 M 488.626 236.032 L 486 239.153 486 245.013 L 486 250.873 482.750 251.187 L 479.500 251.500 479.500 253.500 L 479.500 255.500 482.726 255.812 L 485.951 256.123 486.226 272.312 L 486.500 288.500 488.500 288.500 L 490.500 288.500 490.775 272.250 L 491.050 256 500.025 256 L 509 256 509 271.378 L 509 286.755 510.487 287.989 L 511.975 289.224 513.487 288.643 L 515 288.063 515 269.563 L 515 251.063 503.250 250.782 L 491.500 250.500 491.178 247.131 L 490.856 243.763 492.077 240.815 L 493.298 237.868 498.399 238.138 L 503.500 238.409 503.500 235.955 L 503.500 233.500 497.376 233.206 L 491.253 232.911 488.626 236.032 M 589 243.434 C 589 248.695, 588.844 253, 588.654 253 C 588.463 253, 586.851 252.274, 585.071 251.386 L 581.836 249.772 575.932 250.199 L 570.027 250.626 567.382 253.063 C 565.927 254.403, 563.905 257.300, 562.890 259.500 L 561.044 263.500 561.098 269.500 L 561.152 275.500 562.326 278.536 C 563.852 282.482, 565.909 285.194, 568.973 287.300 L 571.445 289 576.973 288.994 L 582.500 288.988 585.336 287.508 L 588.172 286.029 589.658 287.515 C 591.501 289.358, 592.437 289.383, 593.895 287.627 L 595.034 286.254 594.767 260.377 L 594.500 234.500 591.750 234.184 L 589 233.867 589 243.434 M 467.080 238.404 L 465.835 239.904 466.485 241.952 L 467.135 244 469.445 244 L 471.755 244 473.070 242.416 L 474.384 240.832 473.340 239.166 L 472.296 237.500 470.310 237.202 L 468.325 236.903 467.080 238.404 M 509.410 238.375 C 509.091 239.204, 508.988 240.697, 509.179 241.692 L 509.527 243.500 512.514 243.500 L 515.500 243.500 515.500 240.500 L 515.500 237.500 512.744 237.183 L 509.989 236.866 509.410 238.375 M 443.829 242.680 C 443.735 244.231, 443.558 246.175, 443.435 247 C 443.313 247.825, 443.165 249.034, 443.106 249.687 L 443 250.873 439.750 251.187 L 436.500 251.500 436.500 253.500 L 436.500 255.500 439.750 255.813 L 443 256.127 443 269.113 L 443 282.099 444.463 284.928 C 446.201 288.290, 447.758 289, 453.391 289 L 457.618 289 459.363 287.724 L 461.109 286.447 460.449 284.729 L 459.790 283.010 455.900 283.632 L 452.011 284.254 450.505 283.004 L 449 281.755 449 268.930 L 449 256.105 454.250 255.802 L 459.500 255.500 459.820 253.250 L 460.139 251 454.622 251 L 449.105 251 448.802 245.750 L 448.500 240.500 446.250 240.180 L 444 239.861 443.829 242.680 M 354 251.121 C 352.625 251.667, 350.273 253.288, 348.773 254.722 L 346.046 257.330 344.860 260.915 L 343.673 264.500 343.673 270 L 343.673 275.500 344.865 279.103 L 346.058 282.706 348.293 284.805 C 351.120 287.462, 357.135 290, 360.602 290 C 362.068 290, 365.008 289.479, 367.134 288.842 L 371 287.683 371 285.307 L 371 282.931 366.055 283.587 L 361.110 284.243 357.507 283.567 L 353.905 282.891 351.956 279.696 L 350.007 276.500 350.018 270 L 350.029 263.500 351.279 261 L 352.528 258.500 356.014 256.698 L 359.500 254.895 363 255.418 C 364.925 255.705, 367.400 256.066, 368.500 256.220 L 370.499 256.500 370.819 254.252 L 371.139 252.003 368.504 251.002 C 365.198 249.745, 357.298 249.809, 354 251.121 M 384.098 251.265 C 382.776 251.944, 380.301 254.229, 378.598 256.341 L 375.500 260.182 375.215 268.841 L 374.931 277.500 377.236 281.480 L 379.541 285.459 383.520 287.713 L 387.500 289.967 391.807 289.984 C 394.176 289.993, 398.099 289.500, 400.525 288.889 L 404.935 287.779 405.567 285.789 L 406.199 283.799 405.207 282.807 L 404.215 281.815 402.173 282.907 L 400.131 284 394 284 L 387.869 284 385.945 282.970 C 383.847 281.848, 381.653 278.055, 380.629 273.779 L 379.977 271.058 393.238 270.779 L 406.500 270.500 406.821 266.579 L 407.141 262.658 405.456 258.244 L 403.770 253.831 400.635 251.919 L 397.500 250.007 392 250.018 L 386.500 250.029 384.098 251.265 M 426.500 250.736 C 425.400 251.014, 423.612 251.861, 422.527 252.620 C 419.985 254.399, 419 254.365, 419 252.500 L 419 251 416.478 251 L 413.956 251 414.228 269.750 L 414.500 288.500 417 288.500 L 419.500 288.500 419.777 274.381 L 420.053 260.262 421.932 258.561 L 423.811 256.861 428.644 256.170 L 433.477 255.479 433.837 253.609 L 434.197 251.740 432.848 250.885 C 431.405 249.970, 429.697 249.930, 426.500 250.736 M 532.299 251.624 L 529.097 253.203 527.305 255.851 C 523.010 262.197, 521.984 270.662, 524.584 278.292 L 526.168 282.940 529.542 285.902 L 532.916 288.865 537.688 289.580 L 542.460 290.296 547.980 288.898 L 553.500 287.500 553.500 285 L 553.500 282.500 552 282.911 C 551.175 283.137, 547.461 283.526, 543.747 283.774 L 536.994 284.226 534.413 282.535 L 531.833 280.844 530.416 277.454 C 529.637 275.590, 529 273.388, 529 272.562 L 529 271.060 541.750 270.780 L 554.500 270.500 554.802 265.260 L 555.104 260.021 553.536 256.717 L 551.968 253.412 549.080 251.706 L 546.191 250 540.846 250.023 L 535.500 250.046 532.299 251.624 M 467 269.366 L 467 287.865 469.125 288.540 L 471.250 289.214 472.122 287.857 L 472.995 286.500 472.747 269 L 472.500 251.500 469.750 251.184 L 467 250.867 467 269.366 M 385.856 256.516 L 383.212 257.953 382.106 261.126 C 381.498 262.871, 381 264.681, 381 265.149 L 381 266 391.131 266 L 401.262 266 400.657 262.274 L 400.052 258.548 397.776 256.796 L 395.500 255.044 392 255.062 L 388.500 255.080 385.856 256.516 M 534.117 256.631 L 531.789 258.261 530.336 261.739 C 529.537 263.651, 529.031 265.364, 529.212 265.545 C 529.392 265.726, 534.031 265.955, 539.520 266.054 L 549.500 266.235 549.343 263.031 L 549.186 259.827 546.919 257.414 L 544.651 255 540.548 255 L 536.445 255 534.117 256.631 M 571.707 257.016 L 569.145 259.031 567.947 262.661 L 566.749 266.292 567.265 271.984 L 567.781 277.676 569.113 279.809 C 569.845 280.982, 571.703 282.463, 573.241 283.100 L 576.038 284.258 579.881 283.743 L 583.723 283.227 586.362 281.499 L 589 279.770 589 269.405 L 589 259.041 585.040 257.020 L 581.080 255 577.675 255 L 574.270 255 571.707 257.016 M 241.345 330.543 L 240.753 332.086 241.426 332.759 L 242.098 333.432 468.799 333.120 C 593.485 332.948, 695.859 332.586, 696.299 332.315 L 697.097 331.822 695.926 330.411 L 694.755 329 468.346 329 L 241.937 329 241.345 330.543 M 503.077 373.589 L 500 376.178 500 379.866 L 500 383.555 501.460 385.640 C 502.263 386.786, 504.281 388.288, 505.944 388.977 L 508.967 390.229 512.423 389.580 L 515.879 388.932 518.440 385.889 L 521 382.847 521 380.874 C 521 379.789, 520.303 377.554, 519.452 375.907 L 517.904 372.914 515.387 371.957 C 514.003 371.431, 511.359 371, 509.512 371 L 506.153 371 503.077 373.589 M 373.440 374.297 C 373.149 375.053, 373.044 388.683, 373.206 404.586 L 373.500 433.500 375.266 437.044 L 377.032 440.588 379.920 442.294 L 382.809 444 389.833 444 L 396.857 444 398.477 442.380 L 400.096 440.761 399.798 435.630 L 399.500 430.500 396.250 430.187 C 394.462 430.014, 392.905 429.789, 392.790 429.687 C 392.674 429.584, 392.337 416.900, 392.040 401.500 L 391.500 373.500 382.734 373.211 L 373.967 372.922 373.440 374.297 M 276.500 377.341 C 274.300 378.068, 271.073 379.408, 269.329 380.317 L 266.158 381.970 263.959 385.057 C 262.750 386.755, 261.163 390.130, 260.433 392.557 L 259.105 396.969 260.466 402.234 L 261.827 407.500 265.877 411.103 L 269.927 414.707 278.713 417.989 C 288.737 421.733, 290 422.528, 290 425.087 L 290 426.930 287.812 428.101 L 285.624 429.272 277.062 428.666 C 272.353 428.333, 266.813 427.763, 264.750 427.399 L 261 426.738 261 433.748 L 261 440.757 264.250 442.129 L 267.500 443.500 281.080 443.500 L 294.661 443.500 299.568 440.465 L 304.476 437.429 306.689 433.484 C 307.906 431.314, 309.196 427.800, 309.555 425.676 L 310.207 421.813 309.014 417.549 L 307.820 413.285 305.361 410.634 C 301.750 406.739, 299.174 405.280, 291 402.500 C 286.956 401.125, 282.602 399.314, 281.324 398.477 L 279 396.954 279 395.426 L 279 393.898 282.728 392.340 L 286.457 390.782 293.478 391.938 C 297.340 392.574, 301.533 393.352, 302.796 393.667 L 305.092 394.240 304.796 386.871 L 304.500 379.502 300.500 378.123 L 296.500 376.745 288.500 376.381 L 280.500 376.017 276.500 377.341 M 467.450 383.080 C 467.054 383.721, 466.224 386.525, 465.605 389.312 L 464.480 394.378 461.240 395.218 L 458 396.057 458 401.529 L 458 407 461 407 L 464 407 464 419.540 L 464 432.080 466.063 436.124 L 468.127 440.168 472.752 442.214 L 477.377 444.260 484.748 443.703 L 492.120 443.145 493.605 441.913 L 495.090 440.680 494.795 435.090 L 494.500 429.500 489.781 429.481 L 485.063 429.463 483.993 428.393 L 482.924 427.324 483.212 417.412 L 483.500 407.500 488.750 407.198 L 494 406.895 494 400.448 L 494 394 488.550 394 L 483.100 394 482.800 388.250 L 482.500 382.500 475.335 382.208 L 468.170 381.916 467.450 383.080 M 330.558 394.190 L 326.615 395.290 322.030 399.895 L 317.445 404.500 316.222 408.616 L 315 412.732 315 418.740 L 315 424.749 316.543 429.121 L 318.085 433.493 321.293 436.868 L 324.500 440.244 328.500 442.100 L 332.500 443.956 340.515 443.978 L 348.530 444 352.515 441.895 C 358.118 438.935, 360.566 436.444, 363.103 431.123 L 365.307 426.500 365.388 419 L 365.468 411.500 364.039 408 C 363.253 406.075, 361.686 403.219, 360.555 401.652 L 358.500 398.805 354.117 396.229 L 349.734 393.654 342.117 393.372 L 334.500 393.090 330.558 394.190 M 543.420 394.411 C 541.176 395.114, 537.902 396.752, 536.145 398.051 L 532.950 400.413 530.401 405.802 L 527.851 411.190 527.890 418.541 L 527.928 425.892 529.437 429.504 C 530.267 431.491, 531.926 434.492, 533.124 436.174 L 535.301 439.231 540.401 441.606 L 545.500 443.980 553 443.968 L 560.500 443.956 564.500 442.129 L 568.500 440.302 571.775 436.935 L 575.051 433.569 576.525 428.603 L 578 423.637 578 418.761 C 578 416.080, 577.471 411.786, 576.825 409.221 L 575.651 404.555 571.048 399.952 L 566.445 395.349 561.779 394.175 C 555.853 392.682, 548.645 392.775, 543.420 394.411 M 611.994 393.882 C 610.615 394.330, 608.050 395.440, 606.293 396.348 C 602.297 398.415, 602.343 398.419, 601.698 395.955 L 601.163 393.909 593.832 394.205 L 586.500 394.500 586.500 418.500 L 586.500 442.500 595.500 442.500 L 604.500 442.500 604.774 425.263 L 605.047 408.026 607.422 407.430 C 608.728 407.102, 610.855 406.984, 612.148 407.167 L 614.500 407.500 615 425 L 615.500 442.500 624.500 442.500 L 633.500 442.500 633.772 423.895 L 634.043 405.289 632.772 401.490 L 631.500 397.691 628.763 395.660 L 626.027 393.630 620.263 393.348 L 614.500 393.067 611.994 393.882 M 653.275 393.912 C 648.756 395.068, 645.242 397.571, 642.897 401.304 L 640.889 404.500 641.277 409.758 L 641.666 415.015 644.083 417.652 L 646.500 420.288 654.825 424.170 L 663.149 428.052 662.736 429.276 L 662.323 430.500 656.411 430.471 C 653.160 430.454, 648.362 430.066, 645.750 429.607 L 641 428.773 641 434.361 L 641 439.949 644.250 441.724 L 647.500 443.500 658.575 443.500 L 669.650 443.500 673.326 440.698 L 677.002 437.897 678.611 434.785 L 680.221 431.673 679.773 426.271 L 679.325 420.870 676.894 418.440 L 674.463 416.009 667.982 413.236 C 664.417 411.711, 660.600 409.918, 659.500 409.250 L 657.500 408.037 659 406.967 L 660.500 405.896 666 406.415 C 669.025 406.700, 672.962 407.230, 674.750 407.592 L 678 408.250 678 402.574 L 678 396.898 674.250 395.305 L 670.500 393.712 663.500 393.400 L 656.500 393.088 653.275 393.912 M 405.376 395.463 C 405.067 396.267, 404.969 405.604, 405.157 416.213 L 405.500 435.500 407.398 438.301 C 408.443 439.842, 410.558 441.754, 412.099 442.551 L 414.901 444 420.801 444 L 426.702 444 431.301 441.555 L 435.900 439.109 436.530 441.095 L 437.161 443.081 444.830 442.791 L 452.500 442.500 452.500 418.500 L 452.500 394.500 443.250 394.212 L 434 393.925 434 411.487 L 434 429.050 431.278 430.084 L 428.557 431.119 426.278 430.081 L 424 429.043 424 411.521 L 424 394 414.969 394 L 405.937 394 405.376 395.463 M 501.449 395.272 C 501.181 395.971, 501.082 406.884, 501.231 419.522 L 501.500 442.500 510.250 442.789 L 519 443.078 519 418.539 L 519 394 510.469 394 L 501.937 394 501.449 395.272 M 335.449 410.468 L 334 413.936 334 417.843 C 334 419.992, 334.287 423.187, 334.639 424.943 L 335.277 428.135 337.684 429.712 L 340.091 431.289 342.477 430.012 L 344.864 428.735 346.038 423.840 L 347.212 418.946 346.532 415.223 C 346.158 413.175, 345.200 410.488, 344.403 409.250 L 342.954 407 339.926 407 L 336.898 407 335.449 410.468 M 548.402 409.509 L 546.681 412.136 546.609 417.818 L 546.537 423.500 547.895 426.763 L 549.253 430.025 551.718 430.644 L 554.182 431.262 556.322 429.122 L 558.462 426.982 558.770 419.741 L 559.078 412.500 557.766 410 L 556.454 407.500 553.289 407.191 L 550.123 406.882 548.402 409.509 M 481.206 464.048 L 478.911 464.968 477.411 468.558 L 475.912 472.147 476.571 474.323 C 476.933 475.521, 478.150 477.506, 479.275 478.735 L 481.320 480.969 484.677 481.599 L 488.033 482.229 491.056 480.977 C 492.719 480.288, 494.737 478.786, 495.540 477.640 L 497 475.555 496.985 472.027 C 496.967 467.987, 496.455 467.038, 493.027 464.692 L 490.555 463 487.027 463.063 C 485.087 463.098, 482.468 463.541, 481.206 464.048 M 420 500.500 L 420 535 429 535 L 438 535 438 518.122 L 438 501.245 439.435 500.054 L 440.869 498.864 444.185 499.182 L 447.500 499.500 448 517 L 448.500 534.500 457.805 534.788 L 467.111 535.077 466.805 513.555 L 466.500 492.034 463.298 488.834 L 460.096 485.635 454.191 485.207 L 448.285 484.780 443.515 486.890 C 440.892 488.051, 438.578 489, 438.373 489 C 438.168 489, 438 483.825, 438 477.500 L 438 466 429 466 L 420 466 420 500.500 M 286.419 471.131 C 286.035 471.752, 283.808 477.715, 281.469 484.381 C 279.131 491.046, 274.426 504.375, 271.014 514 C 267.602 523.625, 264.571 532.304, 264.279 533.286 L 263.748 535.073 274.080 534.786 L 284.413 534.500 285.814 528.750 L 287.216 523 296.476 523 L 305.736 523 307.420 529 L 309.103 535 319.552 535 L 330 535 330 534.322 C 330 533.950, 328.613 529.787, 326.917 525.072 C 321.120 508.955, 319.190 503.490, 314.532 490 C 311.969 482.575, 309.232 475.038, 308.452 473.250 L 307.032 470 297.075 470 L 287.118 470 286.419 471.131 M 510.139 477.750 C 509.623 479.813, 508.939 482.670, 508.619 484.100 L 508.037 486.700 504.769 487.633 L 501.500 488.566 501.201 493.700 L 500.901 498.834 502.847 499.451 C 503.917 499.791, 505.402 499.941, 506.146 499.785 L 507.500 499.500 508 513 L 508.500 526.500 509.748 528.680 C 510.434 529.880, 512.446 531.893, 514.218 533.155 L 517.440 535.450 524.970 535.463 C 529.112 535.470, 533.759 535.130, 535.297 534.707 L 538.094 533.938 537.797 527.719 L 537.500 521.500 533.393 521.822 L 529.287 522.144 527.643 520.501 L 526 518.857 526 509.429 L 526 500 527.250 499.923 C 527.938 499.881, 530.525 499.769, 533 499.673 L 537.500 499.500 537.796 492.750 L 538.091 486 532.046 486 L 526 486 526 480 L 526 474 518.539 474 L 511.077 474 510.139 477.750 M 644.474 476.750 C 644.163 478.262, 643.481 481.122, 642.958 483.104 L 642.007 486.709 638.754 487.637 L 635.500 488.566 635.198 493.783 L 634.895 499 636.198 499.115 C 636.914 499.179, 637.950 499.335, 638.500 499.463 C 639.050 499.591, 640.063 499.764, 640.750 499.848 L 642 500 642.004 512.750 L 642.007 525.500 643.960 528.701 L 645.912 531.903 649.206 533.675 L 652.500 535.447 659.500 535.450 C 663.350 535.451, 667.759 535.112, 669.297 534.695 L 672.094 533.938 671.797 527.719 L 671.500 521.500 667.464 521.815 L 663.428 522.130 661.675 520.193 L 659.922 518.256 660.211 508.878 L 660.500 499.500 666.250 499.200 L 672 498.900 672 492.450 L 672 486 666 486 L 660 486 660 480 L 660 474 652.519 474 L 645.038 474 644.474 476.750 M 390.282 485.994 L 386.063 486.885 382.336 489.418 L 378.608 491.951 375.854 496.052 L 373.100 500.153 372.420 504.682 L 371.741 509.211 372.276 515.106 L 372.810 521.001 375.432 525.474 L 378.053 529.947 382.777 532.723 L 387.500 535.500 396.500 535.500 L 405.500 535.500 408.750 534.129 L 412 532.757 412 526.937 L 412 521.116 404.961 521.706 L 397.923 522.297 395.572 521.038 L 393.221 519.780 392.110 517.343 L 391 514.906 391 509.876 L 391 504.846 394.040 501.806 L 397.081 498.765 402.790 499.236 C 405.931 499.495, 409.175 499.885, 410 500.103 L 411.500 500.500 411.795 494.363 L 412.090 488.227 408.795 487.075 C 406.983 486.441, 403.025 485.739, 400 485.513 L 394.500 485.103 390.282 485.994 M 557.585 486.242 L 553.671 487.277 549.402 491.546 L 545.132 495.815 543.566 501.089 L 542 506.363 542 511.023 L 542 515.682 543.380 520.269 C 544.140 522.791, 545.786 526.295, 547.040 528.056 L 549.319 531.257 554.774 533.754 L 560.230 536.252 570.365 535.764 L 580.500 535.275 583.250 533.977 L 586 532.679 586 526.828 L 586 520.976 581.750 521.738 C 579.413 522.157, 574.509 522.500, 570.853 522.500 L 564.207 522.500 562.103 520.595 C 560.946 519.547, 560 518.085, 560 517.345 L 560 516 572.941 516 L 585.882 516 586.416 515.135 C 586.710 514.660, 587.235 511.847, 587.582 508.885 L 588.214 503.500 587.053 499.193 L 585.892 494.887 582.434 491.059 L 578.976 487.231 574.545 486.116 C 569.245 484.781, 562.932 484.828, 557.585 486.242 M 611.984 485.862 C 610.050 486.273, 606.570 487.675, 604.251 488.979 L 600.035 491.349 597.428 495.288 L 594.821 499.228 593.767 505.587 L 592.713 511.947 593.815 517.431 L 594.916 522.916 597.476 526.784 L 600.035 530.651 604.268 533.061 L 608.500 535.471 617.500 535.485 L 626.500 535.500 629.750 534.129 L 633 532.757 633 527.012 L 633 521.267 625.943 521.772 L 618.886 522.277 616.509 521.005 L 614.132 519.733 612.940 516.855 L 611.748 513.977 612.245 508.797 L 612.743 503.618 615.578 501.180 L 618.412 498.741 625.756 499.362 L 633.099 499.983 632.800 494.250 L 632.500 488.518 629.855 487.254 L 627.209 485.991 621.355 485.553 L 615.500 485.114 611.984 485.862 M 334.449 487.272 C 334.181 487.971, 334.082 498.884, 334.231 511.522 L 334.500 534.500 344 534.500 L 353.500 534.500 353.674 519.626 L 353.847 504.753 354.941 503.659 L 356.034 502.566 362.767 502.416 L 369.500 502.265 369.500 494.383 L 369.500 486.500 364.964 486.204 L 360.427 485.908 356.174 488.989 L 351.920 492.070 350.862 489.035 L 349.804 486 342.371 486 L 334.937 486 334.449 487.272 M 478 510.500 L 478 535 487 535 L 496 535 496 510.500 L 496 486 487 486 L 478 486 478 510.500 M 293.843 498.555 C 292.466 503.475, 291.514 507.837, 291.728 508.250 C 292.171 509.103, 300.382 509.285, 301.207 508.460 C 301.696 507.970, 298.842 496.300, 297.072 491.555 L 296.347 489.610 293.843 498.555 M 561.655 499.829 C 560.745 500.835, 560 502.410, 560 503.329 L 560 505 565.531 505 L 571.063 505 571.653 503.463 L 572.243 501.926 570.466 499.963 L 568.690 498 566 498 L 563.310 498 561.655 499.829 M 242.259 585.181 L 241.017 586.684 241.675 587.342 L 242.333 588 469.167 588 L 696 588 696 586.500 L 696 585 630.750 585 C 594.862 584.999, 493.050 584.702, 404.500 584.338 L 243.500 583.677 242.259 585.181 M 321.383 634.914 L 317.265 636.784 315.633 639.114 L 314 641.445 314 645.646 L 314 649.846 316.925 652.771 L 319.849 655.695 325.175 657.610 L 330.500 659.524 330.500 661.012 L 330.500 662.500 322.500 662.500 L 314.500 662.500 314.239 665.500 C 314.096 667.150, 314.344 669.057, 314.791 669.738 L 315.604 670.977 321.045 672.009 L 326.487 673.041 331.708 671.957 L 336.929 670.873 339.395 667.942 C 340.752 666.330, 342.161 664.069, 342.526 662.918 L 343.190 660.826 342.561 657.473 L 341.932 654.121 339.082 651.723 L 336.233 649.325 331.525 648.007 L 326.818 646.689 326.285 645.301 C 325.414 643.030, 326.737 642.579, 333.538 642.830 L 340 643.069 340 639.081 L 340 635.094 336.250 634.053 C 334.188 633.480, 330.925 633.019, 329 633.028 L 325.500 633.044 321.383 634.914 M 367.604 633.979 C 366.012 634.488, 363.424 636.136, 361.854 637.640 L 359 640.374 359 645.598 L 359 650.822 361.926 653.284 C 363.535 654.638, 367.135 656.567, 369.926 657.570 L 375 659.395 375 661.301 L 375 663.206 367.250 662.853 L 359.500 662.500 359.177 665.877 L 358.854 669.254 359.712 670.112 C 360.184 670.584, 362.934 671.419, 365.823 671.966 L 371.076 672.963 375.788 671.941 L 380.500 670.919 382.795 669.171 L 385.090 667.423 386.392 663.636 L 387.694 659.850 387.235 657.449 L 386.776 655.049 384.301 652.574 L 381.826 650.099 377.163 648.389 C 374.598 647.449, 371.852 646.088, 371.060 645.364 L 369.619 644.048 370.391 643.275 L 371.163 642.503 378.082 642.785 L 385 643.066 385 639.656 L 385 636.245 383.537 635.031 L 382.075 633.817 376.287 633.435 L 370.500 633.053 367.604 633.979 M 414.500 634.827 C 409.652 637.141, 406.658 640.362, 405.139 644.899 L 404 648.298 404.022 653.399 L 404.044 658.500 405.905 662.599 L 407.767 666.698 410.735 668.811 L 413.704 670.925 418.354 671.967 L 423.004 673.009 427.172 672.073 C 431.802 671.032, 435.403 668.680, 438.295 664.806 L 440.214 662.236 441.077 657.618 L 441.940 653 441.105 648.530 C 440.087 643.085, 438.135 639.968, 433.556 636.475 L 430.071 633.817 424.286 633.367 L 418.500 632.918 414.500 634.827 M 471.759 634.373 C 469.702 635.135, 466.851 636.523, 465.425 637.457 L 462.832 639.156 460.938 643.328 L 459.044 647.500 459.044 653 L 459.044 658.500 460.905 662.599 L 462.767 666.698 466.068 669.048 L 469.369 671.399 475.150 671.817 C 478.330 672.047, 482.518 671.938, 484.458 671.574 L 487.984 670.912 488.582 668.528 L 489.181 666.144 488.530 664.094 L 487.879 662.043 482.027 662.655 L 476.176 663.267 473.588 660.679 L 471 658.091 471 653 L 471 647.909 473.586 645.323 L 476.171 642.738 482.086 643.274 L 488 643.810 488 639.512 L 488 635.214 486.512 634.643 C 485.694 634.329, 482.881 633.828, 480.262 633.530 L 475.500 632.988 471.759 634.373 M 274.042 636.250 C 273.539 637.487, 271.054 644.575, 268.519 652 C 265.985 659.425, 263.459 666.584, 262.905 667.909 L 261.898 670.319 262.897 670.937 C 263.447 671.276, 266.058 671.521, 268.699 671.479 L 273.500 671.403 274.433 668.286 L 275.366 665.168 280.274 664.834 L 285.183 664.500 286.540 667.750 C 287.287 669.538, 288.258 671.025, 288.699 671.055 C 295.809 671.539, 298.150 671.525, 299.012 670.992 L 300.044 670.355 297.631 663.927 C 296.303 660.392, 293.520 652.550, 291.445 646.500 C 289.371 640.450, 287.185 635.169, 286.587 634.765 C 285.989 634.361, 283.128 634.024, 280.229 634.015 L 274.957 634 274.042 636.250 M 506.713 634.621 L 506 635.333 506 653.167 L 506 671 511.523 671 L 517.045 671 516.773 652.750 L 516.500 634.500 511.963 634.204 L 507.426 633.908 506.713 634.621 M 546.305 635.205 C 545.747 635.917, 544.036 640.100, 542.504 644.500 C 540.971 648.900, 538.433 656.100, 536.863 660.500 C 535.294 664.900, 534.008 669.063, 534.005 669.750 L 534 671 539.531 671 L 545.063 671 545.604 669.250 C 545.901 668.288, 546.500 666.825, 546.935 666 L 547.725 664.500 551.112 664.500 C 552.976 664.500, 555.256 664.837, 556.180 665.248 L 557.860 665.996 558.180 668.248 L 558.500 670.500 564.750 670.798 L 571 671.095 571 670.034 C 571 669.450, 570.575 668.191, 570.056 667.236 C 569.537 666.281, 566.683 658.525, 563.713 650 L 558.315 634.500 552.817 634.205 L 547.320 633.910 546.305 635.205 M 584.176 634.856 L 582.852 635.710 583.176 639.105 L 583.500 642.500 588.500 643 L 593.500 643.500 593.778 657.250 L 594.056 671 599.500 671 L 604.944 671 605.222 657.250 L 605.500 643.500 610.805 643.196 L 616.110 642.892 615.805 638.696 L 615.500 634.500 600.500 634.251 L 585.500 634.002 584.176 634.856 M 632.667 634.667 L 632 635.333 632 653.167 L 632 671 645 671 L 658 671 658 667 L 658 663 650.500 663 L 643 663 643 660.048 L 643 657.095 649.250 656.798 L 655.500 656.500 655.500 652.500 L 655.500 648.500 649.250 648.202 L 643 647.905 643 645.452 L 643 643 650.500 643 L 658 643 658.100 642 C 658.155 641.450, 658.200 639.875, 658.200 638.500 C 658.200 637.125, 658.155 635.550, 658.100 635 L 658 634 645.667 634 L 633.333 634 632.667 634.667 M 417.655 644.829 L 416 646.657 416 652.606 L 416 658.555 417.557 660.777 L 419.113 663 422.484 663 L 425.855 663 427.927 660.365 L 430 657.730 430 653.299 L 430 648.869 428.850 646.684 C 427.300 643.740, 426.060 643.033, 422.405 643.015 L 419.310 643 417.655 644.829 M 279.746 649.500 C 279.413 651.150, 278.835 653.288, 278.463 654.250 L 277.786 656 280.393 656 L 283 656 282.955 654.250 C 282.930 653.288, 282.334 651.150, 281.630 649.500 L 280.351 646.500 279.746 649.500 M 550.228 652 L 549.213 656 552.213 656 L 555.214 656 554.478 654.250 C 554.074 653.288, 553.523 651.487, 553.255 650.250 C 552.520 646.863, 551.362 647.533, 550.228 652" stroke="none" fill="#2739c9" fill-rule="evenodd"/></svg>