<svg xmlns="http://www.w3.org/2000/svg" width="601" height="601" viewBox="0 0 601 601" version="1.1"><path d="M 348.750 258.998 C 349.438 259.769, 350 261.570, 350 263 C 350 264.430, 349.438 266.231, 348.750 267.002 C 347.687 268.194, 347.761 268.206, 349.250 267.079 C 350.212 266.351, 351 264.515, 351 263 C 351 261.485, 350.212 259.649, 349.250 258.921 C 347.761 257.794, 347.687 257.806, 348.750 258.998 M 374.180 269.750 L 374 275 379.943 275 L 385.885 275 386.268 279.250 L 386.651 283.500 386.825 278.750 L 387 274 381.055 274 L 375.110 274 374.735 269.250 L 374.360 264.500 374.180 269.750 M 451 277.456 L 451 284.912 443.750 285.206 L 436.500 285.500 436.414 289.500 L 436.329 293.500 436.722 289.750 L 437.115 286 444.557 286 L 452 286 452 278.557 L 452 271.115 456.250 270.732 L 460.500 270.349 455.750 270.175 L 451 270 451 277.456 M 127.252 276.500 C 127.263 278.700, 127.468 279.482, 127.707 278.238 C 127.946 276.994, 127.937 275.194, 127.687 274.238 C 127.437 273.282, 127.241 274.300, 127.252 276.500 M 258.750 274.723 C 260.538 274.945, 263.462 274.945, 265.250 274.723 C 267.038 274.502, 265.575 274.320, 262 274.320 C 258.425 274.320, 256.962 274.502, 258.750 274.723 M 284.217 287.250 L 284.435 300.500 284.747 287.799 L 285.059 275.098 290.780 274.738 L 296.500 274.378 290.250 274.189 L 284 274 284.217 287.250 M 304.229 296.195 L 304.459 318.500 304.749 296.750 L 305.039 275 308.936 275 C 311.080 275, 313.062 275.461, 313.342 276.025 C 313.621 276.589, 313.736 276.476, 313.597 275.775 C 313.446 275.015, 311.455 274.377, 308.672 274.195 L 304 273.890 304.229 296.195 M 338.229 296.250 L 338.459 318.500 338.749 296.799 L 339.039 275.099 344.769 274.738 L 350.500 274.378 344.250 274.189 L 338 274 338.229 296.250 M 389.998 274.704 C 389.997 275.142, 392.757 275.345, 396.130 275.155 C 400.458 274.911, 402.542 275.205, 403.208 276.155 C 403.966 277.234, 404.072 277.204, 403.746 276 C 403.448 274.897, 401.573 274.422, 396.670 274.204 C 393.002 274.042, 389.999 274.267, 389.998 274.704 M 422.654 274.750 C 422.400 275.163, 424.285 275.368, 426.845 275.208 C 434.781 274.709, 435.772 274.278, 429.309 274.136 C 425.904 274.061, 422.909 274.337, 422.654 274.750 M 328 284 L 324.500 284.737 328.250 284.868 C 330.313 284.941, 332 284.550, 332 284 C 332 283.450, 331.887 283.059, 331.750 283.132 C 331.613 283.204, 329.925 283.595, 328 284 M 362.385 295 C 362.385 301.875, 362.545 304.688, 362.740 301.250 C 362.936 297.813, 362.936 292.188, 362.740 288.750 C 362.545 285.313, 362.385 288.125, 362.385 295 M 374.215 294.628 C 374.028 305.149, 374.232 306.937, 375.750 308.128 C 377.291 309.336, 377.354 309.313, 376.283 307.938 C 375.531 306.971, 374.945 301.824, 374.748 294.438 L 374.430 282.500 374.215 294.628 M 463.776 285.733 C 466.128 285.945, 469.728 285.942, 471.776 285.727 C 473.824 285.512, 471.900 285.339, 467.500 285.343 C 463.100 285.346, 461.424 285.522, 463.776 285.733 M 197 288.960 C 197 290.720, 196.162 290.953, 188.750 291.256 L 180.500 291.593 189.250 291.796 C 197.971 291.999, 198 291.992, 198 289.500 C 198 288.125, 197.775 287, 197.500 287 C 197.225 287, 197 287.882, 197 288.960 M 208.310 293.500 C 208.315 296.800, 208.502 298.029, 208.725 296.232 C 208.947 294.435, 208.943 291.735, 208.715 290.232 C 208.486 288.729, 208.304 290.200, 208.310 293.500 M 451.343 301.500 C 451.346 305.900, 451.522 307.576, 451.733 305.224 C 451.945 302.872, 451.942 299.272, 451.727 297.224 C 451.512 295.176, 451.339 297.100, 451.343 301.500 M 163.286 302.500 C 163.294 305.250, 163.488 306.256, 163.718 304.736 C 163.947 303.216, 163.941 300.966, 163.704 299.736 C 163.467 298.506, 163.279 299.750, 163.286 302.500 M 412.729 302.604 C 412.328 303.005, 412.014 304.271, 412.030 305.417 C 412.058 307.340, 412.141 307.363, 413.101 305.712 C 414.220 303.790, 413.934 301.400, 412.729 302.604 M 139.750 318.723 C 141.537 318.945, 144.463 318.945, 146.250 318.723 C 148.037 318.502, 146.575 318.320, 143 318.320 C 139.425 318.320, 137.963 318.502, 139.750 318.723 M 188.750 318.723 C 190.537 318.945, 193.463 318.945, 195.250 318.723 C 197.037 318.502, 195.575 318.320, 192 318.320 C 188.425 318.320, 186.963 318.502, 188.750 318.723 M 232.768 318.725 C 234.565 318.947, 237.265 318.943, 238.768 318.715 C 240.271 318.486, 238.800 318.304, 235.500 318.310 C 232.200 318.315, 230.971 318.502, 232.768 318.725 M 269.264 318.718 C 270.784 318.947, 273.034 318.941, 274.264 318.704 C 275.494 318.467, 274.250 318.279, 271.500 318.286 C 268.750 318.294, 267.744 318.488, 269.264 318.718 M 374.250 318.716 C 375.762 318.945, 378.238 318.945, 379.750 318.716 C 381.262 318.487, 380.025 318.300, 377 318.300 C 373.975 318.300, 372.738 318.487, 374.250 318.716 M 403.195 325.205 C 402.533 325.867, 399.855 326.707, 397.245 327.071 L 392.500 327.733 396.639 327.866 C 399.439 327.957, 401.542 327.364, 403.139 326.033 C 404.438 324.952, 405.252 324.052, 404.950 324.033 C 404.647 324.015, 403.858 324.542, 403.195 325.205 M 353.591 450.853 C 352.473 452.662, 354.202 455.113, 356.377 454.803 C 359.287 454.388, 359.260 450.608, 356.344 450.193 C 355.159 450.024, 353.920 450.321, 353.591 450.853 M 196 465.500 L 196 480 198.500 480 C 200.833 480, 201 479.667, 201 475 L 201 470 206.077 470 C 212.649 470, 217 466.215, 217 460.500 C 217 457.795, 216.241 456.087, 214.077 453.923 C 211.361 451.207, 210.618 451, 203.577 451 L 196 451 196 465.500 M 222 465.500 L 222 480 224.500 480 L 227 480 227 465.500 L 227 451 224.500 451 L 222 451 222 465.500 M 291.635 453.073 C 289.613 454.663, 289 456.031, 289 458.950 C 289 463.558, 290.114 464.574, 298.213 467.352 C 304.841 469.626, 306.293 471.564, 303.479 474.379 C 301.227 476.630, 296.348 476.430, 294.268 474 C 292.546 471.989, 288 471.205, 288 472.918 C 288 477.175, 292.786 480, 299.996 480 C 306.104 480, 310 476.946, 310 472.156 C 310 467.791, 307.200 465.137, 300.502 463.156 C 294.288 461.318, 292.660 459.320, 295.040 456.452 C 296.790 454.343, 301.724 454.654, 303.732 457 C 305.534 459.105, 310 459.763, 310 457.923 C 310 457.331, 308.685 455.531, 307.077 453.923 C 304.635 451.481, 303.341 451, 299.212 451 C 295.726 451, 293.493 451.611, 291.635 453.073 M 201 460.500 L 201 466 204.500 466 C 208.189 466, 212 463.205, 212 460.500 C 212 457.795, 208.189 455, 204.500 455 L 201 455 201 460.500 M 232 467 C 232 477.210, 233.502 480, 239 480 C 240.667 480, 242.889 479.111, 244 478 L 246 476 246 478 C 246 479.467, 246.667 480, 248.500 480 L 251 480 251 469 L 251 458 248.500 458 C 246.079 458, 246 458.215, 246 464.777 C 246 472.039, 244.286 476, 241.143 476 C 237.887 476, 237 473.815, 237 465.800 C 237 458.147, 236.953 458, 234.500 458 C 232.019 458, 232 458.067, 232 467 M 258.455 460.455 C 254.167 464.743, 256.013 468.536, 263.570 470.963 C 268.991 472.704, 270.102 474.340, 266.994 476.003 C 265.315 476.902, 264.360 476.811, 262.468 475.571 C 259.777 473.808, 256 473.475, 256 475 C 256 477.713, 260.117 480, 265 480 C 270.689 480, 274 477.635, 274 473.571 C 274 470.443, 271.854 468.342, 267.760 467.463 C 262.945 466.429, 261 465.164, 261.644 463.485 C 262.305 461.763, 267.091 461.491, 268.685 463.085 C 269.281 463.681, 270.834 464.019, 272.135 463.835 L 274.500 463.500 271.795 460.750 C 268.144 457.038, 262.007 456.902, 258.455 460.455 M 316.923 460.923 C 314.449 463.398, 314 464.637, 314 469 C 314 473.363, 314.449 474.602, 316.923 477.077 C 319.311 479.465, 320.693 480, 324.469 480 C 328.189 480, 329.619 479.463, 331.795 477.250 C 334.366 474.636, 334.398 474.485, 332.448 474.206 C 331.320 474.045, 329.126 474.572, 327.574 475.377 C 323.596 477.441, 319 475.565, 319 471.878 C 319 470.208, 319.830 470, 326.500 470 C 333.394 470, 334 469.834, 334 467.950 C 334 465.059, 331.334 460.249, 329.055 459.030 C 325.245 456.991, 320.044 457.802, 316.923 460.923 M 338 469 L 338 480 340.500 480 C 342.935 480, 343 479.813, 343.015 472.750 C 343.033 464.433, 343.709 462.864, 347.369 462.652 C 349.384 462.536, 349.999 461.974, 349.999 460.250 C 350 457.791, 348.107 457.337, 344.934 459.035 C 343.601 459.749, 343 459.749, 343 459.035 C 343 458.466, 341.875 458, 340.500 458 L 338 458 338 469 M 354 469 L 354 480 356.500 480 L 359 480 359 469 L 359 458 356.500 458 L 354 458 354 469 M 366.923 460.923 C 364.449 463.398, 364 464.637, 364 469 C 364 473.363, 364.449 474.602, 366.923 477.077 C 369.311 479.465, 370.693 480, 374.469 480 C 378.189 480, 379.619 479.463, 381.795 477.250 C 384.366 474.636, 384.398 474.485, 382.448 474.206 C 381.320 474.045, 379.126 474.572, 377.574 475.377 C 373.596 477.441, 369 475.565, 369 471.878 C 369 470.208, 369.830 470, 376.500 470 C 383.394 470, 384 469.834, 384 467.950 C 384 465.059, 381.334 460.249, 379.055 459.030 C 375.245 456.991, 370.044 457.802, 366.923 460.923 M 389.455 460.455 C 385.167 464.743, 387.013 468.536, 394.570 470.963 C 399.991 472.704, 401.102 474.340, 397.994 476.003 C 396.315 476.902, 395.360 476.811, 393.468 475.571 C 390.777 473.808, 387 473.475, 387 475 C 387 477.713, 391.117 480, 396 480 C 401.689 480, 405 477.635, 405 473.571 C 405 470.443, 402.854 468.342, 398.760 467.463 C 393.945 466.429, 392 465.164, 392.644 463.485 C 393.305 461.763, 398.091 461.491, 399.685 463.085 C 400.281 463.681, 401.834 464.019, 403.135 463.835 L 405.500 463.500 402.795 460.750 C 399.144 457.038, 393.007 456.902, 389.455 460.455 M 320.571 463.571 C 317.953 466.190, 318.763 467, 324 467 C 327.436 467, 329 466.593, 329 465.700 C 329 462.152, 323.404 460.739, 320.571 463.571 M 370.571 463.571 C 367.953 466.190, 368.763 467, 374 467 C 377.436 467, 379 466.593, 379 465.700 C 379 462.152, 373.404 460.739, 370.571 463.571" stroke="none" fill="#565d62" fill-rule="evenodd"/><path d="M 338.818 260.500 C 336.900 264.710, 339.076 268, 343.779 268 C 348.255 268, 350 266.598, 350 263 C 350 259.402, 348.255 258, 343.779 258 C 340.673 258, 339.744 258.468, 338.818 260.500 M 141.120 261.095 C 132.522 262.754, 128.006 268.061, 128.010 276.500 C 128.015 284.284, 131.211 288.069, 142.635 293.823 C 150.260 297.663, 152 299.371, 152 303.015 C 152 309.001, 143.871 310.730, 133.260 307 C 130.130 305.900, 127.418 305, 127.232 305 C 127.047 305, 127.031 307.324, 127.198 310.166 C 127.484 315.063, 127.681 315.396, 131 316.589 C 132.925 317.282, 138.070 317.882, 142.434 317.924 C 156.491 318.059, 162.989 312.959, 162.996 301.785 C 162.999 296.862, 162.586 295.598, 160.010 292.664 C 158.365 290.790, 153.752 287.562, 149.760 285.490 C 140.583 280.728, 139 279.332, 139 276 C 139 270.290, 146.008 268.328, 155.030 271.511 C 157.385 272.342, 159.419 272.904, 159.551 272.761 C 159.854 272.430, 163 264.857, 163 264.458 C 163 263.839, 153.333 261.158, 149.500 260.714 C 147.300 260.459, 143.529 260.630, 141.120 261.095 M 365.457 269.850 C 364.173 273.420, 362.827 275.177, 360.356 276.507 C 355.832 278.944, 355.563 283, 359.926 283 L 362.852 283 363.176 297.585 L 363.500 312.169 366.766 315.085 C 369.638 317.649, 370.782 317.998, 376.266 317.986 C 385.984 317.965, 387 317.470, 387 312.756 L 387 308.744 382.873 309.404 C 379.920 309.877, 378.072 309.622, 376.373 308.509 C 374.094 307.016, 374 306.479, 374 294.977 L 374 283 380 283 L 386 283 386 279 L 386 275 380 275 L 374 275 374 270 L 374 265 370.600 265 C 367.441 265, 367.077 265.343, 365.457 269.850 M 452 278.500 L 452 286 444.500 286 L 437 286 437 290 L 437 294 444.500 294 L 452 294 452 301.500 L 452 309 456 309 L 460 309 460 301.500 L 460 294 467.500 294 L 475 294 475 290 L 475 286 467.500 286 L 460 286 460 278.500 L 460 271 456 271 L 452 271 452 278.500 M 181.231 275.252 C 176.998 276.609, 171.422 282.819, 170.072 287.679 C 166.642 300.030, 170.939 311.796, 180.459 316.120 C 185.167 318.259, 196.180 318.626, 202.134 316.842 C 205.829 315.735, 206 315.497, 206 311.460 L 206 307.236 202.250 308.574 C 200.188 309.310, 195.920 309.932, 192.766 309.956 C 187.852 309.994, 186.614 309.607, 184.112 307.250 C 182.507 305.738, 180.916 303.262, 180.577 301.750 L 179.962 299 193.981 299 L 208 299 207.984 292.750 C 207.962 284.501, 205.165 279.344, 199.034 276.250 C 194.189 273.804, 187.003 273.402, 181.231 275.252 M 226.459 275.880 C 218.845 279.338, 215.011 286.244, 215.011 296.500 C 215.011 306.412, 218.933 313.821, 225.671 316.636 C 229.595 318.276, 240.478 318.427, 244.851 316.902 C 247.809 315.871, 248 315.505, 248 310.876 L 248 305.949 245.050 307.474 C 240.381 309.889, 232.391 309.482, 229.596 306.687 C 225.080 302.170, 225.408 289.592, 230.167 284.833 C 231.875 283.125, 233.110 282.854, 237.364 283.255 C 240.189 283.521, 243.281 284.068, 244.236 284.471 C 245.514 285.010, 246.205 284.582, 246.853 282.852 C 249.265 276.409, 249.262 276.395, 245.150 275.163 C 239.440 273.452, 231.098 273.772, 226.459 275.880 M 322.299 275.624 C 320.538 276.492, 318.381 278.296, 317.505 279.633 C 315.592 282.552, 314.466 282.080, 313.654 278.021 C 313.102 275.260, 312.703 275, 309.025 275 L 305 275 305 296.500 L 305 318 310.500 318 L 316 318 316 304.423 L 316 290.846 318.850 287.997 C 320.546 286.301, 323.278 284.883, 325.600 284.496 C 331.916 283.441, 332 283.363, 332 278.531 C 332 274.081, 331.942 274, 328.750 274.023 C 326.962 274.035, 324.059 274.756, 322.299 275.624 M 256.179 291.750 C 256.600 310.299, 257.525 313.669, 262.967 316.483 C 267.260 318.703, 276.748 318.451, 280.750 316.011 C 282.538 314.921, 284 313.573, 284 313.015 C 284 310.671, 286.099 312.243, 286.650 315 C 287.207 317.785, 287.564 318, 291.625 318 L 296 318 296 296.500 L 296 275 290.596 275 L 285.192 275 284.846 288.929 C 284.541 301.204, 284.251 303.191, 282.398 305.670 C 279.340 309.763, 274.640 310.868, 271.201 308.302 L 268.500 306.287 268.225 290.644 L 267.949 275 261.874 275 L 255.798 275 256.179 291.750 M 339 296.500 L 339 318 344.500 318 L 350 318 350 296.500 L 350 275 344.500 275 L 339 275 339 296.500 M 391 275.373 C 391 275.578, 394.834 285.254, 399.520 296.874 L 408.039 318.003 406.016 321.968 C 403.650 326.607, 401.467 328, 396.566 328 C 393.075 328, 393 328.084, 393 331.981 C 393 335.396, 393.356 336.051, 395.507 336.591 C 398.560 337.357, 404.450 336.336, 408.220 334.386 C 412.603 332.120, 415.420 326.856, 422.873 307 C 426.693 296.825, 430.972 285.441, 432.382 281.703 L 434.946 274.906 428.772 275.203 L 422.598 275.500 418.861 287 C 416.806 293.325, 414.566 300.525, 413.884 303 C 412.854 306.736, 412.580 307.075, 412.268 305 C 412.062 303.625, 409.855 296.313, 407.363 288.750 L 402.834 275 396.917 275 C 393.663 275, 391 275.168, 391 275.373 M 183.073 284.635 C 181.933 286.084, 181 288.334, 181 289.635 C 181 291.936, 181.229 292, 189.500 292 C 197.771 292, 198 291.936, 198 289.635 C 198 288.334, 197.067 286.084, 195.927 284.635 C 194.255 282.509, 193.014 282, 189.500 282 C 185.986 282, 184.745 282.509, 183.073 284.635" stroke="none" fill="#242b32" fill-rule="evenodd"/><path d="M 275.075 44.041 C 148.818 56.197, 48.790 152.624, 31.345 279 C 28.973 296.180, 28.973 331.820, 31.345 349 C 39.364 407.095, 63.165 457.034, 103.774 500.975 L 110.682 508.449 114.237 505.475 C 116.192 503.839, 121.006 499.848, 124.934 496.606 L 132.077 490.713 135.481 493.606 C 161.753 515.942, 180 527.703, 204.449 538.060 C 225.462 546.962, 247.512 552.941, 271 556.106 C 283.049 557.730, 316.566 557.752, 329 556.145 C 378.808 549.707, 423.263 529.879, 460.285 497.591 C 469.320 489.711, 467.496 489.410, 480.856 500.980 L 489.212 508.216 494.201 503.358 C 496.946 500.686, 502.452 494.675, 506.438 490 C 539.484 451.241, 560.644 404.685, 568.706 353 C 571.254 336.665, 571.258 291.291, 568.713 275.500 C 558.853 214.319, 534.053 164.967, 492.052 122.939 C 469.363 100.236, 449.011 85.534, 420.955 71.582 C 394.510 58.430, 368.926 50.304, 340.369 45.986 C 324.457 43.580, 290.404 42.566, 275.075 44.041 M 278 81.036 C 206.436 87.872, 138.902 129.659, 101.334 190.349 C 68.629 243.183, 58.062 306.039, 71.635 367 C 89.991 449.442, 153.856 516.734, 236.212 540.409 C 274.534 551.425, 320.765 551.829, 360.293 541.494 C 389.735 533.795, 422.035 517.554, 446.436 498.180 C 485.757 466.958, 515.295 421.171, 527.515 372.500 C 537.199 333.929, 537.191 294.879, 527.491 256.272 C 515.456 208.371, 484.670 161.127, 445.448 130.372 C 427.496 116.295, 401.660 101.908, 380.500 94.203 C 367.324 89.406, 348.383 84.638, 334 82.498 C 321.186 80.592, 290.924 79.802, 278 81.036 M 172.205 151.894 C 150.086 159.534, 147.711 187.505, 168.281 198.121 C 176.130 202.172, 187.678 202.286, 195.216 198.388 C 199.220 196.318, 205 191.017, 205 189.415 C 205 187.160, 199.979 186.475, 197.069 188.333 C 190.156 192.747, 185.701 194.223, 180.603 193.790 C 164.162 192.393, 155.934 176.551, 165.652 165.002 C 170.025 159.805, 175.291 157.734, 183.024 158.171 C 189.743 158.551, 190.488 158.882, 199.735 165.600 C 202.166 167.367, 207 166.826, 207 164.788 C 207 164.142, 204.565 161.254, 201.588 158.372 C 193.232 150.278, 183.253 148.078, 172.205 151.894 M 328.438 151.100 C 328.064 151.705, 328.648 153.392, 329.734 154.850 C 331.601 157.354, 332.239 157.516, 341.355 157.786 L 351 158.072 351 177.536 C 351 195.667, 351.137 197.137, 353 199 C 354.100 200.100, 355.900 201, 357 201 C 358.938 201, 359 200.333, 359 179.500 L 359 158 367.777 158 C 377.618 158, 381 156.579, 381 152.443 L 381 150 355.059 150 C 337.274 150, 328.904 150.346, 328.438 151.100 M 416.943 151.366 C 415.360 152.172, 411.574 159.395, 403.858 176.329 C 397.886 189.435, 393 200.526, 393 200.974 C 393 201.831, 398.950 200.767, 400.901 199.561 C 401.526 199.175, 403.162 196.640, 404.536 193.929 L 407.034 189 420.052 189 L 433.071 189 434.950 193.383 C 435.983 195.794, 437.868 198.494, 439.137 199.383 C 441.612 201.117, 446 201.579, 446 200.106 C 446 198.761, 425.537 154.352, 424.143 152.673 C 422.408 150.581, 419.513 150.056, 416.943 151.366 M 383.198 173.897 C 383.473 194.765, 383.669 196.981, 385.405 198.897 C 386.453 200.054, 388.140 201, 389.155 201 C 390.895 201, 391 199.689, 391 178 C 391 156.333, 390.884 154.884, 389 153 C 387.900 151.900, 386.076 151, 384.948 151 C 382.929 151, 382.900 151.374, 383.198 173.897 M 415.193 170.414 C 412.887 175.592, 411 180.092, 411 180.414 C 411 180.736, 415.087 181, 420.083 181 C 425.079 181, 429.017 180.593, 428.833 180.096 C 427.204 175.676, 420.378 161.024, 419.943 161.014 C 419.637 161.006, 417.499 165.236, 415.193 170.414 M 216.168 167.146 C 203.969 173.184, 202.788 190.199, 214.051 197.653 C 219.840 201.483, 229.786 202.170, 235.711 199.147 C 250.424 191.641, 249.881 172.862, 234.768 166.548 C 229.418 164.312, 221.370 164.571, 216.168 167.146 M 256.500 165.954 C 253.763 167.086, 250.352 170.923, 249.067 174.315 C 248.480 175.863, 248 182.501, 248 189.065 C 248 200.184, 248.132 201, 249.927 201 C 250.988 201, 252.788 199.814, 253.927 198.365 C 255.701 196.110, 256 194.329, 256 186.020 C 256 178.012, 256.307 176.047, 257.750 174.807 C 260.506 172.440, 262.821 171.961, 265.536 173.198 C 268.538 174.566, 268.848 175.785, 269.216 187.646 C 269.518 197.370, 271.132 201, 275.155 201 C 276.845 201, 277 200, 277 189.111 C 277 175.334, 278.135 172.667, 284 172.667 C 289.624 172.667, 291 175.507, 291 187.111 C 291 195.667, 291.270 197.270, 293 199 C 294.100 200.100, 295.675 201, 296.500 201 C 297.758 201, 297.999 198.863, 297.996 187.750 C 297.993 176.373, 297.717 174.048, 296.040 171.299 C 292.309 165.179, 282.769 163.014, 276.469 166.856 C 273.521 168.654, 273.344 168.654, 269.985 166.852 C 266.413 164.937, 259.993 164.509, 256.500 165.954 M 312.500 166.890 C 307.872 169.026, 304.583 172.312, 303.067 176.315 C 302.460 177.917, 302 186.642, 302 196.565 C 302 212.845, 302.122 214, 303.845 214 C 304.860 214, 306.547 213.053, 307.595 211.896 C 309.247 210.071, 309.566 207.693, 310 193.997 C 310.564 176.170, 311.074 174.865, 318.224 172.940 C 325.936 170.863, 333.455 175.817, 333.455 182.976 C 333.455 187.477, 331.103 190.598, 326.123 192.704 C 322.643 194.176, 315.548 193.695, 314.446 191.913 C 314.136 191.411, 313.234 191, 312.441 191 C 310.102 191, 310.753 195.844, 313.455 198.545 C 315.463 200.554, 316.904 201, 321.389 201 C 324.404 201, 328.137 200.521, 329.685 199.936 C 333.134 198.633, 337.695 194.425, 339.589 190.800 C 341.259 187.603, 341.433 180.274, 339.933 176.315 C 336.300 166.725, 322.862 162.108, 312.500 166.890 M 221.500 173.506 C 216.332 175.339, 214 178.284, 214 182.976 C 214 193.703, 229.109 197.601, 236.526 188.787 C 238.673 186.235, 239.089 184.933, 238.639 182.162 C 237.928 177.782, 234.648 174.275, 230.074 173.004 C 225.767 171.807, 226.394 171.771, 221.500 173.506 M 203.379 361.835 C 184.191 368.468, 177.457 392.648, 190.399 408.442 C 192.254 410.706, 196.185 413.895, 199.136 415.529 L 204.500 418.500 298.432 418.770 C 406.379 419.080, 398.445 419.715, 408.168 409.992 C 412.705 405.455, 414.199 403.124, 415.551 398.474 C 420.033 383.055, 412.308 367.626, 397.292 362.008 C 392.059 360.050, 389.640 360.001, 300.212 360.033 C 215.117 360.063, 208.131 360.193, 203.379 361.835 M 206.994 365.934 C 199.806 368.121, 193.144 374.018, 190.375 380.645 C 188.430 385.300, 188.677 394.692, 190.871 399.522 C 192.966 404.134, 197.786 409.278, 202.356 411.779 C 205.255 413.366, 212.733 413.522, 298.500 413.780 C 382.412 414.032, 391.919 413.900, 395.789 412.432 C 412.493 406.094, 417.104 385.052, 404.542 372.490 C 396.703 364.651, 401.496 364.989, 299.568 365.086 C 250.031 365.133, 208.372 365.515, 206.994 365.934 M 214.270 377.483 C 205.676 381.219, 204.412 395.972, 212.217 401.439 C 213.493 402.333, 216.519 403, 219.299 403 C 223.332 403, 224.649 402.505, 227.077 400.077 C 228.685 398.469, 230 396.444, 230 395.577 C 230 393.104, 226.026 393.698, 223.821 396.500 C 219.365 402.166, 212 397.838, 212 389.554 C 212 384.430, 214.794 381, 218.968 381 C 221.769 381, 225 383.181, 225 385.071 C 225 385.582, 226.125 386, 227.500 386 C 232.160 386, 229.219 379.825, 223.401 377.394 C 219.322 375.690, 218.372 375.699, 214.270 377.483 M 235 390 L 235 403 244 403 C 252.333 403, 253 402.852, 253 401 C 253 399.205, 252.333 399, 246.500 399 L 240 399 240 395.500 L 240 392 246 392 C 251.333 392, 252 391.778, 252 390 C 252 388.222, 251.333 388, 246 388 L 240 388 240 384.548 L 240 381.095 246.240 380.798 C 251.246 380.559, 252.546 380.154, 252.813 378.750 C 253.111 377.187, 252.175 377, 244.073 377 L 235 377 235 390 M 257 390 L 257 403 259.500 403 C 261.796 403, 262 402.633, 262 398.500 C 262 394.238, 262.148 394, 264.801 394 C 267.130 394, 267.970 394.758, 269.788 398.500 C 271.517 402.060, 272.499 403, 274.487 403 C 277.593 403, 277.592 402.577, 274.466 397.109 C 272.005 392.804, 271.994 392.693, 273.899 391.358 C 276.665 389.421, 277.445 384.761, 275.600 381.194 C 273.667 377.455, 272.401 377, 263.918 377 L 257 377 257 390 M 280.185 378.750 C 280.417 379.973, 281.643 380.593, 284.258 380.810 L 288 381.121 288 392.060 L 288 403 290.500 403 L 293 403 293 392 L 293 381 297 381 C 300.333 381, 301 380.667, 301 379 C 301 377.126, 300.333 377, 290.427 377 C 280.897 377, 279.886 377.173, 280.185 378.750 M 306 390 L 306 403 308.500 403 L 311 403 311 390 L 311 377 308.500 377 L 306 377 306 390 M 316 390 L 316 403 318.500 403 C 320.864 403, 321 402.700, 321 397.500 L 321 392 326.500 392 C 331.333 392, 332 391.758, 332 390 C 332 388.242, 331.333 388, 326.500 388 L 321 388 321 384.500 L 321 381 327 381 C 332.333 381, 333 380.778, 333 379 C 333 377.157, 332.333 377, 324.500 377 L 316 377 316 390 M 338 390 L 338 403 340.500 403 L 343 403 343 390 L 343 377 340.500 377 L 338 377 338 390 M 349 390 L 349 403 358 403 C 366.333 403, 367 402.852, 367 401 C 367 399.205, 366.333 399, 360.500 399 L 354 399 354 395.500 L 354 392 360 392 C 365.333 392, 366 391.778, 366 390 C 366 388.222, 365.333 388, 360 388 L 354 388 354 384.548 L 354 381.095 360.240 380.798 C 365.246 380.559, 366.546 380.154, 366.813 378.750 C 367.111 377.187, 366.175 377, 358.073 377 L 349 377 349 390 M 371 390 L 371 403 377.550 403 C 389.032 403, 393.623 398.524, 392.764 388.168 C 392.381 383.547, 391.799 382.210, 389.138 379.832 C 386.256 377.257, 385.289 377, 378.484 377 L 371 377 371 390 M 262 385 C 262 388.979, 262.020 389, 265.878 389 C 270.800 389, 272.756 386.956, 271.168 383.470 C 270.243 381.439, 269.328 381, 266.021 381 L 262 381 262 385 M 376 390 L 376 399 379.365 399 C 381.255 399, 383.885 398.092, 385.365 396.927 C 387.575 395.189, 388 394.060, 388 389.927 C 388 383.605, 385.666 381, 380 381 L 376 381 376 390" stroke="none" fill="#bc3535" fill-rule="evenodd"/><path d="M 278 81.036 C 206.436 87.872, 138.902 129.659, 101.334 190.349 C 68.629 243.183, 58.062 306.039, 71.635 367 C 89.991 449.442, 153.856 516.734, 236.212 540.409 C 274.534 551.425, 320.765 551.829, 360.293 541.494 C 389.735 533.795, 422.035 517.554, 446.436 498.180 C 485.757 466.958, 515.295 421.171, 527.515 372.500 C 537.199 333.929, 537.191 294.879, 527.491 256.272 C 515.456 208.371, 484.670 161.127, 445.448 130.372 C 427.496 116.295, 401.660 101.908, 380.500 94.203 C 367.324 89.406, 348.383 84.638, 334 82.498 C 321.186 80.592, 290.924 79.802, 278 81.036 M 172.205 151.894 C 150.086 159.534, 147.711 187.505, 168.281 198.121 C 176.130 202.172, 187.678 202.286, 195.216 198.388 C 199.220 196.318, 205 191.017, 205 189.415 C 205 187.160, 199.979 186.475, 197.069 188.333 C 190.156 192.747, 185.701 194.223, 180.603 193.790 C 164.162 192.393, 155.934 176.551, 165.652 165.002 C 170.025 159.805, 175.291 157.734, 183.024 158.171 C 189.743 158.551, 190.488 158.882, 199.735 165.600 C 202.166 167.367, 207 166.826, 207 164.788 C 207 164.142, 204.565 161.254, 201.588 158.372 C 193.232 150.278, 183.253 148.078, 172.205 151.894 M 328.438 151.100 C 328.064 151.705, 328.648 153.392, 329.734 154.850 C 331.601 157.354, 332.239 157.516, 341.355 157.786 L 351 158.072 351 177.536 C 351 195.667, 351.137 197.137, 353 199 C 354.100 200.100, 355.900 201, 357 201 C 358.938 201, 359 200.333, 359 179.500 L 359 158 367.777 158 C 377.618 158, 381 156.579, 381 152.443 L 381 150 355.059 150 C 337.274 150, 328.904 150.346, 328.438 151.100 M 416.943 151.366 C 415.360 152.172, 411.574 159.395, 403.858 176.329 C 397.886 189.435, 393 200.526, 393 200.974 C 393 201.831, 398.950 200.767, 400.901 199.561 C 401.526 199.175, 403.162 196.640, 404.536 193.929 L 407.034 189 420.052 189 L 433.071 189 434.950 193.383 C 435.983 195.794, 437.868 198.494, 439.137 199.383 C 441.612 201.117, 446 201.579, 446 200.106 C 446 198.761, 425.537 154.352, 424.143 152.673 C 422.408 150.581, 419.513 150.056, 416.943 151.366 M 383.198 173.897 C 383.473 194.765, 383.669 196.981, 385.405 198.897 C 386.453 200.054, 388.140 201, 389.155 201 C 390.895 201, 391 199.689, 391 178 C 391 156.333, 390.884 154.884, 389 153 C 387.900 151.900, 386.076 151, 384.948 151 C 382.929 151, 382.900 151.374, 383.198 173.897 M 415.193 170.414 C 412.887 175.592, 411 180.092, 411 180.414 C 411 180.736, 415.087 181, 420.083 181 C 425.079 181, 429.017 180.593, 428.833 180.096 C 427.204 175.676, 420.378 161.024, 419.943 161.014 C 419.637 161.006, 417.499 165.236, 415.193 170.414 M 216.168 167.146 C 203.969 173.184, 202.788 190.199, 214.051 197.653 C 219.840 201.483, 229.786 202.170, 235.711 199.147 C 250.424 191.641, 249.881 172.862, 234.768 166.548 C 229.418 164.312, 221.370 164.571, 216.168 167.146 M 256.500 165.954 C 253.763 167.086, 250.352 170.923, 249.067 174.315 C 248.480 175.863, 248 182.501, 248 189.065 C 248 200.184, 248.132 201, 249.927 201 C 250.988 201, 252.788 199.814, 253.927 198.365 C 255.701 196.110, 256 194.329, 256 186.020 C 256 178.012, 256.307 176.047, 257.750 174.807 C 260.506 172.440, 262.821 171.961, 265.536 173.198 C 268.538 174.566, 268.848 175.785, 269.216 187.646 C 269.518 197.370, 271.132 201, 275.155 201 C 276.845 201, 277 200, 277 189.111 C 277 175.334, 278.135 172.667, 284 172.667 C 289.624 172.667, 291 175.507, 291 187.111 C 291 195.667, 291.270 197.270, 293 199 C 294.100 200.100, 295.675 201, 296.500 201 C 297.758 201, 297.999 198.863, 297.996 187.750 C 297.993 176.373, 297.717 174.048, 296.040 171.299 C 292.309 165.179, 282.769 163.014, 276.469 166.856 C 273.521 168.654, 273.344 168.654, 269.985 166.852 C 266.413 164.937, 259.993 164.509, 256.500 165.954 M 312.500 166.890 C 307.872 169.026, 304.583 172.312, 303.067 176.315 C 302.460 177.917, 302 186.642, 302 196.565 C 302 212.845, 302.122 214, 303.845 214 C 304.860 214, 306.547 213.053, 307.595 211.896 C 309.247 210.071, 309.566 207.693, 310 193.997 C 310.564 176.170, 311.074 174.865, 318.224 172.940 C 325.936 170.863, 333.455 175.817, 333.455 182.976 C 333.455 187.477, 331.103 190.598, 326.123 192.704 C 322.643 194.176, 315.548 193.695, 314.446 191.913 C 314.136 191.411, 313.234 191, 312.441 191 C 310.102 191, 310.753 195.844, 313.455 198.545 C 315.463 200.554, 316.904 201, 321.389 201 C 324.404 201, 328.137 200.521, 329.685 199.936 C 333.134 198.633, 337.695 194.425, 339.589 190.800 C 341.259 187.603, 341.433 180.274, 339.933 176.315 C 336.300 166.725, 322.862 162.108, 312.500 166.890 M 221.500 173.506 C 216.332 175.339, 214 178.284, 214 182.976 C 214 193.703, 229.109 197.601, 236.526 188.787 C 238.673 186.235, 239.089 184.933, 238.639 182.162 C 237.928 177.782, 234.648 174.275, 230.074 173.004 C 225.767 171.807, 226.394 171.771, 221.500 173.506 M 339.750 258.080 C 337.208 259.561, 337.338 266.576, 339.934 267.965 C 344.853 270.597, 351 267.839, 351 263 C 351 258.162, 344.494 255.317, 339.750 258.080 M 137.500 261.496 C 126.647 265.318, 123.685 279.534, 132.068 287.565 C 133.730 289.157, 138.555 292.269, 142.790 294.480 C 148.527 297.475, 150.734 299.207, 151.446 301.272 C 153.781 308.046, 143.556 310.630, 132.250 306.122 L 127 304.029 127 309.937 L 127 315.845 130.750 317.161 C 132.813 317.885, 138.325 318.482, 143 318.489 C 150.123 318.498, 152.169 318.116, 155.632 316.132 C 165.671 310.380, 166.841 296.493, 157.856 289.742 C 156.010 288.355, 151.697 285.819, 148.270 284.106 C 138.684 279.314, 136.422 273.725, 142.972 271.012 C 145.966 269.771, 153.915 270.814, 157.956 272.976 C 159.494 273.800, 160.059 273.217, 161.815 268.990 C 162.947 266.267, 163.564 263.853, 163.186 263.625 C 162.809 263.397, 160.056 262.488, 157.068 261.605 C 150.456 259.651, 142.861 259.609, 137.500 261.496 M 365.007 269.474 C 364.072 272.815, 362.900 274.452, 360.377 275.940 C 356.140 278.440, 355.500 283, 359.387 283 C 361.768 283, 361.774 283.027, 362.153 296.818 C 362.583 312.498, 363.528 315.069, 369.825 317.700 C 373.419 319.202, 383.405 319.104, 385.932 317.542 C 386.519 317.179, 387 314.892, 387 312.460 L 387 308.038 382.514 308.653 C 375.466 309.619, 375 308.765, 375 294.878 L 375 283 381 283 L 387 283 387 278.500 L 387 274 381 274 L 375 274 375 269.500 L 375 265 370.630 265 C 366.308 265, 366.246 265.049, 365.007 269.474 M 451 277.456 L 451 284.912 443.750 285.206 L 436.500 285.500 436.193 289.750 L 435.885 294 443.443 294 L 451 294 451 301.500 L 451 309 455.500 309 L 460 309 460 301.500 L 460 294 467.500 294 L 475 294 475 289.500 L 475 285 467.500 285 L 460 285 460 277.500 L 460 270 455.500 270 L 451 270 451 277.456 M 183.564 274.086 C 173.984 276.422, 168.778 284.303, 168.778 296.467 C 168.778 308.305, 173.914 315.446, 184.309 318.058 C 189.432 319.346, 198.714 318.886, 203.250 317.120 C 205.700 316.166, 206 315.544, 206 311.418 C 206 307.414, 205.763 306.878, 204.250 307.468 C 194.682 311.194, 185.146 310.117, 182.506 305.011 C 179.437 299.077, 179.599 299, 195.134 299 L 209.269 299 208.775 292.095 C 208.448 287.530, 207.572 284.044, 206.190 281.807 C 202.245 275.425, 192.172 271.987, 183.564 274.086 M 229.564 274.076 C 219.991 276.436, 214.772 284.318, 214.787 296.395 C 214.807 312.333, 222.907 320.084, 238.116 318.718 C 246.643 317.953, 248 316.888, 248 310.965 C 248 308.234, 247.830 306, 247.622 306 C 247.414 306, 245.629 306.675, 243.654 307.500 C 238.340 309.720, 233.584 309.406, 230.345 306.621 C 227.910 304.526, 227.538 303.419, 227.236 297.371 C 226.648 285.578, 231.878 280.893, 241.724 284.392 C 246.320 286.025, 246.390 285.981, 248.461 280.112 L 249.872 276.113 246.686 275.094 C 241.648 273.483, 233.851 273.019, 229.564 274.076 M 324.594 274.041 C 322.995 274.519, 320.211 276.341, 318.407 278.090 L 315.127 281.269 314.255 277.885 C 313.437 274.709, 313.093 274.481, 308.691 274.195 L 304 273.890 304 295.945 L 304 318 309.923 318 L 315.845 318 316.173 304.415 L 316.500 290.831 319.766 287.915 C 322.314 285.641, 323.989 285, 327.389 285 L 331.746 285 332.256 279.750 C 332.914 272.977, 331.550 271.960, 324.594 274.041 M 256 291.352 C 256 307.727, 256.128 308.896, 258.270 312.102 C 261.068 316.291, 266.233 318.996, 271.434 318.998 C 275.466 319, 284 315.545, 284 313.911 C 284 311.943, 285.819 313.142, 286.411 315.500 C 286.963 317.701, 287.573 318, 291.519 318 L 296 318 296 296 L 296 274 290 274 L 284 274 284 287.351 C 284 305.356, 282.528 309.024, 275.316 308.985 C 268.980 308.950, 268 306.216, 268 288.566 L 268 274 262 274 L 256 274 256 291.352 M 338 296 L 338 318 344 318 L 350 318 350 296 L 350 274 344 274 L 338 274 338 296 M 390 274.327 C 390 274.558, 393.858 284.315, 398.574 296.010 C 407.740 318.741, 407.977 320.114, 403.505 324.586 C 401.749 326.342, 399.989 327, 397.045 327 L 393 327 393 332 L 393 337 398.614 337 C 405.734 337, 411.326 334.017, 414.529 328.511 C 416.800 324.605, 435 276.968, 435 274.928 C 435 274.309, 432.565 274.022, 428.834 274.202 L 422.669 274.500 418.335 287.500 C 415.951 294.650, 413.749 301.170, 413.441 301.988 C 413.132 302.806, 410.745 296.956, 408.136 288.988 L 403.391 274.500 396.696 274.204 C 393.013 274.042, 390 274.097, 390 274.327 M 184.637 284.250 C 183.275 285.488, 181.870 287.512, 181.513 288.750 C 180.879 290.951, 181.041 291, 188.933 291 C 196.807 291, 197 290.942, 197 288.573 C 197 285.686, 192.750 282, 189.421 282 C 188.151 282, 185.998 283.012, 184.637 284.250 M 203.379 361.835 C 184.191 368.468, 177.457 392.648, 190.399 408.442 C 192.254 410.706, 196.185 413.895, 199.136 415.529 L 204.500 418.500 298.432 418.770 C 406.379 419.080, 398.445 419.715, 408.168 409.992 C 412.705 405.455, 414.199 403.124, 415.551 398.474 C 420.033 383.055, 412.308 367.626, 397.292 362.008 C 392.059 360.050, 389.640 360.001, 300.212 360.033 C 215.117 360.063, 208.131 360.193, 203.379 361.835 M 206.994 365.934 C 199.806 368.121, 193.144 374.018, 190.375 380.645 C 188.430 385.300, 188.677 394.692, 190.871 399.522 C 192.966 404.134, 197.786 409.278, 202.356 411.779 C 205.255 413.366, 212.733 413.522, 298.500 413.780 C 382.412 414.032, 391.919 413.900, 395.789 412.432 C 412.493 406.094, 417.104 385.052, 404.542 372.490 C 396.703 364.651, 401.496 364.989, 299.568 365.086 C 250.031 365.133, 208.372 365.515, 206.994 365.934 M 214.270 377.483 C 205.676 381.219, 204.412 395.972, 212.217 401.439 C 213.493 402.333, 216.519 403, 219.299 403 C 223.332 403, 224.649 402.505, 227.077 400.077 C 228.685 398.469, 230 396.444, 230 395.577 C 230 393.104, 226.026 393.698, 223.821 396.500 C 219.365 402.166, 212 397.838, 212 389.554 C 212 384.430, 214.794 381, 218.968 381 C 221.769 381, 225 383.181, 225 385.071 C 225 385.582, 226.125 386, 227.500 386 C 232.160 386, 229.219 379.825, 223.401 377.394 C 219.322 375.690, 218.372 375.699, 214.270 377.483 M 235 390 L 235 403 244 403 C 252.333 403, 253 402.852, 253 401 C 253 399.205, 252.333 399, 246.500 399 L 240 399 240 395.500 L 240 392 246 392 C 251.333 392, 252 391.778, 252 390 C 252 388.222, 251.333 388, 246 388 L 240 388 240 384.548 L 240 381.095 246.240 380.798 C 251.246 380.559, 252.546 380.154, 252.813 378.750 C 253.111 377.187, 252.175 377, 244.073 377 L 235 377 235 390 M 257 390 L 257 403 259.500 403 C 261.796 403, 262 402.633, 262 398.500 C 262 394.238, 262.148 394, 264.801 394 C 267.130 394, 267.970 394.758, 269.788 398.500 C 271.517 402.060, 272.499 403, 274.487 403 C 277.593 403, 277.592 402.577, 274.466 397.109 C 272.005 392.804, 271.994 392.693, 273.899 391.358 C 276.665 389.421, 277.445 384.761, 275.600 381.194 C 273.667 377.455, 272.401 377, 263.918 377 L 257 377 257 390 M 280.185 378.750 C 280.417 379.973, 281.643 380.593, 284.258 380.810 L 288 381.121 288 392.060 L 288 403 290.500 403 L 293 403 293 392 L 293 381 297 381 C 300.333 381, 301 380.667, 301 379 C 301 377.126, 300.333 377, 290.427 377 C 280.897 377, 279.886 377.173, 280.185 378.750 M 306 390 L 306 403 308.500 403 L 311 403 311 390 L 311 377 308.500 377 L 306 377 306 390 M 316 390 L 316 403 318.500 403 C 320.864 403, 321 402.700, 321 397.500 L 321 392 326.500 392 C 331.333 392, 332 391.758, 332 390 C 332 388.242, 331.333 388, 326.500 388 L 321 388 321 384.500 L 321 381 327 381 C 332.333 381, 333 380.778, 333 379 C 333 377.157, 332.333 377, 324.500 377 L 316 377 316 390 M 338 390 L 338 403 340.500 403 L 343 403 343 390 L 343 377 340.500 377 L 338 377 338 390 M 349 390 L 349 403 358 403 C 366.333 403, 367 402.852, 367 401 C 367 399.205, 366.333 399, 360.500 399 L 354 399 354 395.500 L 354 392 360 392 C 365.333 392, 366 391.778, 366 390 C 366 388.222, 365.333 388, 360 388 L 354 388 354 384.548 L 354 381.095 360.240 380.798 C 365.246 380.559, 366.546 380.154, 366.813 378.750 C 367.111 377.187, 366.175 377, 358.073 377 L 349 377 349 390 M 371 390 L 371 403 377.550 403 C 389.032 403, 393.623 398.524, 392.764 388.168 C 392.381 383.547, 391.799 382.210, 389.138 379.832 C 386.256 377.257, 385.289 377, 378.484 377 L 371 377 371 390 M 262 385 C 262 388.979, 262.020 389, 265.878 389 C 270.800 389, 272.756 386.956, 271.168 383.470 C 270.243 381.439, 269.328 381, 266.021 381 L 262 381 262 385 M 376 390 L 376 399 379.365 399 C 381.255 399, 383.885 398.092, 385.365 396.927 C 387.575 395.189, 388 394.060, 388 389.927 C 388 383.605, 385.666 381, 380 381 L 376 381 376 390 M 353.591 450.853 C 352.473 452.662, 354.202 455.113, 356.377 454.803 C 359.287 454.388, 359.260 450.608, 356.344 450.193 C 355.159 450.024, 353.920 450.321, 353.591 450.853 M 196 465.500 L 196 480 198.500 480 C 200.833 480, 201 479.667, 201 475 L 201 470 206.077 470 C 212.649 470, 217 466.215, 217 460.500 C 217 457.795, 216.241 456.087, 214.077 453.923 C 211.361 451.207, 210.618 451, 203.577 451 L 196 451 196 465.500 M 222 465.500 L 222 480 224.500 480 L 227 480 227 465.500 L 227 451 224.500 451 L 222 451 222 465.500 M 291.635 453.073 C 289.613 454.663, 289 456.031, 289 458.950 C 289 463.558, 290.114 464.574, 298.213 467.352 C 304.841 469.626, 306.293 471.564, 303.479 474.379 C 301.227 476.630, 296.348 476.430, 294.268 474 C 292.546 471.989, 288 471.205, 288 472.918 C 288 477.175, 292.786 480, 299.996 480 C 306.104 480, 310 476.946, 310 472.156 C 310 467.791, 307.200 465.137, 300.502 463.156 C 294.288 461.318, 292.660 459.320, 295.040 456.452 C 296.790 454.343, 301.724 454.654, 303.732 457 C 305.534 459.105, 310 459.763, 310 457.923 C 310 457.331, 308.685 455.531, 307.077 453.923 C 304.635 451.481, 303.341 451, 299.212 451 C 295.726 451, 293.493 451.611, 291.635 453.073 M 201 460.500 L 201 466 204.500 466 C 208.189 466, 212 463.205, 212 460.500 C 212 457.795, 208.189 455, 204.500 455 L 201 455 201 460.500 M 232 467 C 232 477.210, 233.502 480, 239 480 C 240.667 480, 242.889 479.111, 244 478 L 246 476 246 478 C 246 479.467, 246.667 480, 248.500 480 L 251 480 251 469 L 251 458 248.500 458 C 246.079 458, 246 458.215, 246 464.777 C 246 472.039, 244.286 476, 241.143 476 C 237.887 476, 237 473.815, 237 465.800 C 237 458.147, 236.953 458, 234.500 458 C 232.019 458, 232 458.067, 232 467 M 258.455 460.455 C 254.167 464.743, 256.013 468.536, 263.570 470.963 C 268.991 472.704, 270.102 474.340, 266.994 476.003 C 265.315 476.902, 264.360 476.811, 262.468 475.571 C 259.777 473.808, 256 473.475, 256 475 C 256 477.713, 260.117 480, 265 480 C 270.689 480, 274 477.635, 274 473.571 C 274 470.443, 271.854 468.342, 267.760 467.463 C 262.945 466.429, 261 465.164, 261.644 463.485 C 262.305 461.763, 267.091 461.491, 268.685 463.085 C 269.281 463.681, 270.834 464.019, 272.135 463.835 L 274.500 463.500 271.795 460.750 C 268.144 457.038, 262.007 456.902, 258.455 460.455 M 316.923 460.923 C 314.449 463.398, 314 464.637, 314 469 C 314 473.363, 314.449 474.602, 316.923 477.077 C 319.311 479.465, 320.693 480, 324.469 480 C 328.189 480, 329.619 479.463, 331.795 477.250 C 334.366 474.636, 334.398 474.485, 332.448 474.206 C 331.320 474.045, 329.126 474.572, 327.574 475.377 C 323.596 477.441, 319 475.565, 319 471.878 C 319 470.208, 319.830 470, 326.500 470 C 333.394 470, 334 469.834, 334 467.950 C 334 465.059, 331.334 460.249, 329.055 459.030 C 325.245 456.991, 320.044 457.802, 316.923 460.923 M 338 469 L 338 480 340.500 480 C 342.935 480, 343 479.813, 343.015 472.750 C 343.033 464.433, 343.709 462.864, 347.369 462.652 C 349.384 462.536, 349.999 461.974, 349.999 460.250 C 350 457.791, 348.107 457.337, 344.934 459.035 C 343.601 459.749, 343 459.749, 343 459.035 C 343 458.466, 341.875 458, 340.500 458 L 338 458 338 469 M 354 469 L 354 480 356.500 480 L 359 480 359 469 L 359 458 356.500 458 L 354 458 354 469 M 366.923 460.923 C 364.449 463.398, 364 464.637, 364 469 C 364 473.363, 364.449 474.602, 366.923 477.077 C 369.311 479.465, 370.693 480, 374.469 480 C 378.189 480, 379.619 479.463, 381.795 477.250 C 384.366 474.636, 384.398 474.485, 382.448 474.206 C 381.320 474.045, 379.126 474.572, 377.574 475.377 C 373.596 477.441, 369 475.565, 369 471.878 C 369 470.208, 369.830 470, 376.500 470 C 383.394 470, 384 469.834, 384 467.950 C 384 465.059, 381.334 460.249, 379.055 459.030 C 375.245 456.991, 370.044 457.802, 366.923 460.923 M 389.455 460.455 C 385.167 464.743, 387.013 468.536, 394.570 470.963 C 399.991 472.704, 401.102 474.340, 397.994 476.003 C 396.315 476.902, 395.360 476.811, 393.468 475.571 C 390.777 473.808, 387 473.475, 387 475 C 387 477.713, 391.117 480, 396 480 C 401.689 480, 405 477.635, 405 473.571 C 405 470.443, 402.854 468.342, 398.760 467.463 C 393.945 466.429, 392 465.164, 392.644 463.485 C 393.305 461.763, 398.091 461.491, 399.685 463.085 C 400.281 463.681, 401.834 464.019, 403.135 463.835 L 405.500 463.500 402.795 460.750 C 399.144 457.038, 393.007 456.902, 389.455 460.455 M 320.571 463.571 C 317.953 466.190, 318.763 467, 324 467 C 327.436 467, 329 466.593, 329 465.700 C 329 462.152, 323.404 460.739, 320.571 463.571 M 370.571 463.571 C 367.953 466.190, 368.763 467, 374 467 C 377.436 467, 379 466.593, 379 465.700 C 379 462.152, 373.404 460.739, 370.571 463.571" stroke="none" fill="#fbfafa" fill-rule="evenodd"/></svg>