<svg height="169.030851" viewBox="0 0 133.4502 38.200008" width="591.607978" xmlns="http://www.w3.org/2000/svg"><g transform="matrix(.5 0 0 .5 1.0059 1.1617)"><circle cx="34" cy="24.5" fill="#4b9cd3" r="0"/><path d="m68-.000002v72.400002" fill="none" stroke="#4b9cd3" stroke-miterlimit="10" stroke-width=".8"/><path d="m24.1 6.6992c-8.3 0-13.3 2.7008-16.6 5.8008l-.099609.09961c-.1.2-.10117.40078.29883.30078 7.0998-3.0006 14.801-1.101 17.301 1.699.1.1.000391.20117-.09961.20117-2.5 0-4.6012-.1-9.2012.5-2.5.4-4.6996.69922-6.5996 1.1992-3.1.8-5.3 1.7996-6.5 2.5996-.4.2-.49961.39961-.59961.59961-.1.4-.099219.40117-.19922.70117-.2.5-.20078.8-.30078 1-.1.3.3.2.5 0 .4-.4 1.4004-1.3 2.9004-2s3.9988-1.5 6.7988-2c3.6-.7 8.1016-1.0996 12.102-1.0996 4.7 0 8.8984.49922 12.398 1.1992 3.6.7 6.4012 1.6996 8.2012 2.5996.9.4 1.3004.80078 1.9004 1.3008.5.5.5.10039.5-.09961 0 0-.10078-.6-.80078-2-2.4-4.3-8.6004-12.602-21.9-12.602zm65.5 6.7012-.2 2.6h.6c.2-1.4.59922-1.5996 1.1992-1.5996h1.5v5.4004c0 1.1-.09844 1.2988-1.3984 1.2988v.59961h5.0996v-.59961c-1.201.001-1.401-.198-1.401-1.298v-5.4004h1.5c.9 0 1.1008.29961 1.3008 1.5996h.59961l-.30078-2.5996h-.59961c-.1.2-.20078.19922-.80078.19922h-5.8984-.40039l-.20117-.19922h-.59961zm11.801 0v.59961c.8 0 1.0996.30078 1.0996 1.3008v4.3984c0 1.1-.19961 1.3008-1.0996 1.3008v.59961h4.5v-.59961c-1 0-1.0996-.39922-1.0996-1.1992v-1.9004h3.8984v1.9004c0 1.1-.29961 1.2988-1.0996 1.2988v.59961h4.4004v-.59961c-1 0-1.0996-.39883-1.0996-1.2988v-4.5c0-.8.0996-1.1016 1.0996-1.1016v-.59961h-4.4004v.59961c.9 0 1.0996.30078 1.0996 1.3008v1.4004h-3.8984v-1.7012c0-1 .19961-1.0992 1.0996-1.1992v-.59961zm90.799 0c-.5 0-1.2996.09961-2.0996.09961-1.1 0-1.6004-.000391-2.4004.09961v.59961c1.2 0 1.4004.20117 1.4004 1.2012v4.5c0 .9-.30039 1.0996-1.4004 1.0996v.59961h4.9004v-.59961c-1 0-1.4004-.09961-1.4004-1.0996v-1.7012h.70117c.6.6 1.3992 2.0008 2.1992 2.8008.6.6 1.3.80078 2.5.80078h1.5996v-.60156c-.7 0-1.1988-.09922-1.7988-.69922-.8-.8-1.2996-1.8996-2.0996-2.5996 1.3-.4 1.8984-1.0996 1.8984-2.0996 0-2-1.9-2.4004-4-2.4004zm10.602 0c-2.2 0-2.8008 1.3988-2.8008 2.2988 0 2.5 4.0996 2.7004 4.0996 4.4004 0 .7-.49883 1.2012-1.2988 1.2012-1.1 0-1.9008-.8-2.3008-2v-.10156h-.59961l.40039 2.6016h.39844c0-.1.10078-.20117.30078-.20117s1.1996.30078 2.0996.30078c1.8 0 3-1 3-2.5 0-2.8-4.2988-3.1-4.2988-4.5 0-.5.39961-.80078 1.0996-.80078.9 0 1.7992.60117 2.1992 1.7012h.59961l-.2-2.3h-.40039c-.1.2-.19883.19922-.29883.19922-.4 0-1-.29883-2-.29883zm14 0-.2 2.6h.59961c.2-1.4.60117-1.5996 1.2012-1.5996h1.5v5.4004c0 1.1-.10039 1.2988-1.4004 1.2988v.59961h5v-.59961c-1.2 0-1.4004-.19883-1.4004-1.2988v-5.4004h1.5c.9 0 1.1008.29961 1.3008 1.5996h.59961l-.19922-2.5996h-.60156c-.1.2-.19883.19922-.79883.19922h-5.9004-.40039l-.19922-.19922h-.59961zm-101.5.09961v.59961c.9 0 1.2988.10117 1.2988 1.2012v4.5c0 .9-.20039 1.1992-1.4004 1.1992v.59961h7.9004l.20117-2.1992h-.60156c-.2.9-.49961 1.4004-1.5996 1.4004h-1.5c-.7 0-.79883-.0012-.79883-.70117v-2.0996h1.6992c1 0 1.1992.20039 1.1992.90039h.60156v-2.7012h-.60156c0 .8-.29922 1-1.1992 1h-1.6992v-2.7988h2.5996c.7 0 .9.19961 1 1.0996h.59961l-.0996-1.9004v-.09961h-7.5996zm42.5 0v.59961c.9 0 1.0996.40078 1.0996 1.3008v4.5c0 .9-.19961 1.1992-1.0996 1.1992v.5h4.5v-.59961c-1.1 0-1.2012-.39922-1.2012-1.1992v-4.4004c0-1 .20117-1.3008 1.2012-1.3008v-.59961h-4.5zm18.299 0v.59961c.9 0 1.3008.10117 1.3008 1.2012v4.5c0 .9-.2 1.199-1.4 1.199v.59961h7.9004l.19922-2.1992h-.59961c-.2.9-.49961 1.4004-1.5996 1.4004h-1.5c-.7 0-.80078-.0012-.80078-.70117v-2.0996h1.7012c1 0 1.1992.20039 1.1992.90039h.59961v-2.7012h-.59961c0 .8-.29922 1-1.1992 1h-1.7012v-2.7988h2.5996c.7 0 .9.19961 1 1.0996h.60156l-.10156-1.9004v-.09961h-7.5996zm33.301 0v.59961c.9 0 1.0996.40078 1.0996 1.3008v4.5c0 .9-.19961 1.1992-1.0996 1.1992v.5h4.5v-.59961c-1.1 0-1.2012-.39922-1.2012-1.1992v-4.4004c0-1 .20117-1.3008 1.2012-1.3008v-.59961h-4.5zm-77.9.09961v.59961c.9 0 1.0996.40078 1.0996 1.3008v3.4004c0 1.9 1.5004 3 3.9004 3 2.2 0 3.8008-.99961 3.8008-3.5996v-2.9004c0-1 .19883-1.2012 1.2988-1.2012v-.59961h-3.5v.59961c1.1 0 1.3008.30078 1.3008 1.3008v2.6992c0 1.7-.70039 2.6016-2.4004 2.6016-1.6 0-2.3008-.8-2.3008-2v-3.5c0-.8.30117-1.1016 1.2012-1.1016v-.59961zm33 0v.59961c.9 0 .99922.10156 1.6992 1.6016l2.7012 6.0996h1l2.7988-6.2012c.6-1.3.90078-1.5 1.8008-1.5v-.59961h-3.5996v.59961c.8 0 1.0996.2 1.0996.5 0 .2-.1.50078-.5 1.3008l-1.5 3.3-1.7-3.801c-.1-.4-.20117-.60078-.20117-.80078 0-.3.30078-.5 1.3008-.5v-.59961h-4.9004zm69.4 0v.59961c.7 0 .90039.10039.90039.40039 0 .2-.10078.40078-.30078.80078l-1.3 2.099-1.8-2.5c-.1-.1-.20117-.30039-.20117-.40039 0-.2.30039-.29883.90039-.29883v-.60156h-4.6992v.60156c.7 0 .99961.2 1.5996 1l2.4004 3.1992v1.3008c0 .9-.20078 1.1992-1.3008 1.1992v.59961h4.8008v-.59961c-1.2 0-1.3008-.29922-1.3008-1.1992v-1.4004l1.9-2.901c.7-1.1.90078-1.3008 1.8008-1.3008h-.10156v-.59961h-3.2988zm-89.301.09961v.60156c.6 0 .89961.09883 1.0996.29883v5.2012c0 1.1-.29922 1.2988-1.1992 1.2988v.59961h3.3008v-.59961c-1.1 0-1.2012-.29922-1.2012-1.1992v-4.3008l5.9004 6.2012h1v-6.4004c0-.9.29922-1.2012 1.1992-1.2012v-.5h-3.2988v.60156c1.1 0 1.1992.39922 1.1992 1.1992v3.5l-4.9004-5.3008h-3.0996zm46.7.3h.59961c1.2 0 1.9004.69922 1.9004 1.6992 0 1.2749-.68185 1.8738-2.5 1.8965v-3.5957zm-167.2 4.199c-11 0-17.9 2.2012-19.4 3.2012 0 0-.39844.2-.39844.5-.0012.1.198.6.198.6l.30078.59961c.1.2.19844.2.39844 0 0 0 .20117-.09922.20117-.19922s-.099609-.40039-.099609-.40039c-.2-.4.099609-.5.099609-.5l.5996-.301c.3-.1.3004.101.4004.301 0 0 .099219.30039.19922.40039.2.1.69961-.19961 2.0996-.59961.1 0 .20039-.0016.40039-.10156.1-.1 0-.59961 0-.59961-.1-.2-.1996-.5.4004-.6l.90039-.19922c.4-.1.5.09844.5.39844 0 0-.000391.4.09961.5.1.2.29922-.09844 3.1992-.39844 0 0 .4-.0012.5-.20117.1-.2 0-.5 0-.5 0-.3-.2-.59961.5-.59961l1.2012-.09961c.9-.2.79883.2.79883.5 0 0 .0016.40039.10156.40039.1.1.39844.09961.39844.09961 1.6-.2 2.5012-.20117 4.2012-.20117 0 0 .19883.00039.29883-.09961s.10156-.19922.10156-.19922c0-.2-.00039-.49961.09961-.59961s.39961-.10156.59961-.10156h1.4004c.2 0 .69883-.09844.79883.10156.1.1.10156.69922.10156.69922s.19922.30039.19922.40039c.1.1.19922.09961.19922.09961 8.0988-.28584 12.83 2.6019 13.605 4h-.70508c-.2 0-.29883.10078-.29883.30078v.5c0 .2.09883.29883.29883.29883h1.4004c.1 0 .19922.09961.19922.09961.1.1-.19883.30078-.29883.30078l-.70117.40039c-.1.1-.19922.20039-.19922.40039l.001 29.2c.1.6 1 .59961 2 .59961.8 0 1.8004.000391 1.9004-.59961v-30.301c0-.1.1-.199.1-.199h.19922c.2 0 .30078-.10078.30078-.30078v-.5c-.1-.1-.2-.199-.4-.199h-.25195l1.0527-2.1992c.1-.2 0-.5 0-.5-1-1.1-9.5008-3.6016-19.801-3.6016zm-10.199 4.5c-.2 0-.30078.10078-.30078.30078v.5c0 .2.10078.30078.30078.30078h1.4004c.1 0 .19922.09961.19922.09961.1.1-.20078.29883-.30078.29883l-.699.401c-.1.1-.199.2-.199.4v32.301c.1.6 1 .59961 2 .59961.8 0 1.7984.00039 1.8984-.59961v-33.4c0-.1.10156-.20117.10156-.20117h.19922c.2 0 .30078-.09883.30078-.29883v-.5c-.1-.1-.20039-.20117-.40039-.20117h-4.5zm15.9 0c-.2 0-.301.101-.301.301v.5c0 .2.10078.30078.30078.30078h1.3984c.1 0 .20117.09961.20117.09961.1.1-.20078.29883-.30078.29883l-.69922.40039c-.1.1-.20117.20039-.20117.40039v32.301c.1.6 1 .59961 2 .59961.8 0 1.8004.00039 1.9004-.59961v-33.4c0-.1.09961-.20117.09961-.20117h.20117c.2 0 .29883-.09883.29883-.29883v-.5c-.1-.1-.19844-.20117-.39844-.20117h-4.5zm4.3984 1.2012h.10156zm-29.099.7c-.2 0-.29883.10078-.29883.30078v.5c0 .2.098828.29883.29883.29883h1.4004c.1 0 .19922.10156.19922.10156.1.1-.19883.29883-.29883.29883l-.7012.4c-.1.1-.1992.2-.1992.4v29.199c.1.6 1 .59961 2 .59961.8 0 1.8004-.09961 1.9004-.59961v-30.299c0-.1.099609-.20117.099609-.20117h.19922c.2.001.3008-.098.3008-.298v-.5c-.1-.1-.20039-.20117-.40039-.20117h-4.5zm96.8 6.4c-2.1 0-3.2996 1.8004-3.5996 3.9004-.3.2-.80117.29883-1.2012.29883l-.099.401h1.0996l-1.1 6.701c-.1 1-.5 1.5996-1 1.5996-.7 0-.69961-1.0996-1.5996-1.0996-.4 0-.80078.29922-.80078.69922 0 .5.6.90039 1.5.90039 1 0 1.7008-.4 2.3008-1 1-.9 1.3-1.9 1.5-3l1-4.8008h1.0996l.0996-.69922h-1.0996l.19922-1.5c.2-1.3.30117-1.8008.70117-1.8008.5 0 .79961 1 1.5996 1 .4 0 .80078-.39883.80078-.79883 0-.5-.50039-.80078-1.4004-.80078zm24.5 1.5996c-3.5 0-5.0996 2.1008-5.0996 4.3008 0 1.8 1.0988 4.1992 4.7988 4.1992 3.9 0 5-2.5988 5-4.2988 0-1.8-1.0992-4.2012-4.6992-4.2012zm19.199 0-.19922 2.5996h.59961c.2-1.4.59922-1.5996 1.1992-1.5996h1.5v5.4004c0 1.1-.0984 1.3008-1.3984 1.3008v.59961h5v-.59961c-1.2 0-1.4004-.20078-1.4004-1.3008v-5.4004h1.5c.9 0 1.0988.29961 1.2988 1.5996h.60156l-.20117-2.5996h-.59961c-.1.2-.20078.20117-.80078.20117h-5.8984-.40039l-.20117-.20117h-.59961zm44.6 0 .10156.30078-2 5.7988c-.4 1.4-.5 1.6016-1.5 1.6016v.59961h3.2988v-.59961c-.7 0-1.0996-.1-1.0996-.5 0-.1.10078-.5.30078-1l.19922-.70117h2.9004l.29883.80078c.2.5.30078.8.30078 1 0 .3-.29922.40039-1.1992.40039v.59961h4.5996v-.59961c-.7 0-1-.3-1.5-1.5l-2.4-6.202h-2.3008zm25.701 0c-3.5 0-5.0996 2.1008-5.0996 4.3008 0 1.8 1.0988 4.1992 4.7988 4.1992 3.9 0 5-2.5988 5-4.2988 0-1.8-1.0992-4.2012-4.6992-4.2012zm40.799 0 .10156.30078-2 5.7988c-.4 1.4-.5 1.6016-1.5 1.6016v.59961h3.2988v-.59961c-.7 0-1.0996-.1-1.0996-.5 0-.1.10078-.5.30078-1l.2-.702h2.9004l.29883.80078c.2.5.30078.8.30078 1 0 .3-.29922.40039-1.1992.40039v.59961h4.5996v-.59961c-.7 0-1-.3-1.5-1.5l-2.4-6.201h-2.3008zm-118.7.099c-.5 0-1.2996.10156-2.0996.10156-1.1 0-1.6004.09961-2.4004.09961v.59961c1.2 0 1.4004.19922 1.4004 1.1992v4.5c0 .9-.30039 1.1016-1.4004 1.1016v.59961h4.9004v-.59961c-1 0-1.4004-.10156-1.4004-1.1016v-1.699h.69922c.6.6 1.4012 2.0008 2.2012 2.8008.6.6 1.3.79883 2.5.79883h1.5996v-.6c-.7 0-1.2008-.09922-1.8008-.69922-.8-.8-1.2996-1.9016-2.0996-2.6016 1.3-.4 1.9004-1.0996 1.9004-2.0996 0-2-1.9-2.4004-4-2.4004zm43.301 0c-1.5 0-2.8012.40117-3.7012 1.2012-.9.8-1.4004 1.8992-1.4004 3.1992 0 .9.40156 1.9012 1.1016 2.7012.8.8 1.9992 1.3984 3.6992 1.3984.5 0 .90078-.09961 1.3008-.09961.4-.1.69961-.09961 1.0996-.09961h.40039c.2 0 .29844.09961.39844.09961v-.09961c.4-.9.70078-1.8996.80078-2.5996h-.59961c-.6 1.3-1.6008 2-2.8008 2-1.9 0-3.0996-1.4996-3.0996-3.5996 0-2 1.2004-3.4004 2.9004-3.4004.7 0 1.2992.19961 1.6992.59961s.80039.89961.90039 1.5996h.59961l-.0996-2.6992h-.5c0 .1-.0992.19922-.19922.19922-.3 0-1.1-.40039-2.5-.40039zm22.199 0c-.5 0-1.2996.10156-2.0996.10156-1.1 0-1.6004.09961-2.4004.09961v.6c1.2 0 1.4004.19922 1.4004 1.1992v4.5c0 .9-.30039 1.1016-1.4004 1.1016v.59961h4.9004v-.59961c-1 0-1.4004-.10156-1.4004-1.1016v-1.6992h.59961c.6.6 1.4012 2.0008 2.2012 2.8008.6.6 1.3.79883 2.5.79883h1.5996.0996v-.59961c-.7 0-1.2008-.09922-1.8008-.69922-.8-.8-1.2996-1.9016-2.0996-2.6016 1.3-.4 1.9004-1.0996 1.9004-2.0996 0-2-1.9-2.4004-4-2.4004zm-46.4.10156v.59961c.8 0 1.0996.19922 1.0996 1.1992v4.4004c0 1.1-.19961 1.3008-1.0996 1.3008v.59961h4.5v-.59961c-1 0-1.0996-.40117-1.0996-1.2012v-1.9004h3.9004v1.9004c0 1.1-.29961 1.3008-1.0996 1.3008v.59961h4.3984v-.59961c-1 0-1.0996-.40078-1.0996-1.3008v-4.5c0-.8.19961-1.0996 1.0996-1.0996v-.59961h-4.3984v.59961c.9 0 1.0996.30078 1.0996 1.3008v1.5h-3.9004v-1.7012c0-1 .19961-1.0992 1.0996-1.1992v-.59961zm66.201 0v.59961c1.2 0 1.2988.29922 1.2988 1.1992v4.4004c0 1-.19883 1.3008-1.2988 1.3008v.59961h7.1992l1-2.4004h-.59961c-1.1 1.5-1.4012 1.5-2.2012 1.5h-1c-.9 0-1-.10039-1-.90039v-4.5c0-1 .20078-1.1992 1.3008-1.1992v-.59961h-4.6992zm10.699 0v.59961c.9 0 1.0996.29922 1.0996 1.1992v4.5c0 .9-.19961 1.2012-1.0996 1.2012v.5h4.5v-.60156c-1.1 0-1.2-.399-1.2-1.199v-4.4004c0-.9.19922-1.1992 1.1992-1.1992v-.59961h-4.5zm-125.1.09961v.59961c.6 0 .89961.10078 1.0996.30078v5.198c0 1.1-.29922 1.3008-1.1992 1.3008v.59961h3.2988v-.59961c-1.1 0-1.1992-.30117-1.1992-1.2012v-4.2988l5.9004 6.1992h1v-6.4004c0-.9.29922-1.1992 1.1992-1.1992v-.5h-3.3008v.59961c1.1 0 1.2012.39922 1.2012 1.1992v3.5l-4.9-5.3h-3.0996zm133 0v.59961c.6 0 .89961.10078 1.0996.30078v5.198c0 1.1-.29922 1.3008-1.1992 1.3008v.59961h3.2988v-.59961c-1.1 0-1.1992-.30117-1.1992-1.2012v-4.2988l5.9004 6.1992h1v-6.4004c0-.9.29922-1.1992 1.1992-1.1992v-.5h-3.3008v.59961c1.1 0 1.2012.39922 1.2012 1.1992v3.5l-4.9-5.3h-3.0996zm-115.9.4c1.7 0 2.8008 1.6992 2.8008 4.1992 0 2.1-1.0008 3.0996-2.3008 3.0996-1.7 0-2.9004-1.6992-2.9004-4.1992 0-2.3 1.2004-3.0996 2.4004-3.0996zm11.1 0h.59961c1.2 0 1.9004.69922 1.9004 1.6992 0 1.2754-.68029 1.8742-2.5 1.8965v-3.5957zm65.4 0h.69922c1.2 0 1.9004.69922 1.9004 1.6992 0 1.3-.69961 1.9004-2.5996 1.9004v-3.5996zm13 0c1.6 0 2.8008 1.6992 2.8008 4.1992 0 2.1-1.0008 3.0996-2.3008 3.0996-1.7 0-2.9004-1.6992-2.9004-4.1992 0-2.3 1.2004-3.0996 2.4004-3.0996zm-24.6 1 1.1992 3.0996h-2.2988zm66.5 0 1.1992 3.0996h-2.2988zm-163.7.398c-2 0-4 2.1008-4 4.3008 0 1.2.60156 2.0996 1.6016 2.0996 1.6 0 4-1.5992 4-4.1992 0-1.3-.60156-2.2012-1.6016-2.2012zm-.89844.70117c.4 0 .79883.79883.79883 1.7988 0 1.8-.80039 3.3008-1.4004 3.3008-.4 0-.79883-.80078-.79883-1.8008 0-1.8.80039-3.2988 1.4004-3.2988zm-71.801 9.299s-.09961.0016-.09961.10156v.19922.09961h.09961.30078l.399.9s.10117.09961.20117.09961c.2.1.40039.09961.40039.09961h1.3984.10156c.1 0 .29883.0016.29883.10156v.09961s.000391.09961-.09961.09961c-.5.3-1.4008.89922-1.8008 1.1992-.1 0-.19883.10078-.29883.30078v.30078 6l-.5.19922c-.1 0-.09961.09961-.09961.09961-.1.6-.10039 1.4.09961 1.5.1.1 1.5004.09961 2.9004.09961 1.3 0 2.5992-.09961 2.6992-.09961.2-.1.19961-.6.09961-1.5l-.1-.101-.5-.19922v-8l.59961-1.2012h.20117.09961v-.09961-.19922s.00039-.10156-.09961-.10156h-6.3008zm93 7.2012c-1.5 0-2.7992.39922-3.6992 1.1992-.9.8-1.4004 1.9012-1.4004 3.2012 0 .9.39961 1.8992 1.0996 2.6992.8.8 1.9992 1.4004 3.6992 1.4004.5 0 .90078-.09961 1.3008-.09961.4-.1.69961-.10156 1.0996-.10156h.40039c.2 0 .30039.10156.40039.10156v-.10156c.4-.9.69883-1.8996.79883-2.5996h-.59961c-.6 1.3-1.5988 2-2.7988 2-1.9 0-3.1016-1.4996-3.1016-3.5996 0-2 1.2004-3.4004 2.9004-3.4004.7 0 1.2012.19961 1.7012.59961.4.4.79844.90156.89844 1.6016h.60156l-.10156-2.7012h-.5c0 .1-.0992.20117-.19922.20117-.3 0-1.1-.40039-2.5-.40039zm22.699 0 .10156.29883-2 5.8008c-.4 1.4-.5 1.5996-1.5 1.5996v.59961h3.2988v-.59961c-.7 0-1.0996-.1-1.0996-.5 0-.1.10078-.5.30078-1l.2-.7h2.9004l.29883.79883c.2.5.30078.8.30078 1 0 .3-.29922.40039-1.1992.40039v.59961h4.5996v-.59961c-.7 0-1-.3-1.5-1.5l-2.4-6.199h-2.3008zm12.9 0c-.2 0-.89883.09961-1.7988.09961-.9 0-1.9016.09961-2.6016.09961v.59961c1.1.1 1.2012.20156 1.2012 1.6016h.0996v3.8984c0 1-.29922 1.3008-1.1992 1.3008v.59961h4.7988v-.59961c-1.3 0-1.5-.2-1.5-1v-1.6992c.4 0 1.0004.09961 1.4004.09961 2.4 0 3.1992-1.4 3.1992-2.5 0-1.6-1.3996-2.5-3.5996-2.5zm-29 .09961v.59961c.8 0 1.0996.20117 1.0996 1.2012v4.3984c0 1.1-.19961 1.3008-1.0996 1.3008v.59961h4.5v-.59961c-1 0-1.0996-.39922-1.0996-1.1992v-1.9004h3.9004v1.9004c0 1.1-.29961 1.2988-1.0996 1.2988v.59961h4.3984v-.59961c-1 0-1.0996-.39883-1.0996-1.2988v-4.5c0-.8.19961-1.1016 1.0996-1.1016v-.59961h-4.3984v.59961c.9 0 1.0996.30078 1.0996 1.3008v1.5h-3.9004v-1.6992c0-1 .19961-1.1012 1.0996-1.2012v-.59961zm35.301 0v.59961c.9 0 1.2988.10117 1.2988 1.2012v4.5c0 .9-.19844 1.1992-1.3984 1.1992v.59961h7.8984l.20117-2.1992h-.59961c-.2.9-.50156 1.4004-1.6016 1.4004h-1.5c-.7 0-.79883-.0012-.79883-.70117v-2.0996h1.6992c1 0 1.2012.20039 1.2012.90039h.59961v-2.7012h-.59961c0 .8-.30117 1-1.2012 1h-1.6992v-2.7988h2.5996c.6 0 .80039.19961.90039 1.0996h.59961l-.0996-1.9004v-.09961h-7.5zm27.1 0v.59961c.8 0 1.0996.20117 1.0996 1.2012v4.3984c0 1.1-.2 1.301-1.1 1.301v.59961h4.5v-.59961c-1 0-1.0996-.39922-1.0996-1.1992v-1.9004h3.9004v1.9004c0 1.1-.30156 1.2988-1.1016 1.2988v.59961h4.4004v-.59961c-1 0-1.0996-.39883-1.0996-1.2988v-4.5c0-.8.0996-1.1016 1.0996-1.1016v-.59961h-4.4004v.59961c.9 0 1.1016.30078 1.1016 1.3008v1.5h-3.9004v-1.6992c0-1 .19961-1.1012 1.0996-1.2012v-.6h-4.5zm-82.5.09961c-.9 1.2-1.6992 2.0008-2.6992 2.3008l-.10156.29883h.70117l-.901 4.3c-.1.9.20078 1.3008.80078 1.3008.7 0 1.7-.6 2.5-1.5l-.3-.301c-.4.5-.89961.90039-1.0996.90039-.2 0-.40078-.2-.30078-.5l1-4.0996h1.2012l.0996-.70117h-1.2012c.2-.8.40117-1.4.70117-2h-.40039zm66.699 0v.59961c1.2 0 1.3008.30117 1.3008 1.2012v4.4004c0 1-.20078 1.2988-1.3008 1.2988v.59961h7.2012l1-2.3984h-.59961c-1.1 1.5-1.4012 1.5-2.2012 1.5h-1c-.9 0-1-.10039-1-.90039v-4.5c0-1 .20078-1.2012 1.3008-1.2012v-.59961h-4.7012zm29.9 0v.59961c.9 0 1.0996.30117 1.0996 1.2012v4.5c0 .9-.19961 1.1992-1.0996 1.1992v.5h4.5v-.59961c-1.1 0-1.1992-.39922-1.1992-1.1992v-4.4004c0-.9.19922-1.2012 1.1992-1.2012v-.59961h-4.5zm7.5996 0v.59961c1.2 0 1.3008.30117 1.3008 1.2012v4.4004c0 1-.20078 1.2988-1.3008 1.2988v.59961h7.2012l1-2.3984h-.59961c-1.1 1.5-1.4012 1.5-2.2012 1.5h-1c-.9 0-1-.10039-1-.90039v-4.5c0-1 .20078-1.2012 1.3008-1.2012v-.59961h-4.7012zm9.7012 0v.59961c1.2 0 1.2988.30117 1.2988 1.2012v4.4004c0 1-.19883 1.2988-1.2988 1.2988v.59961h7.1992l1-2.3984h-.59961c-1.1 1.5-1.3992 1.5-2.1992 1.5h-1c-.9 0-1-.10039-1-.90039v-4.5c0-1 .19883-1.2012 1.2988-1.2012v-.59961h-4.6992zm-65.1.4c1 0 1.5996.70078 1.5996 1.8008 0 1.2-.60117 1.8984-1.7012 1.8984-.2 0-.39961.00039-.59961-.09961v-3.5c.2-.1.40117-.09961.70117-.09961zm-11.9 1 1.1992 3.0996h-2.2988l1.1-3.1zm-41.9.4c-1.9 0-2.9992.3-4.1992 1.5-1.3 1.3-1.6016 2.5-1.6016 3.5s.7 1.4004 1 1.4004c.4 0 1.3012-.80078 2.2012-1.8008-.1.5-.09961.60039-.09961.90039 0 .6.19961.90039.59961.90039.5 0 1.2996-.60039 2.0996-1.4004v-.5c-.3.4-.8.90039-1 .90039s-.19961-.30156-.09961-.60156l1.1-4.799zm-1.9004.90039-.59961 3c-.6.6-1.1004 1.0996-1.4004 1.0996-.4 0-.59961-.4-.59961-1 0-.8.40039-1.9004.90039-2.4004s.89922-.69922 1.6992-.69922zm-90.5 1.6c-.1 0-.0996 0-.0996.1v2.5l.099609.09961c4.1 2.9 16.201 5.2 27.701 4h.29883c.2-.1.3-.1.5 0l.09961.09961s-.09883.10117-.29883.20117c-7.3 2.4-24.101 1.6988-31.201-3.7012h-.099609c-.10078-.001-.10039.101-.10039.101v2.0996c0 2.2 8.1996 6 24.6 6 15.9 0 24.6-3.8996 24.5-6.0996l-.1-2.901v-.201c-.1-.6-1-.699-3.5-.699l-.09961-1.5s.00039-.09961-.09961-.09961c0 0-.10156-.000391-.10156.09961s-.29883.29961-.79883.59961c-2.2 1.2-10.401 3-20.201 3-6.5 0-11.398-.80039-14.398-1.4004-4-.8-6.1016-1.7988-6.6016-2.2988h-.099609z" fill="#4b9cd3"/></g></svg>