<svg xmlns="http://www.w3.org/2000/svg" width="3083" height="507" viewBox="0 0 3083 507" version="1.1"><path d="M 1328 183.008 C 1261.223 188.248, 1208.738 237.010, 1192.813 308.605 C 1190.898 317.217, 1190.607 321.547, 1190.571 342 C 1190.535 362.842, 1190.788 366.671, 1192.806 375.857 C 1206.004 435.929, 1246.244 483.859, 1297.424 500.467 C 1313.373 505.643, 1319.529 506.506, 1340 506.440 C 1360.368 506.374, 1369.408 504.947, 1387.170 498.996 C 1416.662 489.116, 1442.998 469.850, 1457.606 447.471 C 1463.997 437.679, 1469.715 426.381, 1468.761 425.428 C 1468.433 425.100, 1463.979 423.767, 1458.862 422.465 C 1448.576 419.848, 1449.466 419.537, 1445.504 427.130 C 1441.628 434.557, 1431.497 447.367, 1424.225 454.035 C 1409.582 467.460, 1392.289 476.638, 1371 482.284 C 1360.269 485.130, 1358.296 485.338, 1341.500 485.386 C 1321.268 485.444, 1313.642 484.093, 1297.529 477.596 C 1254.097 460.083, 1221.407 418.165, 1212.957 369.151 C 1204.934 322.616, 1220.053 272.414, 1251.796 240.189 C 1275.767 215.853, 1304.492 204, 1339.500 204 C 1361.280 204, 1377.717 207.738, 1395 216.622 C 1415.066 226.937, 1424.755 236.913, 1441.738 264.749 C 1442.322 265.706, 1444.720 265.279, 1451.996 262.920 C 1457.218 261.227, 1461.636 259.697, 1461.813 259.520 C 1462.248 259.085, 1457.579 249.853, 1453.205 242.500 C 1428.460 200.908, 1381.890 178.780, 1328 183.008 M 2945 183.051 C 2890.192 189.860, 2858.702 216.888, 2853.875 261.267 C 2851.246 285.429, 2857.780 306.272, 2872.365 320.257 C 2887.453 334.723, 2908.899 342.958, 2957.500 352.948 C 3005.910 362.899, 3025.658 369.543, 3042.649 381.595 C 3056.421 391.364, 3062 403.544, 3062 423.839 C 3062 441.319, 3057.668 452.482, 3046.577 463.582 C 3035.879 474.288, 3022.702 480.311, 3000.500 484.644 C 2989.086 486.872, 2952.456 487.199, 2941 485.175 C 2908.998 479.523, 2886.655 468.308, 2864.295 446.673 L 2856.091 438.734 2847.923 445.617 L 2839.755 452.500 2849.001 461.201 C 2871.914 482.764, 2898.869 496.899, 2928.555 502.919 C 2966.738 510.663, 3012.805 506.369, 3039.783 492.552 C 3049.380 487.636, 3054.552 483.934, 3061.760 476.820 C 3069.592 469.090, 3074.545 461.731, 3078.093 452.556 C 3082.381 441.468, 3083.312 434.699, 3082.743 418.768 C 3082.074 400.024, 3079.704 392.498, 3070.278 379.185 C 3059.032 363.302, 3034.725 350.308, 2999.586 341.393 C 2994.039 339.986, 2980.050 336.832, 2968.500 334.384 C 2916.327 323.328, 2898.773 316.963, 2886.454 304.634 C 2879.298 297.473, 2876.456 291.083, 2874.898 278.658 C 2873.771 269.670, 2874.987 256.099, 2877.627 248.211 C 2885.070 225.964, 2902.724 212.470, 2933.077 205.827 C 2942.385 203.790, 2946.122 203.550, 2968 203.583 C 2991.153 203.618, 2993.026 203.762, 3002.064 206.205 C 3019.411 210.894, 3036.280 221.350, 3047.540 234.392 C 3050.203 237.477, 3052.633 239.992, 3052.941 239.982 C 3053.248 239.972, 3056.602 236.561, 3060.394 232.402 L 3067.288 224.841 3060.394 217.861 C 3042.820 200.068, 3024.722 190.164, 3000.312 184.984 C 2988.972 182.578, 2957.630 181.482, 2945 183.051 M 1585.269 342.760 C 1547.192 430.067, 1515.756 502.288, 1515.412 503.250 C 1514.839 504.851, 1515.758 505, 1526.199 505 L 1537.612 505 1561.748 449.750 L 1585.883 394.500 1662.196 394.244 L 1738.509 393.988 1762.628 449.244 L 1786.746 504.500 1797.873 504.500 C 1803.993 504.500, 1809.112 504.270, 1809.250 503.988 C 1809.388 503.707, 1778.225 431.596, 1740 343.742 L 1670.500 184.008 1662.500 184.014 L 1654.500 184.020 1585.269 342.760 M 1863 344.500 L 1863 505 1873.496 505 L 1883.993 505 1884.246 368.961 L 1884.500 232.921 1947.524 338.211 L 2010.547 443.500 2017.813 443.500 L 2025.078 443.500 2088.289 337.997 L 2151.500 232.494 2151.754 368.747 L 2152.007 505 2162.504 505 L 2173 505 2173 344.500 L 2173 184 2164.616 184 L 2156.232 184 2087.054 299.541 L 2017.875 415.081 1961.686 321.291 C 1930.782 269.706, 1899.654 217.713, 1892.512 205.750 L 1879.527 184 1871.263 184 L 1863 184 1863 344.500 M 2246.247 344.207 L 2246.500 504.500 2256.750 504.785 L 2267 505.070 2267 444.607 L 2267 384.145 2330.250 383.761 C 2391.827 383.388, 2393.712 383.319, 2401.500 381.166 C 2434.142 372.141, 2457.793 346.408, 2467.760 309.074 C 2469.996 300.699, 2470.316 297.496, 2470.316 283.500 C 2470.316 269.529, 2469.994 266.294, 2467.776 257.989 C 2462.823 239.441, 2453.550 223.554, 2440.318 210.946 C 2427.662 198.887, 2414.453 191.257, 2398.500 186.793 C 2390.608 184.584, 2389.529 184.550, 2318.247 184.234 L 2245.994 183.914 2246.247 344.207 M 2527.303 276.250 C 2527.630 337.177, 2528.189 371.556, 2528.951 377.500 C 2534.380 419.868, 2546.431 449.031, 2567.573 470.963 C 2583.128 487.098, 2599.793 496.545, 2623.086 502.430 C 2648.204 508.776, 2680.140 507.977, 2704.114 500.404 C 2752.158 485.227, 2780.268 446.966, 2789.635 384 C 2791.132 373.938, 2791.394 360.711, 2791.729 278.250 L 2792.112 184 2781.612 184 L 2771.113 184 2770.741 276.750 C 2770.342 376.205, 2770.384 375.334, 2764.990 398.500 C 2757.265 431.682, 2740.034 457.951, 2717.269 471.253 C 2700.514 481.042, 2683.329 485.263, 2660 485.320 C 2638.684 485.371, 2623.051 482.120, 2608 474.506 C 2575.466 458.046, 2555.533 423.055, 2550.058 372.789 C 2549.394 366.698, 2549 329.705, 2549 273.539 L 2549 184 2537.905 184 L 2526.810 184 2527.303 276.250 M 2267 284.024 L 2267 363.148 2328.750 362.755 C 2397.379 362.319, 2395.234 362.515, 2410 355.310 C 2415.700 352.529, 2419.562 349.590, 2426.091 343.065 C 2433.432 335.729, 2435.435 332.953, 2439.854 323.990 C 2447.177 309.137, 2449.238 300.552, 2449.332 284.500 C 2449.393 273.999, 2448.990 270.028, 2447.233 263.843 C 2439.506 236.649, 2421.232 216.619, 2396.500 208.238 L 2388.500 205.526 2327.750 205.213 L 2267 204.900 2267 284.024 M 1628.744 295.736 L 1595.183 372.500 1661.751 372.757 C 1698.363 372.899, 1728.467 372.866, 1728.649 372.685 C 1728.938 372.396, 1663.314 219.981, 1662.588 219.255 C 1662.433 219.100, 1647.203 253.516, 1628.744 295.736" stroke="none" fill="#747c7c" fill-rule="evenodd"/><path d="M 788.639 0.694 C 788.288 1.046, 788 11.158, 788 23.167 C 788 35.297, 787.603 45, 787.108 45 C 786.617 45, 785.413 38.712, 784.433 31.026 C 783.452 23.340, 782.303 16.491, 781.879 15.805 C 779.900 12.602, 779.757 17.241, 781.424 30.576 C 782.423 38.561, 783.072 45.261, 782.868 45.466 C 782.663 45.670, 781.357 46.123, 779.965 46.473 C 777.525 47.085, 777.238 46.621, 771.967 33.570 C 768.960 26.124, 765.938 19.814, 765.250 19.548 C 763.197 18.751, 763.800 21.630, 767.606 30.807 C 777.431 54.494, 776.777 54.799, 763.974 32.501 C 758.763 23.427, 753.938 16.002, 753.250 16.001 C 752.563 16.001, 752 16.411, 752 16.913 C 752 17.416, 755.800 24.374, 760.445 32.375 C 771.083 50.704, 771.239 51, 770.251 51 C 769.801 51, 765.461 45.825, 760.608 39.500 C 755.754 33.175, 751.157 28, 750.392 28 C 748.350 28, 748.668 29.132, 751.803 33.022 C 753.345 34.935, 757.470 40.237, 760.971 44.805 L 767.335 53.110 765.216 55.229 L 763.097 57.347 751.174 48.215 C 740.392 39.958, 738 38.670, 738 41.123 C 738 41.558, 743.175 45.845, 749.500 50.650 C 755.825 55.455, 761 59.766, 761 60.229 C 761 61.269, 760.255 60.876, 740.500 49.410 C 722.171 38.773, 721 38.220, 721 40.206 C 721 41, 729.385 46.454, 739.995 52.563 C 750.442 58.578, 758.992 63.886, 758.995 64.357 C 758.998 64.828, 758.438 64.980, 757.750 64.694 C 757.063 64.408, 751.013 61.885, 744.307 59.087 C 737.601 56.289, 731.376 54, 730.474 54 C 726.339 54, 730.656 56.637, 743.314 61.843 C 756.490 67.263, 757.041 67.605, 756.452 69.998 C 756.114 71.372, 755.655 72.678, 755.432 72.902 C 755.209 73.125, 749.446 72.563, 742.626 71.654 C 728.199 69.730, 725 69.617, 725 71.031 C 725 72.467, 725.756 72.631, 741.250 74.563 C 748.813 75.505, 755 76.664, 755 77.138 C 755 77.612, 746.188 78, 735.417 78 C 720.195 78, 715.926 78.278, 716.249 79.250 C 716.554 80.169, 721.802 80.632, 736.082 81 C 746.762 81.275, 754.825 81.799, 754 82.165 C 753.175 82.531, 746.650 83.573, 739.500 84.480 C 727.443 86.010, 723.737 87.070, 725.230 88.563 C 725.558 88.891, 732.503 88.275, 740.663 87.195 C 748.823 86.115, 755.578 85.295, 755.674 85.373 C 755.770 85.451, 755.995 86.806, 756.174 88.384 C 756.489 91.155, 756.138 91.404, 746 95.615 C 729.846 102.325, 728.584 102.984, 729.716 104.116 C 730.395 104.795, 735.169 103.305, 744.303 99.563 C 765.095 91.044, 764.450 91.952, 739.481 106.359 C 722.979 115.880, 718.709 119, 722.181 119 C 722.922 119, 731.775 114.240, 741.853 108.422 C 751.931 102.604, 760.442 98.108, 760.765 98.432 C 761.089 98.756, 760.601 99.579, 759.681 100.260 C 745.055 111.094, 738.085 116.729, 738.047 117.750 C 737.956 120.174, 740.234 118.916, 751.172 110.500 C 757.249 105.825, 762.551 102, 762.955 102 C 763.359 102, 764.462 102.853, 765.405 103.895 C 767.049 105.712, 766.745 106.280, 758.093 117.544 C 750.018 128.057, 748.437 131, 750.866 131 C 751.277 131, 755.545 125.825, 760.350 119.500 C 765.155 113.175, 769.554 108, 770.125 108 C 770.696 108, 770.278 109.462, 769.196 111.250 C 762.270 122.695, 752 141.010, 752 141.919 C 752 145.662, 755.663 140.897, 763.876 126.470 C 769.033 117.411, 773.634 110, 774.101 110 C 775.060 110, 774.929 110.366, 768.593 125.398 C 763.842 136.670, 763.138 139.454, 765.213 138.762 C 765.880 138.540, 768.894 132.428, 771.910 125.179 C 777.380 112.034, 778.444 110.729, 781.900 112.917 C 783.095 113.673, 783.058 115.609, 781.647 126.151 C 780.738 132.943, 779.996 139.834, 779.997 141.464 C 780 144.026, 780.188 144.230, 781.381 142.964 C 782.479 141.799, 786 119.829, 786 114.138 C 786 113.512, 786.450 113, 787 113 C 787.637 113, 788 121.167, 788 135.500 C 788 154.833, 788.211 158, 789.500 158 C 790.788 158, 791.004 154.792, 791.030 135.250 C 791.048 122.451, 791.428 113.156, 791.900 114 C 792.361 114.825, 793.495 121.575, 794.418 128.999 C 796.017 141.847, 797.258 146.102, 798.477 142.917 C 798.775 142.138, 798.171 135.200, 797.135 127.500 C 795.162 112.850, 795.335 111.703, 799.438 112.244 C 800.907 112.438, 802.710 115.708, 806.885 125.750 C 809.963 133.151, 812.969 139, 813.697 139 C 814.414 139, 815 138.615, 815 138.145 C 815 137.675, 812.498 131.326, 809.441 124.037 C 806.383 116.748, 804.133 110.533, 804.441 110.226 C 805.188 109.479, 804.509 108.415, 814.993 126.750 C 820.103 135.688, 824.644 143, 825.083 143 C 827.352 143, 826.086 140.039, 817.411 125.057 C 812.208 116.069, 808.194 108.472, 808.492 108.175 C 809.164 107.503, 808.939 107.243, 818.899 120.250 C 826.646 130.366, 829 132.597, 829 129.822 C 829 129.174, 824.980 123.394, 820.066 116.978 L 811.131 105.313 813.212 103.232 L 815.293 101.151 826.938 110.076 C 837.947 118.513, 841 120.245, 841 118.054 C 841 117.534, 835.554 112.937, 828.897 107.839 C 822.240 102.740, 817.210 98.430, 817.718 98.261 C 818.227 98.091, 826.819 102.687, 836.813 108.473 C 846.806 114.260, 855.492 119.108, 856.116 119.247 C 856.740 119.386, 857.433 119.006, 857.657 118.403 C 857.881 117.800, 849.612 112.440, 839.282 106.493 C 818.109 94.302, 819.494 95.173, 820.185 94.482 C 820.470 94.197, 826.707 96.447, 834.046 99.482 C 841.386 102.517, 847.752 105, 848.195 105 C 848.638 105, 849 104.407, 849 103.682 C 849 102.932, 843.294 100.020, 835.750 96.921 C 825.493 92.707, 822.442 91.029, 822.244 89.489 C 821.709 85.328, 822.816 85.158, 837.500 87.135 C 845.200 88.171, 852.138 88.775, 852.917 88.477 C 856.025 87.287, 851.970 86.054, 840 84.549 C 820.554 82.104, 820.952 81.539, 842.500 81 C 869.093 80.335, 869.250 78.593, 842.750 78.229 C 830.719 78.064, 823 77.575, 823 76.979 C 823 76.440, 823.512 76, 824.138 76 C 829.829 76, 851.799 72.479, 852.964 71.381 C 854.229 70.189, 854.002 70, 851.303 70 C 849.583 70, 842.950 70.719, 836.562 71.597 C 830.174 72.475, 824.284 72.939, 823.474 72.628 C 822.663 72.317, 822 71.012, 822 69.729 C 822 67.678, 823.604 66.727, 835.179 61.910 C 842.428 58.894, 848.540 55.880, 848.762 55.213 C 849.454 53.138, 846.670 53.842, 835.398 58.593 C 820.374 64.925, 820 65.059, 820 64.108 C 820 63.644, 828.544 58.368, 838.986 52.382 C 855.399 42.975, 860.768 39, 857.061 39 C 856.265 39, 831.534 52.942, 821.250 59.189 C 819.462 60.275, 818 60.696, 818 60.125 C 818 59.554, 823.175 55.155, 829.500 50.350 C 835.825 45.545, 841 41.277, 841 40.866 C 841 38.437, 838.057 40.018, 827.544 48.093 C 816.280 56.745, 815.712 57.049, 813.895 55.405 C 812.853 54.462, 812 53.355, 812 52.946 C 812 52.536, 815.825 47.212, 820.500 41.115 C 828.954 30.089, 830.137 27.958, 827.750 28.047 C 826.729 28.085, 821.094 35.055, 810.260 49.681 C 809.579 50.601, 808.751 51.085, 808.422 50.755 C 808.093 50.426, 812.138 42.718, 817.412 33.627 C 822.685 24.535, 827 16.850, 827 16.548 C 827 16.247, 826.359 16, 825.575 16 C 824.792 16, 820.463 22.412, 815.956 30.250 C 805.672 48.134, 804.949 49.282, 804.354 48.688 C 804.087 48.420, 806.401 42.019, 809.497 34.464 C 813.395 24.949, 814.806 20.406, 814.085 19.685 C 812.974 18.574, 811.729 21.013, 804.991 37.500 C 801.457 46.146, 801.198 46.487, 798.414 46.174 C 796.819 45.995, 795.429 45.762, 795.324 45.658 C 795.219 45.553, 796.007 39.174, 797.076 31.483 C 798.144 23.793, 798.774 16.862, 798.476 16.083 C 797.266 12.916, 796.031 17.132, 794.400 30 C 793.459 37.425, 792.309 43.927, 791.844 44.450 C 791.380 44.972, 791 35.437, 791 23.259 C 791 3.161, 790.543 -1.209, 788.639 0.694 M 664 297.500 L 664 506 688 506 L 712 506 712 297.500 L 712 89 688 89 L 664 89 664 297.500 M 0 302 L 0 506 24 506 L 48 506 48 414 L 48 322 157.500 322 L 267 322 267 414 L 267 506 291.500 506 L 316 506 316 302 L 316 98 291.500 98 L 267 98 267 185.500 L 267 273 157.500 273 L 48 273 48 185.500 L 48 98 24 98 L 0 98 0 302 M 765.667 178.667 C 765.300 179.033, 765 252.833, 765 342.667 L 765 506 789 506 L 813 506 813 342 L 813 178 789.667 178 C 776.833 178, 766.033 178.300, 765.667 178.667 M 475.217 189.123 C 442.641 191.472, 410.850 206.738, 386 231.967 C 347.829 270.719, 332.301 327.413, 344.633 383 C 358.104 443.714, 403.612 490.840, 461 503.501 C 472.360 506.008, 499.192 506.626, 511.545 504.666 C 553.036 498.082, 590.711 473.964, 608.384 442.673 C 613.875 432.950, 622.544 411.128, 621.361 410.004 C 620.384 409.076, 577.039 397.607, 576.556 398.148 C 576.384 398.342, 573.755 403.697, 570.714 410.049 C 566.291 419.291, 563.782 423.101, 558.161 429.120 C 546.589 441.512, 531.701 450.173, 513.408 455.155 C 502.556 458.110, 479.824 458.330, 469.500 455.580 C 440.901 447.960, 417.094 428.271, 402.797 400.415 C 398.505 392.052, 394.130 381.015, 392.623 374.750 L 391.962 372 514.096 372 L 636.229 372 635.720 348.250 C 635.309 329.043, 634.798 322.587, 633.048 314.500 C 622.397 265.258, 592.960 225.602, 551.097 204.099 C 527.904 192.185, 502.441 187.160, 475.217 189.123 M 985.265 189.966 C 934.931 195.715, 889.977 229.300, 867.045 278.286 C 845.335 324.665, 846.049 377.505, 869.007 423.500 C 876.827 439.167, 886.140 452.085, 898.544 464.471 C 919.320 485.216, 943.980 498.717, 972 504.688 C 985.314 507.525, 1014.103 507.261, 1027.886 504.175 C 1055.510 497.990, 1078.860 485.036, 1099.456 464.471 C 1142.839 421.151, 1157.892 355.290, 1138.001 295.829 C 1122.644 249.921, 1086.573 212.164, 1043.688 197.107 C 1026.031 190.907, 1002.361 188.014, 985.265 189.966 M 472.167 238.054 C 456.688 240.821, 439.176 249.105, 427.383 259.237 C 411.331 273.028, 398.828 293.378, 393.428 314.500 C 392.585 317.800, 391.663 321.288, 391.380 322.250 C 390.892 323.908, 395.959 324, 487.952 324 L 585.038 324 584.377 321.250 C 579.183 299.635, 568.164 279.248, 553.979 265.008 C 541.606 252.587, 526.749 243.997, 510 239.578 C 502.309 237.549, 480.015 236.651, 472.167 238.054 M 981.472 239.525 C 946.883 247.126, 918.169 274.723, 905.591 312.455 C 897.758 335.952, 898.141 366.389, 906.552 388.734 C 918.594 420.727, 941.697 444.236, 970.618 453.925 C 989.981 460.413, 1007.566 460.308, 1027.262 453.590 C 1039.901 449.278, 1051.153 442.426, 1061.567 432.698 C 1075.857 419.349, 1085.751 403.957, 1092.124 385.158 C 1106.394 343.073, 1094.393 293.983, 1062.552 264.197 C 1048.578 251.126, 1033.744 243.293, 1015.685 239.450 C 1007.372 237.681, 989.687 237.720, 981.472 239.525" stroke="none" fill="#fcd45c" fill-rule="evenodd"/></svg>